<svg width="75" height="75" viewBox="0 0 75 75" fill="none" xmlns="http://www.w3.org/2000/svg">
<path d="M58.9286 0H16.0714C14.3835 0 13.0102 1.37327 13.0102 3.06122V71.9388C13.0102 73.6267 14.3835 75 16.0714 75H58.9286C60.6165 75 61.9898 73.6267 61.9898 71.9388V3.06122C61.9898 1.37327 60.6165 0 58.9286 0ZM16.0714 3.06122H58.9286V29.8469H16.0714V3.06122ZM16.0714 71.9388V38.2653H49.7449V35.2041H16.0714V32.9082H58.9286L58.9287 71.9388H16.0714Z" fill="white"/>
<path d="M51.2755 45.1531H48.2143V48.2143H49.7449V52.8061H48.2143V55.8674H51.2755C52.1209 55.8674 52.8061 55.182 52.8061 54.3368V46.6837C52.8061 45.8385 52.1209 45.1531 51.2755 45.1531Z" fill="white"/>
<path d="M51.2755 11.4796H48.2143V14.5408H49.7449V19.1327H48.2143V22.1939H51.2755C52.1209 22.1939 52.8061 21.5085 52.8061 20.6633V13.0102C52.8061 12.165 52.1209 11.4796 51.2755 11.4796Z" fill="white"/>
<path d="M22.9592 19.8979H18.3674V22.9592H22.9592V19.8979Z" fill="white"/>
<path d="M26.0204 24.4897H18.3674V27.551H26.0204V24.4897Z" fill="white"/>
</svg>
