<svg width="78" height="78" viewBox="0 0 78 78" fill="none" xmlns="http://www.w3.org/2000/svg">
<g clip-path="url(#clip0)">
<path d="M48.2859 17.3333H19.8097C19.1255 17.3333 18.5716 17.8869 18.5716 18.5714V76.7618C18.5716 77.4461 19.1253 78 19.8097 78H48.2859C48.9702 78 49.524 77.4463 49.524 76.7618V18.5714C49.524 17.8871 48.9703 17.3333 48.2859 17.3333ZM47.0479 75.5238H21.0479V19.8096H47.0479V75.5238Z" fill="white"/>
<path d="M54.2913 8.0159C54.0653 7.651 53.6676 7.42847 53.2383 7.42847H24.7622C24.293 7.42847 23.8652 7.69344 23.6548 8.11274L18.7023 18.0174C18.5101 18.401 18.5309 18.8568 18.7567 19.2219C18.9827 19.5868 19.3804 19.8093 19.8097 19.8093H48.2859C48.7549 19.8093 49.1829 19.5447 49.3933 19.125L54.3457 9.22032C54.5379 8.83674 54.5173 8.3808 54.2913 8.0159ZM47.5205 17.3332H21.813L25.5273 9.9046H51.2348L47.5205 17.3332Z" fill="white"/>
<path d="M53.2383 0H24.7622C24.0779 0 23.524 0.553697 23.524 1.23816V8.66673C23.524 9.351 24.0777 9.90488 24.7622 9.90488H53.2383C53.9226 9.90488 54.4765 9.35118 54.4765 8.66673V1.23816C54.4765 0.553697 53.9228 0 53.2383 0ZM52.0002 7.42857H26.0002V2.47613H52.0002V7.42857Z" fill="white"/>
<path d="M59.2653 17.9574L54.3128 9.29066C53.8727 8.51933 52.6033 8.51933 52.1631 9.29066L47.2107 17.9574C47.1046 18.1447 47.0477 18.3564 47.0477 18.5715V76.7619C47.0477 77.4462 47.6014 78 48.2858 78H58.1905C58.8748 78 59.4287 77.4463 59.4283 76.7619V18.5715C59.4285 18.3564 59.3717 18.1447 59.2653 17.9574ZM56.9525 75.5239H49.524V18.9001L53.2383 12.4001L56.9525 18.9001V75.5239Z" fill="white"/>
<path d="M43.3336 38.3811H24.7622C24.0779 38.3811 23.524 38.9348 23.524 39.6193V52.0003C23.524 52.6846 24.0777 53.2384 24.7622 53.2384H43.3336C44.0179 53.2384 44.5718 52.6847 44.5718 52.0003V39.6193C44.5716 38.9348 44.0179 38.3811 43.3336 38.3811ZM42.0955 50.7619H26.0002V40.8572H42.0955V50.7619Z" fill="white"/>
</g>
<defs>
<clipPath id="clip0">
<rect width="78" height="78" fill="white"/>
</clipPath>
</defs>
</svg>
