<svg width="77" height="77" viewBox="0 0 77 77" fill="none" xmlns="http://www.w3.org/2000/svg">
<path d="M51.4266 49.382C49.6022 49.382 48.118 48.0974 48.118 46.5184C48.118 44.9393 49.6022 43.6547 51.4266 43.6547C53.251 43.6547 54.7352 44.9393 54.7352 46.5184C54.7352 47.3489 55.4086 48.0223 56.2391 48.0223C57.0696 48.0223 57.743 47.3489 57.743 46.5184C57.743 43.7625 55.6896 41.4453 52.9305 40.8164V40.0342C52.9305 39.2037 52.2571 38.5303 51.4266 38.5303C50.5962 38.5303 49.9227 39.2037 49.9227 40.0342V40.8164C47.1637 41.4453 45.1102 43.7625 45.1102 46.5184C45.1102 49.7559 47.9437 52.3898 51.4266 52.3898C53.251 52.3898 54.7352 53.6744 54.7352 55.2535C54.7352 56.8326 53.251 58.1173 51.4266 58.1173C49.6022 58.1173 48.118 56.8326 48.118 55.2535C48.118 54.4231 47.4446 53.7496 46.6141 53.7496C45.7837 53.7496 45.1102 54.4231 45.1102 55.2535C45.1102 58.0094 47.1637 60.3266 49.9227 60.9556V61.6053C49.9227 62.4357 50.5962 63.1092 51.4266 63.1092C52.2571 63.1092 52.9305 62.4357 52.9305 61.6053V60.9556C55.6896 60.3266 57.743 58.0094 57.743 55.2535C57.743 52.0159 54.9095 49.382 51.4266 49.382Z" fill="white"/>
<path d="M67.8986 40.4363C65.934 37.3751 63.1662 34.9256 59.8945 33.3528C59.1457 32.9927 58.2471 33.308 57.8874 34.0566C57.5275 34.8052 57.8426 35.7037 58.5912 36.0636C64.2927 38.8043 67.9765 44.6603 67.9765 50.9824C67.9765 53.6877 67.3096 56.3705 66.0483 58.7412C65.6582 59.4744 65.9363 60.3851 66.6696 60.7753C66.8946 60.895 67.1364 60.9518 67.3746 60.9518C67.9127 60.9518 68.4332 60.6622 68.7036 60.154C70.1956 57.3501 70.9843 54.1785 70.9843 50.9824C70.9843 47.2287 69.9173 43.5819 67.8986 40.4363Z" fill="white"/>
<path d="M53.7905 31.4318L53.6893 31.4316C52.8589 31.4316 52.1854 32.1049 52.1854 32.9355C52.1854 33.7661 52.8589 34.4394 53.6893 34.4394L53.7764 34.4396C53.7788 34.4396 53.7811 34.4396 53.7836 34.4396C54.6109 34.4396 55.2835 33.771 55.2874 32.9428C55.2911 32.1122 54.621 31.4357 53.7905 31.4318Z" fill="white"/>
<path d="M44.276 65.9014C38.5747 63.1605 34.8909 57.3045 34.8909 50.9825C34.8909 48.2773 35.5577 45.5945 36.819 43.2237C37.2091 42.4906 36.9311 41.5798 36.1978 41.1897C35.4648 40.7996 34.5537 41.0777 34.1637 41.811C32.6717 44.615 31.8831 47.7864 31.8831 50.9825C31.8831 54.7363 32.9501 58.3829 34.9688 61.5286C36.9333 64.5898 39.7011 67.0394 42.9728 68.6123C43.1829 68.7134 43.4049 68.7611 43.6234 68.7611C44.1835 68.7611 44.721 68.4469 44.9799 67.9085C45.3395 67.1599 45.0246 66.2613 44.276 65.9014Z" fill="white"/>
<path d="M49.178 67.5255L49.0909 67.5251C48.2565 67.5236 47.584 68.1912 47.5802 69.022C47.5763 69.8526 48.2467 70.529 49.0772 70.533L49.178 70.5333C50.0084 70.5333 50.6819 69.8598 50.6819 69.0294C50.6819 68.1989 50.0084 67.5255 49.178 67.5255Z" fill="white"/>
<path d="M58.2626 26.3436C58.0795 25.9074 57.8553 25.4964 57.5944 25.1152H61.5097C65.3242 25.1152 68.4276 22.0117 68.4276 18.1972C68.4276 14.3827 65.3242 11.2793 61.5097 11.2793H49.4664C50.232 10.1661 50.6815 8.81934 50.6815 7.36913C50.6815 3.55463 47.5781 0.451172 43.7636 0.451172H6.91796C3.10346 0.451172 0 3.55463 0 7.36913C0 11.1836 3.10346 14.2871 6.91796 14.2871H18.9612C18.1956 15.4003 17.7461 16.747 17.7461 18.1972C17.7461 19.6474 18.1954 20.9942 18.9612 22.1074H15.039C11.2245 22.1074 8.12108 25.2108 8.12108 29.0253C8.12108 31.2161 9.14584 33.171 10.7401 34.4394C9.14584 35.7078 8.12108 37.6627 8.12108 39.8534C8.12108 42.0442 9.14584 43.9991 10.7401 45.2675C9.14584 46.5359 8.12108 48.4908 8.12108 50.6815C8.12108 52.8723 9.14584 54.8272 10.7401 56.0956C9.14584 57.364 8.12108 59.3189 8.12108 61.5097C8.12108 65.3242 11.2245 68.4276 15.039 68.4276H32.7625C37.4316 73.4216 44.0737 76.5488 51.4336 76.5488C65.5309 76.5488 77 65.0798 77 50.9825C77 39.2495 69.0549 29.3386 58.2626 26.3436ZM61.5097 14.2871C63.6658 14.2871 65.4198 16.0412 65.4198 18.1972C65.4198 20.3532 63.6658 22.1074 61.5097 22.1074H51.8847H24.664C22.5079 22.1074 20.7539 20.3532 20.7539 18.1972C20.7539 16.0412 22.5079 14.2871 24.664 14.2871H61.5097ZM6.91796 11.2793C4.76181 11.2793 3.00781 9.52512 3.00781 7.36913C3.00781 5.21313 4.76181 3.45898 6.91796 3.45898H43.7636C45.9197 3.45898 47.6737 5.21313 47.6737 7.36913C47.6737 9.52512 45.9197 11.2793 43.7636 11.2793H6.91796ZM15.039 25.1152H51.8847C52.4904 25.1152 53.0705 25.256 53.5908 25.508C52.8795 25.4483 52.1603 25.4161 51.4336 25.4161C44.3736 25.4161 37.973 28.2929 33.3418 32.9355H15.039C12.883 32.9355 11.1289 31.1813 11.1289 29.0253C11.1289 26.8693 12.883 25.1152 15.039 25.1152ZM15.039 35.9433H30.7721C29.0649 38.2823 27.7449 40.9205 26.9066 43.7636H15.039C12.8829 43.7636 11.1289 42.0096 11.1289 39.8534C11.1289 37.6974 12.8829 35.9433 15.039 35.9433ZM15.039 46.7714H26.216C25.9879 48.1419 25.8673 49.5482 25.8673 50.9825C25.8673 52.2076 25.9559 53.4122 26.1233 54.5917H15.039C12.8829 54.5917 11.1289 52.8377 11.1289 50.6815C11.1289 48.5254 12.8829 46.7714 15.039 46.7714ZM15.039 65.4198C12.8829 65.4198 11.1289 63.6658 11.1289 61.5097C11.1289 59.3535 12.8829 57.5995 15.039 57.5995H26.7373C27.4962 60.4288 28.7289 63.0656 30.3456 65.4198H15.039ZM51.4336 73.541C38.9949 73.541 28.8751 63.4213 28.8751 50.9825C28.8751 38.5437 38.9949 28.4239 51.4336 28.4239C63.8724 28.4239 73.9922 38.5437 73.9922 50.9825C73.9922 63.4213 63.8724 73.541 51.4336 73.541Z" fill="white"/>
</svg>
