<svg width="73" height="73" viewBox="0 0 73 73" fill="none" xmlns="http://www.w3.org/2000/svg">
<path fill-rule="evenodd" clip-rule="evenodd" d="M18.4835 24.2491C19.1906 24.4655 19.9529 24.1107 20.1862 23.4562C22.3021 17.5324 28.2552 13.5526 35 13.5526C43.6013 13.5526 50.5994 20.0301 50.5994 27.9925C50.5994 34.1464 47.6216 37.823 45.2292 40.7773C43.4886 42.9261 41.9855 44.7824 41.9855 47.0335C41.9855 47.1817 41.9834 47.3284 41.9797 47.4741H36.3478V44.6079C36.3478 43.9188 35.7445 43.3603 35 43.3603C34.2556 43.3603 33.6522 43.9188 33.6522 44.6079V47.4741H28.0198C28.0161 47.3284 28.014 47.1817 28.014 47.0335C28.014 44.7819 26.5109 42.9261 24.7703 40.7768C23.0082 38.6008 21.0112 36.1343 20.0208 32.6297C19.8324 31.963 19.0953 31.5639 18.3756 31.7383C17.6558 31.9123 17.2247 32.5946 17.4131 33.2608C18.5372 37.2391 20.7974 40.0307 22.6138 42.2735C24.1248 44.1396 25.3184 45.6134 25.3184 47.0335C25.3184 47.631 25.3458 48.2139 25.3989 48.77V59.3232C25.3989 59.3568 25.4016 59.3895 25.4042 59.4221C25.4053 59.4299 25.4047 59.4382 25.4058 59.446C25.4105 59.4923 25.4184 59.5371 25.4284 59.582V59.5829C25.8965 61.6152 27.0948 63.4633 28.8038 64.7864C30.5454 66.1354 32.7461 66.8782 35 66.8782C37.2539 66.8782 39.4541 66.1354 41.1963 64.7864C42.9048 63.4633 44.1036 61.6152 44.5711 59.5829C44.5711 59.5825 44.5716 59.582 44.5716 59.5815C44.5816 59.5371 44.589 59.4923 44.5943 59.446C44.5948 59.4382 44.5948 59.4299 44.5953 59.4221C44.5979 59.389 44.6006 59.3563 44.6006 59.3227V48.77C44.6538 48.2139 44.6817 47.631 44.6817 47.0335C44.6817 45.6134 45.8752 44.1396 47.3862 42.2735C49.8797 39.1944 53.295 34.9778 53.295 27.9925C53.295 18.6543 45.0876 11.0574 35 11.0574C27.09 11.0574 20.1088 15.7253 17.6269 22.673C17.3931 23.3271 17.7769 24.0327 18.4835 24.2491ZM35 64.3829C32.2596 64.3829 29.7883 62.8487 28.6174 60.5703H41.3827C40.2112 62.8487 37.7399 64.3829 35 64.3829ZM41.9055 58.0751H28.0946V55.2698H41.9055V58.0751ZM41.9055 52.7746H28.0946V49.9693H41.9055V52.7746Z" fill="white"/>
<path fill-rule="evenodd" clip-rule="evenodd" d="M35.0001 8.81885C35.7445 8.81885 36.3479 8.2604 36.3479 7.57136V4.24749C36.3479 3.55845 35.7445 3 35.0001 3C34.2556 3 33.6522 3.55845 33.6522 4.24749V7.57136C33.6522 8.2604 34.2556 8.81885 35.0001 8.81885Z" fill="white"/>
<path fill-rule="evenodd" clip-rule="evenodd" d="M9.34782 29.2417H12.939C13.6835 29.2417 14.2869 28.683 14.2869 27.9937C14.2869 27.3043 13.6835 26.7456 12.939 26.7456H9.34782C8.60336 26.7456 8 27.3043 8 27.9937C8 28.683 8.60336 29.2417 9.34782 29.2417Z" fill="white"/>
<path fill-rule="evenodd" clip-rule="evenodd" d="M41.171 30.5138C41.171 29.8247 40.5677 29.2661 39.8232 29.2661H30.1768C29.4323 29.2661 28.829 29.8247 28.829 30.5138C28.829 31.203 29.4323 31.7615 30.1768 31.7615H33.6522V34.6278C33.6522 35.3169 34.2555 35.8755 35 35.8755C35.7445 35.8755 36.3478 35.3169 36.3478 34.6278V31.7615H39.8232C40.5677 31.7615 41.171 31.203 41.171 30.5138Z" fill="white"/>
<path fill-rule="evenodd" clip-rule="evenodd" d="M18.4477 14.4362C18.711 14.6799 19.0558 14.8018 19.4007 14.8018C19.7456 14.8018 20.0904 14.6799 20.3537 14.4362C20.8802 13.9488 20.8802 13.1587 20.3537 12.6718L17.8144 10.3211C17.2879 9.83372 16.4344 9.83372 15.9079 10.3211C15.3819 10.808 15.3819 11.5981 15.9079 12.0855L18.4477 14.4362Z" fill="white"/>
<path fill-rule="evenodd" clip-rule="evenodd" d="M15.9316 46.8923C16.2764 46.8923 16.6213 46.7705 16.8845 46.5268L19.4239 44.1761C19.9503 43.6887 19.9503 42.8991 19.4239 42.4117C18.8974 41.9243 18.0439 41.9243 17.5179 42.4117L14.9781 44.7624C14.4521 45.2498 14.4521 46.0399 14.9781 46.5268C15.2413 46.7705 15.5862 46.8923 15.9316 46.8923Z" fill="white"/>
<path fill-rule="evenodd" clip-rule="evenodd" d="M50.5994 14.8015C50.9442 14.8015 51.2891 14.6797 51.5523 14.436L54.0916 12.0853C54.6181 11.5979 54.6181 10.8078 54.0916 10.3204C53.5656 9.83305 52.7122 9.83353 52.1857 10.3204L49.6464 12.6711C49.1199 13.1585 49.1199 13.9486 49.6459 14.436C49.9091 14.6797 50.2545 14.8015 50.5994 14.8015Z" fill="white"/>
<path fill-rule="evenodd" clip-rule="evenodd" d="M50.5763 42.4117C50.0498 42.8986 50.0498 43.6887 50.5763 44.1761L53.1155 46.5268C53.3788 46.7705 53.7236 46.8923 54.0685 46.8923C54.4133 46.8923 54.7582 46.7705 55.0214 46.5268C55.5479 46.0399 55.5479 45.2498 55.0214 44.7624L52.4821 42.4117C51.9557 41.9243 51.1022 41.9243 50.5763 42.4117Z" fill="white"/>
<path fill-rule="evenodd" clip-rule="evenodd" d="M57.061 29.2417H60.6522C61.3966 29.2417 62 28.683 62 27.9937C62 27.3043 61.3966 26.7456 60.6522 26.7456H57.061C56.3165 26.7456 55.7131 27.3043 55.7131 27.9937C55.7131 28.683 56.3165 29.2417 57.061 29.2417Z" fill="white"/>
<path fill-rule="evenodd" clip-rule="evenodd" d="M35.0001 38.3708C34.2577 38.3708 33.6522 38.9315 33.6522 39.6189C33.6522 40.3063 34.2577 40.8669 35.0001 40.8669C35.7424 40.8669 36.3479 40.3063 36.3479 39.6189C36.3479 38.9315 35.7424 38.3708 35.0001 38.3708Z" fill="white"/>
<path fill-rule="evenodd" clip-rule="evenodd" d="M19.4006 27.9937C19.4006 27.3063 18.7952 26.7456 18.0529 26.7456C17.31 26.7456 16.7051 27.3063 16.7051 27.9937C16.7051 28.6811 17.31 29.2417 18.0529 29.2417C18.7952 29.2417 19.4006 28.6811 19.4006 27.9937Z" fill="white"/>
</svg>
