<svg width="71" height="71" viewBox="0 0 71 71" fill="none" xmlns="http://www.w3.org/2000/svg">
<g clip-path="url(#clip0)">
<path d="M51.7614 27.1466C51.7614 27.0366 51.8281 26.9321 51.9342 26.8757C54.2808 25.6331 55.7385 23.2128 55.7385 20.5602C55.7385 16.6265 52.5382 13.4213 48.5942 13.4154C47.5959 13.4154 46.63 13.6174 45.7216 14.0172C45.6534 14.047 45.5754 14.0204 45.5429 13.9532C43.9714 10.6993 40.6222 8.59705 37.0108 8.59705C33.3993 8.59705 30.0506 10.6993 28.4792 13.9532C28.4462 14.0215 28.3665 14.0459 28.2994 14.0166C27.392 13.6174 26.4257 13.4154 25.417 13.4154C21.4839 13.4213 18.2836 16.6265 18.2836 20.5602C18.2836 23.2128 19.7412 25.6331 22.0857 26.8746C22.1935 26.9321 22.2606 27.0361 22.2606 27.1466V42.8512C22.2606 44.9269 23.9491 46.6148 26.0243 46.6148H47.9978C50.073 46.6148 51.7614 44.9269 51.7614 42.8512V27.1466ZM20.3636 20.5602C20.3636 17.7716 22.6317 15.4992 25.4273 15.4954C26.1353 15.4954 26.82 15.6384 27.4608 15.9201C28.5447 16.3968 29.8378 15.9239 30.3524 14.8579C31.5787 12.3184 34.1924 10.6771 37.0108 10.6771C39.8292 10.6771 42.4428 12.3179 43.6692 14.8573C44.1827 15.9201 45.4811 16.3963 46.5596 15.9207C47.2015 15.6384 47.8862 15.4954 48.6012 15.4954C51.3899 15.4992 53.6579 17.7716 53.6579 20.5602C53.6579 22.4409 52.6244 24.1565 50.9587 25.0383C50.1705 25.4581 49.6808 26.2658 49.6808 27.1466V33.7053H24.3407V27.1466C24.3407 26.2658 23.851 25.4581 23.0607 25.0378C21.3972 24.1565 20.3636 22.4409 20.3636 20.5602ZM49.6814 42.8517C49.6814 43.7796 48.9257 44.5353 47.9973 44.5353H26.0243C25.0958 44.5353 24.3407 43.7802 24.3407 42.8517V35.7854H49.6814V42.8517Z" fill="white"/>
<path d="M29.0604 41.7045C29.6346 41.7045 30.1005 41.2392 30.1005 40.6644V39.2257C30.1005 38.651 29.6346 38.1857 29.0604 38.1857C28.4857 38.1857 28.0204 38.651 28.0204 39.2257V40.6644C28.0204 41.2386 28.4857 41.7045 29.0604 41.7045Z" fill="white"/>
<path d="M44.9617 41.7045C45.5359 41.7045 46.0017 41.2392 46.0017 40.6644V39.2257C46.0017 38.651 45.5359 38.1857 44.9617 38.1857C44.3869 38.1857 43.9216 38.651 43.9216 39.2257V40.6644C43.9216 41.2386 44.3869 41.7045 44.9617 41.7045Z" fill="white"/>
<path d="M37.0107 42.4726C38.0757 42.4726 39.0762 42.0262 39.756 41.2489C40.1341 40.8167 40.0902 40.1596 39.6574 39.781C39.2251 39.4029 38.5681 39.4473 38.19 39.8801C37.905 40.2056 37.4755 40.3925 37.0107 40.3925C36.5459 40.3925 36.1164 40.2056 35.8315 39.8801C35.4534 39.4473 34.7963 39.4029 34.364 39.781C33.9312 40.159 33.8873 40.8161 34.2654 41.2484C34.9453 42.0262 35.9458 42.4726 37.0107 42.4726Z" fill="white"/>
<path d="M23.3007 50.5648C22.7259 50.5648 22.2606 51.0307 22.2606 51.6049C22.2606 52.179 22.7259 52.6449 23.3007 52.6449H50.7214C51.2956 52.6449 51.7614 52.179 51.7614 51.6049C51.7614 51.0307 51.2956 50.5648 50.7214 50.5648H23.3007Z" fill="white"/>
<path d="M51.7614 56.9584C51.7614 56.3836 51.2956 55.9183 50.7214 55.9183H23.3007C22.7259 55.9183 22.2606 56.3836 22.2606 56.9584C22.2606 57.5326 22.7259 57.9984 23.3007 57.9984H50.7214C51.2956 57.9984 51.7614 57.5326 51.7614 56.9584Z" fill="white"/>
<path d="M60.5427 65.3832C60.5427 67.3333 58.9561 68.9199 57.006 68.9199H51.1033C50.5291 68.9199 50.0632 69.3858 50.0632 69.96C50.0632 70.5341 50.5291 71 51.1033 71H57.006C60.1034 71 62.6228 68.4806 62.6228 65.3832V58.5038H65.2879C67.076 58.5038 68.5315 57.0489 68.5315 55.2602V46.7059C68.5315 45.8554 68.2022 45.0814 67.6648 44.5018C68.2022 43.9232 68.5315 43.1486 68.5315 42.2987V33.7439C68.5315 32.8934 68.2022 32.1193 67.6648 31.5403C68.2022 30.9612 68.5315 30.1871 68.5315 29.3367V20.7818C68.5315 19.9319 68.2022 19.1573 67.6648 18.5782C68.2022 17.9997 68.5315 17.2251 68.5315 16.3752V7.82034C68.5315 6.03168 67.076 4.57671 65.2879 4.57671H62.5247C62.0351 1.97499 59.7475 0 57.006 0H24.4783C23.9041 0 23.4382 0.465851 23.4382 1.04004C23.4382 1.61423 23.9041 2.08008 24.4783 2.08008H57.006C58.9561 2.08008 60.5427 3.66668 60.5427 5.61675V65.3832ZM66.4514 7.82034V16.3747C66.4514 17.0166 65.9292 17.5382 65.2879 17.5382H62.6228V6.65679H65.2879C65.9292 6.65679 66.4514 7.17844 66.4514 7.82034ZM66.4514 20.7818V29.3367C66.4514 29.978 65.9292 30.5002 65.2879 30.5002H62.6228V19.6183H65.2879C65.9292 19.6183 66.4514 20.1405 66.4514 20.7818ZM66.4514 33.7439V42.2982C66.4514 42.9401 65.9292 43.4617 65.2879 43.4617H62.6228V32.5803H65.2879C65.9292 32.5803 66.4514 33.102 66.4514 33.7439ZM66.4514 55.2602C66.4514 55.9016 65.9292 56.4237 65.2879 56.4237H62.6228V45.5418H65.2879C65.9292 45.5418 66.4514 46.064 66.4514 46.7059V55.2602Z" fill="white"/>
<path d="M13.54 71H46.9431C47.5179 71 47.9832 70.5341 47.9832 69.96C47.9832 69.3858 47.5179 68.9199 46.9431 68.9199H13.54C11.5899 68.9199 10.0039 67.3333 10.0039 65.3832V60.7204H11.5786C13.6462 60.7204 15.431 58.9339 15.431 56.8674C15.431 54.7434 13.7031 53.0149 11.5786 53.0149H10.0033V46.4751H11.578C13.7025 46.4751 15.431 44.7471 15.431 42.6226C15.431 40.4981 13.7025 38.7696 11.578 38.7696H10.0033V32.2304H11.578C13.7025 32.2304 15.431 30.5024 15.431 28.3774C15.431 26.2946 13.6592 24.5249 11.578 24.5249H10.0033V17.9851H11.578C13.6478 17.9851 15.431 16.1997 15.431 14.1326C15.431 12.0347 13.6754 10.2801 11.578 10.2801H10.0033V5.61675C10.0033 3.66668 11.5899 2.08008 13.54 2.08008H20.3181C20.8929 2.08008 21.3582 1.61423 21.3582 1.04004C21.3582 0.465851 20.8929 0 20.3181 0H13.54C10.4432 0 7.92326 2.51939 7.92326 5.61675V10.2796H6.34857C4.22462 10.2796 2.49609 12.0081 2.49609 14.1326C2.49609 16.2571 4.22462 17.9851 6.34857 17.9851H7.92326V24.5249H6.34857C4.22462 24.5249 2.49609 26.2529 2.49609 28.3774C2.49609 30.5019 4.22462 32.2304 6.34857 32.2304H7.92326V38.7696H6.34857C4.22462 38.7696 2.49609 40.4981 2.49609 42.6221C2.49609 44.7466 4.22462 46.4751 6.34857 46.4751H7.92326V53.0144H6.34857C4.22462 53.0144 2.49609 54.7429 2.49609 56.8674C2.49609 58.9913 4.22462 60.7199 6.34857 60.7199H7.92326V65.3832C7.92326 68.4806 10.4432 71 13.54 71ZM4.57617 14.1326C4.57617 13.1549 5.37137 12.3597 6.34857 12.3597H11.578C12.5368 12.3597 13.351 13.1749 13.351 14.1326C13.351 15.1098 12.5558 15.905 11.578 15.905H6.34857C5.37137 15.905 4.57617 15.1098 4.57617 14.1326ZM4.57617 28.3774C4.57617 27.4002 5.37137 26.605 6.34857 26.605H11.578C12.5558 26.605 13.351 27.4002 13.351 28.3774C13.351 29.3546 12.5558 30.1503 11.578 30.1503H6.34857C5.37137 30.1503 4.57617 29.3551 4.57617 28.3774ZM4.57617 42.6226C4.57617 41.6449 5.37137 40.8497 6.34857 40.8497H11.578C12.5558 40.8497 13.351 41.6449 13.351 42.6226C13.351 43.5998 12.5558 44.395 11.578 44.395H6.34857C5.37137 44.395 4.57617 43.5998 4.57617 42.6226ZM4.57617 56.8674C4.57617 55.8896 5.37137 55.095 6.34857 55.095H11.578C12.5558 55.095 13.351 55.8896 13.351 56.8674C13.351 57.8451 12.5558 58.6398 11.578 58.6398H6.34857C5.37137 58.6403 4.57617 57.8451 4.57617 56.8674Z" fill="white"/>
</g>
<defs>
<clipPath id="clip0">
<rect width="71" height="71" fill="white"/>
</clipPath>
</defs>
</svg>
