<svg width="71" height="71" viewBox="0 0 71 71" fill="none" xmlns="http://www.w3.org/2000/svg">
<g clip-path="url(#clip0)">
<path d="M32.7619 48.156C33.3041 47.6138 33.3041 46.7363 32.7619 46.194C32.2191 45.6534 31.3399 45.6534 30.7966 46.194C30.2549 46.7363 30.2549 47.6138 30.7966 48.156C31.3399 48.6966 32.2191 48.6966 32.7619 48.156Z" fill="white"/>
<path d="M26.1837 15.2496C26.1837 23.6582 33.0381 30.4997 41.4632 30.4997C49.8882 30.4997 56.7426 23.6582 56.7426 15.2496C56.7426 6.84097 49.8882 0 41.4632 0C33.0381 0 26.1837 6.84097 26.1837 15.2496ZM53.9648 15.2496C53.9648 22.1295 48.3566 27.7268 41.4632 27.7268C34.5697 27.7268 28.9615 22.1295 28.9615 15.2496C28.9615 8.37015 34.5697 2.7729 41.4632 2.7729C48.3566 2.7729 53.9648 8.37015 53.9648 15.2496Z" fill="white"/>
<path d="M16.0691 70.59C16.6076 71.1317 17.4841 71.1376 18.0295 70.6014L24.764 63.9798C25.9081 62.8379 26.256 61.1473 25.7528 59.6777L27.2014 58.2834C27.9814 57.5315 29.0082 57.1171 30.0937 57.1171H48.5596C51.8356 57.1171 54.932 55.8615 57.2794 53.5816C57.376 53.4878 56.5461 54.4634 69.8771 38.5617C71.8543 36.227 71.5585 32.7212 69.2171 30.7457C66.8904 28.7885 63.4048 29.0697 61.4222 31.3643L53.2256 39.7723C52.1906 38.501 50.6123 37.7085 48.907 37.7085H33.4175C31.2134 36.7882 28.8747 36.3223 26.4617 36.3223C19.7729 36.3223 13.9324 39.4056 10.798 45.1865C9.47748 44.9368 8.0848 45.3355 7.08288 46.3354L0.474938 52.9499C-0.0645522 53.49 -0.0656376 54.3637 0.472767 54.9054L16.0691 70.59ZM26.4611 39.0947C28.5887 39.0947 30.6457 39.5221 32.5763 40.3649C32.7521 40.4418 32.9415 40.4814 33.1331 40.4814H48.907C50.4131 40.4814 51.6853 41.7072 51.6853 43.2537C51.6853 44.7829 50.4391 46.0266 48.907 46.0266H37.5739C36.807 46.0266 36.185 46.6474 36.185 47.4128C36.185 48.1788 36.807 48.799 37.5739 48.799H48.907C51.9708 48.799 54.4631 46.3116 54.4631 43.2537C54.4631 43.01 54.4457 42.7684 54.4142 42.529C62.3432 34.3945 63.4613 33.2515 63.509 33.1946C64.499 32.0284 66.2564 31.8805 67.4255 32.8642C68.5957 33.8517 68.7438 35.6046 67.7512 36.7773L55.2924 51.6423C53.4731 53.3855 51.0845 54.3448 48.5596 54.3448H30.0937C28.2842 54.3448 26.5713 55.0354 25.272 56.2884L24.0915 57.4254L13.2094 46.5651C15.7527 41.8031 20.5251 39.0947 26.4611 39.0947ZM9.04871 48.2947C9.50679 47.8375 10.2102 47.7552 10.7687 48.0997C11.0091 48.2459 10.3187 47.6187 22.7998 60.058C23.355 60.6121 23.3251 61.4951 22.8074 62.0118L17.0662 67.6567L3.41771 53.9309L9.04871 48.2947Z" fill="white"/>
<path d="M39.7964 6.93201V8.55653C38.1796 9.12855 37.0181 10.6696 37.0181 12.4773C37.0181 14.7702 38.8873 16.6363 41.1853 16.6363C41.9511 16.6363 42.5742 17.2582 42.5742 18.0225C42.5742 18.7868 41.9511 19.4087 41.1853 19.4087C40.5921 19.4087 39.9511 19.0366 39.3817 18.36C38.8878 17.7739 38.0119 17.6986 37.4246 18.191C36.8373 18.6839 36.7614 19.5582 37.2553 20.1443C37.9977 21.0256 38.871 21.6399 39.7964 21.9497V23.5678C39.7964 24.3337 40.4184 24.9539 41.1853 24.9539C41.9522 24.9539 42.5742 24.3337 42.5742 23.5678V21.9432C44.191 21.3707 45.3525 19.8296 45.3525 18.0225C45.3525 15.729 43.4833 13.8634 41.1853 13.8634C40.4195 13.8634 39.7964 13.2416 39.7964 12.4773C39.7964 11.7129 40.4195 11.0905 41.1853 11.0905C41.6776 11.0905 42.197 11.3413 42.6876 11.8153C43.239 12.3478 44.1183 12.3332 44.6518 11.7834C45.1853 11.233 45.1707 10.3555 44.6198 9.82299C43.9148 9.14209 43.2092 8.75695 42.5742 8.54678V6.93201C42.5742 6.16606 41.9522 5.54529 41.1853 5.54529C40.4184 5.54529 39.7964 6.16606 39.7964 6.93201Z" fill="white"/>
</g>
<defs>
<clipPath id="clip0">
<rect width="71" height="71" fill="white"/>
</clipPath>
</defs>
</svg>
