<svg width="77" height="77" viewBox="0 0 77 77" fill="none" xmlns="http://www.w3.org/2000/svg">
<path d="M38.5 0C17.2715 0 0 17.2715 0 38.5C0 59.7285 17.2715 77 38.5 77C59.7285 77 77 59.7285 77 38.5C77 17.2715 59.7285 0 38.5 0ZM38.5 72.1875C19.9244 72.1875 4.81252 57.0756 4.81252 38.5C4.81252 19.9244 19.9244 4.81252 38.5 4.81252C57.0756 4.81252 72.1875 19.9244 72.1875 38.5C72.1875 57.0756 57.0756 72.1875 38.5 72.1875Z" fill="white"/>
<path d="M40.9062 14.4375H36.0937V39.4963L51.2361 54.6387L54.6387 51.2361L40.9062 37.5036V14.4375Z" fill="white"/>
</svg>
