<svg width="77" height="77" viewBox="0 0 77 77" fill="none" xmlns="http://www.w3.org/2000/svg">
<path d="M57.1286 1.24292V3.72875H61.5849L36.0142 29.2994L23.6002 16.8703L7.82129 32.6492L9.5644 34.4075L23.6002 20.3868L36.0142 32.8008L63.3431 5.48701V9.92815H65.829V1.24292H57.1286Z" fill="white"/>
<path d="M74.5142 73.2713V18.6285H62.1002V73.2713H59.6144V26.086H47.2004V73.2864H44.7146V43.4717H32.2854V73.2713H29.7996V36.0142H17.3856V73.2713H14.8998V55.8856H2.48583V73.2713H0V75.7571H77V73.2713H74.5142ZM12.4291 73.2713H4.97165V58.3715H12.4291V73.2713ZM27.3289 73.2713H19.8715V38.5H27.3289V73.2713ZM42.2287 73.2864H34.7713V45.9575H42.2287V73.2864ZM57.1285 73.2864H49.6711V28.5718H57.1285V73.2864ZM72.0435 73.2713H64.586V21.1144H72.0435V73.2713Z" fill="white"/>
</svg>
