<svg width="73" height="73" viewBox="0 0 73 73" fill="none" xmlns="http://www.w3.org/2000/svg">
<g clip-path="url(#clip0)">
<path d="M16.339 71.5239C15.5392 71.5239 14.745 71.2744 14.0672 70.7843C12.8045 69.8692 12.2147 68.2964 12.5584 66.7786L17.2547 46.0915L1.32782 32.124C0.157094 31.102 -0.290145 29.4835 0.190512 28.0025C0.671168 26.5243 1.97891 25.4778 3.52726 25.3347L24.6004 23.4215L32.932 3.92402C33.5463 2.49152 34.9454 1.56641 36.4999 1.56641C38.0543 1.56641 39.4534 2.49152 40.0678 3.92068L48.3993 23.4215L69.4691 25.3347C71.0208 25.4745 72.3286 26.5243 72.8092 28.0025C73.2899 29.4807 72.8454 31.102 71.6747 32.124L55.7479 46.0887L60.4441 66.7753C60.7883 68.2964 60.198 69.8692 58.9359 70.7815C57.6766 71.6938 55.9974 71.764 54.6713 70.967L36.4999 60.1079L18.3285 70.9731C17.7142 71.3379 17.0296 71.5239 16.339 71.5239ZM36.4999 55.43C37.1905 55.43 37.8744 55.6155 38.4893 55.9803L55.6387 66.2373L51.2064 46.7119C50.89 45.3223 51.3618 43.8714 52.4356 42.9313L67.4741 29.7425L47.5778 27.9357C46.1453 27.8048 44.9133 26.9042 44.3536 25.5842L36.4999 7.18446L28.6367 25.587C28.0831 26.8981 26.8511 27.7987 25.4219 27.9296L5.52285 29.7363L20.5608 42.9252C21.6379 43.8681 22.1091 45.3162 21.79 46.7091L17.361 66.2339L34.5104 55.9803C35.1247 55.6155 35.8092 55.43 36.4999 55.43ZM24.4394 23.7986C24.4394 23.7986 24.4394 23.8019 24.4361 23.8047L24.4394 23.7986ZM48.5542 23.7897L48.5575 23.7958C48.5575 23.7925 48.5575 23.7925 48.5542 23.7897Z" fill="white"/>
</g>
<defs>
<clipPath id="clip0">
<rect width="73" height="73" fill="white"/>
</clipPath>
</defs>
</svg>
