<svg width="97" height="97" viewBox="0 0 97 97" fill="none" xmlns="http://www.w3.org/2000/svg">
<path d="M79.3026 63.7876C76.9324 63.7876 74.6807 64.716 72.9821 66.3949C71.2834 68.0935 70.3354 70.3057 70.3354 72.6759C70.3354 75.046 71.2637 77.2582 72.9821 78.9569C74.7005 80.6357 76.9324 81.5641 79.3026 81.5641C84.1615 81.5641 88.1118 77.5742 88.1118 72.6759C88.1118 67.7775 84.1615 63.7876 79.3026 63.7876ZM79.3026 77.6138C76.5769 77.6138 74.2857 75.3621 74.2857 72.6759C74.2857 69.9896 76.5769 67.738 79.3026 67.738C81.9888 67.738 84.1615 69.9501 84.1615 72.6759C84.1615 75.4016 81.9888 77.6138 79.3026 77.6138ZM81.5938 34.18C81.2382 33.8443 80.7642 33.6665 80.2704 33.6665H70.1379C69.0515 33.6665 68.1627 34.5553 68.1627 35.6417V51.8379C68.1627 52.9243 69.0515 53.8131 70.1379 53.8131H86.2156C87.302 53.8131 88.1908 52.9243 88.1908 51.8379V40.9943C88.1908 40.4413 87.9538 39.908 87.539 39.5327L81.5938 34.18ZM84.2405 49.8628H72.113V37.5971H79.5001L84.2405 41.8634V49.8628ZM31.0692 63.7876C28.699 63.7876 26.4474 64.716 24.7487 66.3949C23.0501 68.0935 22.102 70.3057 22.102 72.6759C22.102 75.046 23.0303 77.2582 24.7487 78.9569C26.4671 80.6357 28.699 81.5641 31.0692 81.5641C35.9281 81.5641 39.8784 77.5742 39.8784 72.6759C39.8784 67.7775 35.9281 63.7876 31.0692 63.7876ZM31.0692 77.6138C28.3435 77.6138 26.0523 75.3621 26.0523 72.6759C26.0523 69.9896 28.3435 67.738 31.0692 67.738C33.7554 67.738 35.9281 69.9501 35.9281 72.6759C35.9281 75.4016 33.7554 77.6138 31.0692 77.6138ZM17.8949 66.2171H13.9249V60.9632C13.9249 59.8768 13.036 58.988 11.9497 58.988C10.8634 58.988 9.97455 59.8768 9.97455 60.9632V68.1922C9.97455 69.2786 10.8634 70.1674 11.9497 70.1674H17.8949C18.9813 70.1674 19.8701 69.2786 19.8701 68.1922C19.8701 67.1059 18.9813 66.2171 17.8949 66.2171ZM27.909 55.4525C27.909 54.3661 27.0202 53.4773 25.9338 53.4773H1.97516C0.888821 53.4773 0 54.3661 0 55.4525C0 56.5388 0.888821 57.4276 1.97516 57.4276H25.9338C27.0202 57.4276 27.909 56.5586 27.909 55.4525ZM5.98473 48.3222L29.9434 48.4604C31.0297 48.4604 31.9186 47.5914 31.9383 46.505C31.9581 45.3989 31.0692 44.5101 29.9829 44.5101L6.02423 44.3718C6.00448 44.3718 6.00448 44.3718 6.00448 44.3718C4.91814 44.3718 4.02932 45.2409 4.02932 46.3272C4.00957 47.4333 4.89839 48.3222 5.98473 48.3222ZM10.0141 39.3549H33.9727C35.0591 39.3549 35.9479 38.4661 35.9479 37.3798C35.9479 36.2934 35.0591 35.4046 33.9727 35.4046H10.0141C8.92771 35.4046 8.03889 36.2934 8.03889 37.3798C8.03889 38.4661 8.92771 39.3549 10.0141 39.3549ZM96.2692 36.6885L82.1271 24.9758C81.7715 24.6795 81.337 24.5215 80.863 24.5215H64.2321V17.4109C64.2321 16.3246 63.3433 15.4358 62.257 15.4358H11.9497C10.8634 15.4358 9.97455 16.3246 9.97455 17.4109V31.8691C9.97455 32.9554 10.8634 33.8443 11.9497 33.8443C13.036 33.8443 13.9249 32.9554 13.9249 31.8691V19.3861H60.3016V66.2171H44.1053C43.0189 66.2171 42.1301 67.1059 42.1301 68.1922C42.1301 69.2786 43.0189 70.1674 44.1053 70.1674H68.222C69.3083 70.1674 70.1971 69.2786 70.1971 68.1922C70.1971 67.1059 69.3083 66.2171 68.222 66.2171H64.2519V28.4718H80.1717L93.0497 39.1377L92.9114 66.1776H90.8573C89.7709 66.1776 88.8821 67.0664 88.8821 68.1527C88.8821 69.2391 89.7709 70.1279 90.8573 70.1279H94.8668C95.9532 70.1279 96.842 69.2588 96.842 68.1725L97 38.2291C96.9803 37.6366 96.7235 37.0638 96.2692 36.6885Z" fill="white"/>
</svg>
