<svg width="75" height="70" viewBox="0 0 75 70" fill="none" xmlns="http://www.w3.org/2000/svg">
<g clip-path="url(#clip0)">
<path d="M68.4082 16.2716H59.4667C60.8492 14.5706 61.6699 12.4574 61.6699 10.1697C61.6699 4.56214 56.7415 0 50.6836 0C47.0345 0 44.3438 1.2102 42.2155 3.80849C40.435 5.98237 39.133 9.01756 37.5 12.8525C35.867 9.01742 34.565 5.98237 32.7845 3.80849C30.6562 1.2102 27.9655 0 24.3164 0C18.2585 0 13.3301 4.56214 13.3301 10.1697C13.3301 12.4574 14.1508 14.5706 15.5333 16.2716H6.5918C2.95708 16.2716 0 19.0088 0 22.3734V26.4413C0 29.0929 1.83706 31.3537 4.39453 32.1933V63.3235C4.39453 66.688 7.35161 69.4253 10.9863 69.4253H64.0137C67.6484 69.4253 70.6055 66.688 70.6055 63.3235V32.1933C73.1629 31.3537 75 29.0929 75 26.4413V22.3734C75 19.0088 72.0429 16.2716 68.4082 16.2716ZM41.5333 14.4735C44.8994 6.56855 46.1791 4.06789 50.6836 4.06789C54.3183 4.06789 57.2754 6.80517 57.2754 10.1697C57.2754 13.5343 54.3183 16.2716 50.6836 16.2716H40.7647C41.0339 15.6458 41.2907 15.0433 41.5333 14.4735ZM24.3164 4.06789C28.8209 4.06789 30.1006 6.56855 33.4667 14.4735C33.7093 15.0433 33.9661 15.6458 34.2353 16.2716H24.3164C20.6817 16.2716 17.7246 13.5343 17.7246 10.1697C17.7246 6.80517 20.6817 4.06789 24.3164 4.06789ZM28.7109 65.3574H10.9863C9.77476 65.3574 8.78906 64.445 8.78906 63.3235V32.5431H28.7109V65.3574ZM28.7109 28.4752H6.5918C5.38022 28.4752 4.39453 27.5628 4.39453 26.4413V22.3734C4.39453 21.2519 5.38022 20.3394 6.5918 20.3394H28.7109V28.4752ZM41.8945 65.3574H33.1055V20.3394C33.5659 20.3394 39.3691 20.3394 41.8945 20.3394V65.3574ZM66.2109 63.3235C66.2109 64.445 65.2252 65.3574 64.0137 65.3574H46.2891V32.5431H66.2109V63.3235ZM70.6055 26.4413C70.6055 27.5628 69.6198 28.4752 68.4082 28.4752H46.2891V20.3394H68.4082C69.6198 20.3394 70.6055 21.2519 70.6055 22.3734V26.4413Z" fill="white"/>
</g>
<defs>
<clipPath id="clip0">
<rect width="75" height="69.4253" fill="white"/>
</clipPath>
</defs>
</svg>
