<svg width="79" height="79" viewBox="0 0 79 79" fill="none" xmlns="http://www.w3.org/2000/svg">
<g clip-path="url(#clip0)">
<path d="M78.848 43.1493C78.1387 36.0148 74.9514 29.2887 69.8728 24.2099C65.5326 19.87 60.2204 17.081 54.6308 15.8409V11.9205C56.9138 11.3525 58.6108 9.28596 58.6108 6.82967C58.6108 3.93687 56.2574 1.5835 53.3646 1.5835H42.255C39.3622 1.5835 37.0089 3.93687 37.0089 6.82967C37.0089 9.28581 38.7058 11.3523 40.9887 11.9205V15.8519C35.4162 17.0972 30.1216 19.8823 25.7938 24.2101C24.8467 25.1572 23.9733 26.1507 23.1739 27.1833C23.1352 27.1804 23.0965 27.1774 23.057 27.1774H12.0614C11.2094 27.1774 10.5184 27.8682 10.5184 28.7204C10.5184 29.5726 11.2094 30.2634 12.0614 30.2634H21.0744C19.943 32.1574 19.0308 34.1465 18.3365 36.1941H1.54331C0.691273 36.1941 0.000320435 36.8849 0.000320435 37.737C0.000320435 38.5892 0.691273 39.28 1.54331 39.28H17.4645C17.0198 41.2321 16.7646 43.2187 16.6987 45.2108H9.87548C9.02344 45.2108 8.33248 45.9016 8.33248 46.7538C8.33248 47.606 9.02344 48.2968 9.87548 48.2968H16.748C16.8782 50.2941 17.1993 52.2808 17.7114 54.2276H7.71529C6.86325 54.2276 6.17229 54.9184 6.17229 55.7706C6.17229 56.6228 6.86325 57.3136 7.71529 57.3136H18.6962C20.2098 61.3178 22.5754 65.0709 25.7938 68.2892C30.8773 73.3728 37.6103 76.5609 44.7522 77.2665C45.7715 77.3671 46.7916 77.417 47.8103 77.417C53.8313 77.417 59.7759 75.6745 64.8199 72.3897C65.534 71.9247 65.736 70.9688 65.2709 70.2547C64.8059 69.5406 63.85 69.3386 63.1359 69.8037C52.0947 76.9936 37.3077 75.439 27.9759 66.1071C17.0265 55.1577 17.0265 37.3419 27.9759 26.3923C38.9251 15.4431 56.741 15.4431 67.6905 26.3923C77.01 35.712 78.5731 50.4863 71.407 61.5221C70.9428 62.2368 71.146 63.1926 71.8606 63.6565C72.5756 64.1207 73.531 63.9175 73.995 63.2028C77.8238 57.3062 79.5473 50.1845 78.848 43.1493ZM40.0948 6.82982C40.0948 5.63863 41.0638 4.66964 42.255 4.66964H53.3646C54.5558 4.66964 55.5248 5.63863 55.5248 6.82982C55.5248 8.02102 54.5558 8.99001 53.3646 8.99001H53.0878H42.5317H42.255C41.0638 8.99001 40.0948 8.02086 40.0948 6.82982ZM44.0747 15.3214V12.076H51.5448V15.3158C49.0643 15.0208 46.5547 15.0227 44.0747 15.3214Z" fill="white"/>
<path d="M68.7818 65.6545C68.3744 65.6545 67.9779 65.8196 67.691 66.1066C67.4025 66.3936 67.2388 66.7917 67.2388 67.1975C67.2388 67.6033 67.4025 68.0014 67.691 68.2884C67.9779 68.5769 68.3746 68.7405 68.7818 68.7405C69.1876 68.7405 69.5841 68.5769 69.8727 68.2884C70.1596 68.0014 70.3247 67.6033 70.3247 67.1975C70.3247 66.7917 70.1598 66.3936 69.8727 66.1066C69.5841 65.8196 69.1874 65.6545 68.7818 65.6545Z" fill="white"/>
<path d="M47.8329 22.3132C34.6345 22.3132 23.8966 33.0509 23.8966 46.2495C23.8966 59.4481 34.6345 70.1858 47.8329 70.1858C61.0314 70.1858 71.7692 59.4481 71.7692 46.2495C71.7692 33.0509 61.0314 22.3132 47.8329 22.3132ZM47.8329 67.0998C36.3359 67.0998 26.9826 57.7464 26.9826 46.2495C26.9826 34.7527 36.3359 25.3992 47.8329 25.3992C59.3299 25.3992 68.6832 34.7527 68.6832 46.2495C68.6832 57.7464 59.3299 67.0998 47.8329 67.0998Z" fill="white"/>
<path d="M57.5932 34.3069L49.9508 41.9492C49.3117 41.6332 48.5928 41.4546 47.8329 41.4546C47.0728 41.4546 46.3541 41.6332 45.715 41.9492L42.2946 38.5288C41.6919 37.9263 40.7152 37.9263 40.1124 38.5288C39.5098 39.1314 39.5098 40.1084 40.1124 40.7109L43.5327 44.1313C43.2166 44.7704 43.0382 45.4893 43.0382 46.2492C43.0382 48.893 45.189 51.0439 47.8329 51.0439C50.4768 51.0439 52.6276 48.893 52.6276 46.2492C52.6276 45.4893 52.449 44.7704 52.133 44.1313L59.5511 36.7132L59.7753 36.489C60.3779 35.8864 60.3779 34.9094 59.7753 34.3069C59.1728 33.7043 58.1961 33.7043 57.5932 34.3069ZM47.8329 47.9581C46.8907 47.9581 46.1242 47.1915 46.1242 46.2493C46.1242 45.3072 46.8907 44.5406 47.8329 44.5406C48.775 44.5406 49.5416 45.3072 49.5416 46.2493C49.5416 47.1915 48.775 47.9581 47.8329 47.9581Z" fill="white"/>
<path d="M64.3305 44.7253H62.9009C62.0489 44.7253 61.3579 45.4161 61.3579 46.2683C61.3579 47.1205 62.0489 47.8113 62.9009 47.8113H64.3305C65.1825 47.8113 65.8734 47.1205 65.8734 46.2683C65.8734 45.4161 65.1825 44.7253 64.3305 44.7253Z" fill="white"/>
<path d="M32.7647 44.6875H31.3353C30.4833 44.6875 29.7923 45.3783 29.7923 46.2305C29.7923 47.0826 30.4833 47.7734 31.3353 47.7734H32.7647C33.6167 47.7734 34.3077 47.0826 34.3077 46.2305C34.3077 45.3783 33.6167 44.6875 32.7647 44.6875Z" fill="white"/>
<path d="M47.8515 32.7243C48.7036 32.7243 49.3945 32.0335 49.3945 31.1814V29.752C49.3945 28.8998 48.7036 28.209 47.8515 28.209C46.9995 28.209 46.3086 28.8998 46.3086 29.752V31.1814C46.3086 32.0335 46.9995 32.7243 47.8515 32.7243Z" fill="white"/>
<path d="M47.814 59.7747C46.962 59.7747 46.271 60.4654 46.271 61.3176V62.747C46.271 63.5992 46.962 64.29 47.814 64.29C48.666 64.29 49.357 63.5992 49.357 62.747V61.3176C49.357 60.4654 48.666 59.7747 47.814 59.7747Z" fill="white"/>
<path d="M1.54294 54.2271C1.13714 54.2271 0.739052 54.3921 0.452059 54.6791C0.165067 54.9661 -3.05176e-05 55.3642 -3.05176e-05 55.77C-3.05176e-05 56.1774 0.164913 56.5739 0.452059 56.8609C0.739206 57.1479 1.13714 57.313 1.54294 57.313C1.94874 57.313 2.34682 57.1479 2.63366 56.8609C2.92066 56.5739 3.08591 56.1758 3.08591 55.77C3.08591 55.3642 2.92081 54.9661 2.63366 54.6791C2.34682 54.3921 1.94874 54.2271 1.54294 54.2271Z" fill="white"/>
</g>
<defs>
<clipPath id="clip0">
<rect width="79" height="79" fill="white"/>
</clipPath>
</defs>
</svg>
