<svg width="71" height="71" viewBox="0 0 71 71" fill="none" xmlns="http://www.w3.org/2000/svg">
<g clip-path="url(#clip0)">
<path d="M66.563 0H4.43846C1.98773 0 0.000991821 1.98674 0.000991821 4.43747V54.7288C0.000991821 57.1795 1.98773 59.1662 4.43846 59.1662H39.9382V56.208H4.43846C3.62155 56.208 2.95926 55.5457 2.95926 54.7288V4.43747C2.95926 3.62056 3.62155 2.95826 4.43846 2.95826H66.563C67.3799 2.95826 68.0422 3.62056 68.0422 4.43747V54.7288C68.0422 55.5457 67.3799 56.208 66.563 56.208H63.6047V59.1662H66.563C69.0137 59.1662 71.0004 57.1795 71.0004 54.7288V4.43747C71.0004 1.98674 69.0137 0 66.563 0Z" fill="#07B2B2"/>
<path d="M62.1248 14.7914C58.8571 14.7914 56.2081 12.1423 56.2081 8.87471C56.2081 8.0578 55.5458 7.39551 54.7289 7.39551H16.2711C15.4542 7.39551 14.7919 8.0578 14.7919 8.87471C14.7919 12.1423 12.1428 14.7914 8.8752 14.7914C8.05829 14.7914 7.396 15.4537 7.396 16.2706V42.8954C7.396 43.7123 8.05829 44.3746 8.8752 44.3746C12.1428 44.3746 14.7919 47.0236 14.7919 50.2912C14.7919 51.1081 15.4542 51.7704 16.2711 51.7704H35.5001V48.8119H17.6274C16.9912 45.0902 14.076 42.1751 10.3544 41.5389V17.6269C14.076 16.9907 16.9912 14.0756 17.6274 10.3539H53.3727C54.0089 14.0756 56.9241 16.9907 60.6457 17.6269V29.583H63.604V16.2706C63.604 15.4535 62.9417 14.7914 62.1248 14.7914Z" fill="#07B2B2"/>
<path d="M51.7708 31.0625C44.4186 31.0625 38.4584 37.0227 38.4584 44.3749C38.4584 51.7271 44.4186 57.6873 51.7708 57.6873C59.1194 57.6783 65.0742 51.7235 65.0832 44.3749C65.0832 37.0227 59.123 31.0625 51.7708 31.0625ZM51.7708 54.729C46.0524 54.729 41.4167 50.0934 41.4167 44.3749C41.4167 38.6565 46.0523 34.0208 51.7708 34.0208C57.4865 34.0273 62.1184 38.6592 62.1249 44.3749C62.1248 50.0933 57.4892 54.729 51.7708 54.729Z" fill="#07B2B2"/>
<path d="M57.6873 53.25V66.4426L52.6952 62.4489C52.1548 62.0162 51.3867 62.0162 50.8463 62.4489L45.8541 66.4426V53.25H42.8959V69.5207C42.8957 69.8569 43.0101 70.1832 43.2203 70.4457C43.7309 71.0835 44.6618 71.1865 45.2994 70.6759L51.7708 65.4989L58.2421 70.6759C58.5045 70.8857 58.8307 71 59.1667 70.9999C59.9836 70.9999 60.6459 70.3376 60.6459 69.5207V53.25H57.6873Z" fill="#07B2B2"/>
<path d="M50.2916 14.791H20.7085C19.8916 14.791 19.2293 15.4533 19.2293 16.2702V22.1867C19.2293 23.0037 19.8916 23.6659 20.7085 23.6659H50.2916C51.1085 23.6659 51.7708 23.0037 51.7708 22.1867V16.2701C51.7708 15.4532 51.1085 14.791 50.2916 14.791ZM48.8124 20.7075H22.1876V17.7493H48.8124V20.7075Z" fill="#07B2B2"/>
<path d="M20.7084 28.1045H17.7501V31.0628H20.7084V28.1045Z" fill="#07B2B2"/>
<path d="M26.6251 28.1045H23.6668V31.0628H26.6251V28.1045Z" fill="#07B2B2"/>
<path d="M35.5 34.0205H17.7501V36.9788H35.5V34.0205Z" fill="#07B2B2"/>
<path d="M51.7708 36.9795C47.6863 36.9795 44.3751 40.2907 44.3751 44.3752C44.3751 48.4598 47.6863 51.771 51.7708 51.771C55.8534 51.7661 59.1617 48.4577 59.1665 44.3752C59.1665 40.2907 55.8553 36.9795 51.7708 36.9795ZM51.7708 48.8127C49.3201 48.8127 47.3333 46.826 47.3333 44.3752C47.3333 41.9245 49.3201 39.9378 51.7708 39.9378C54.2215 39.9378 56.2083 41.9245 56.2083 44.3752C56.2083 46.826 54.2215 48.8127 51.7708 48.8127Z" fill="#07B2B2"/>
<path d="M10.3544 48.8125H7.39615V51.7708H10.3544V48.8125Z" fill="#07B2B2"/>
<path d="M63.604 7.39551H60.6457V10.3538H63.604V7.39551Z" fill="#07B2B2"/>
<path d="M10.3544 7.39551H7.39615V10.3538H10.3544V7.39551Z" fill="#07B2B2"/>
</g>
<defs>
<clipPath id="clip0">
<rect width="71" height="71" fill="white"/>
</clipPath>
</defs>
</svg>
