<svg width="198" height="231" viewBox="0 0 198 231" fill="none" xmlns="http://www.w3.org/2000/svg">
<path d="M186.92 154.26C180.711 171.088 171.321 185.719 159.007 197.744C144.991 211.431 126.637 222.306 104.456 230.064C103.728 230.318 102.968 230.526 102.205 230.679C101.197 230.878 100.171 230.986 99.1543 231H98.9551C97.8713 231 96.7821 230.891 95.7018 230.679C94.9386 230.526 94.1896 230.318 93.4653 230.07C71.2574 222.324 52.8809 211.453 38.8505 197.767C26.5314 185.742 17.1432 171.119 10.9431 154.292C-0.330951 123.697 0.310559 89.9929 0.82694 62.9085L0.835752 62.4925C0.939733 60.2561 1.0067 57.9068 1.04371 55.3125C1.23229 42.5757 11.359 32.0384 24.0976 31.3282C50.6568 29.846 71.2028 21.1838 88.7579 4.07276L88.9113 3.93177C91.8263 1.25822 95.4991 -0.0529953 99.1543 0.00163907C102.679 0.0474614 106.19 1.35692 109.001 3.93177L109.151 4.07276C126.709 21.1838 147.255 29.846 173.814 31.3282C186.553 32.0384 196.68 42.5757 196.868 55.3125C196.905 57.9244 196.972 60.2702 197.076 62.4925L197.082 62.6688C197.596 89.8043 198.234 123.575 186.92 154.26Z" fill="#168C8C"/>
<path d="M186.919 154.261C180.71 171.088 171.32 185.719 159.006 197.744C144.99 211.431 126.637 222.307 104.455 230.065C103.727 230.318 102.968 230.526 102.205 230.68C101.196 230.879 100.171 230.986 99.1538 231V0.00195312C102.679 0.0477754 106.189 1.35723 109 3.93209L109.15 4.07308C126.709 21.1841 147.255 29.8463 173.814 31.3285C186.553 32.0387 196.679 42.576 196.868 55.3129C196.905 57.9247 196.972 60.2705 197.076 62.4928L197.081 62.6691C197.596 89.8046 198.234 123.576 186.919 154.261Z" fill="#168C8C"/>
<path d="M156.521 115.5C156.521 147.175 130.803 172.959 99.1538 173.072H98.9511C67.2087 173.072 41.3791 147.244 41.3791 115.5C41.3791 83.7575 67.2087 57.9297 98.9511 57.9297H99.1538C130.803 58.0425 156.521 83.8263 156.521 115.5Z" fill="white"/>
<path d="M125.082 107.209L99.1538 133.141L93.5512 138.744C92.2276 140.067 90.4917 140.728 88.7575 140.728C87.0215 140.728 85.2873 140.067 83.962 138.744L71.9161 126.692C69.2689 124.045 69.2689 119.757 71.9161 117.109C74.5596 114.461 78.8528 114.461 81.4999 117.109L88.7575 124.366L115.498 97.6253C118.145 94.9765 122.439 94.9765 125.082 97.6253C127.729 100.272 127.729 104.566 125.082 107.209Z" fill="#01B1B1"/>
<path d="M125.082 107.209L99.1538 133.141V113.968L115.498 97.6253C118.145 94.9765 122.439 94.9765 125.082 97.6253C127.729 100.272 127.729 104.566 125.082 107.209Z" fill="#01B1B1"/>
</svg>
