<svg width="72" height="72" viewBox="0 0 72 72" fill="none" xmlns="http://www.w3.org/2000/svg">
<path d="M67.1074 37.6148C63.7989 34.3211 59.974 37.4039 59.974 37.4039V20.0646C59.974 19.4823 59.5021 19.0099 58.9198 19.0099C58.337 19.0099 57.8651 19.4823 57.8651 20.0646V38.8876C57.8651 38.8876 52.8361 42.852 50.6745 43.821V12.601C50.6745 11.1497 51.855 9.96919 53.3063 9.96919H55.2333C56.6846 9.96919 57.8651 11.1497 57.8651 12.601V15.7469C57.8651 16.3298 58.337 16.8016 58.9198 16.8016C59.5021 16.8016 59.974 16.3298 59.974 15.7469V12.601C59.974 9.98677 57.8475 7.86035 55.2333 7.86035H53.3063C50.6921 7.86035 48.5651 9.98677 48.5651 12.601V44.6571C47.9362 44.8334 47.2907 44.9532 46.6348 45.0163V22.7815C46.6348 20.1541 44.4974 18.0167 41.8706 18.0167H39.9903C37.3634 18.0167 35.226 20.1541 35.226 22.7815V33.5273L33.2951 34.5523V30.9763C33.2951 28.6109 31.3709 26.6866 29.0061 26.6866H26.176C23.8106 26.6866 21.8869 28.6109 21.8869 30.9763V40.608L18.4432 42.4356L8.77297 45.1993C7.09041 45.6799 5.68525 46.7818 4.81732 48.3013C3.94885 49.8212 3.71319 51.5911 4.15375 53.2847L5.23536 57.4463C5.38147 58.0099 5.95716 58.3478 6.52131 58.2017C7.08491 58.055 7.4233 57.4793 7.27663 56.9151L6.19502 52.7541C5.56769 50.3403 6.95473 47.9123 9.35306 47.2273L18.1944 44.7005L24.8395 62.4358C25.2844 63.6234 25.2141 67.0116 21.699 68.2602L15.0176 69.778C12.6891 70.3065 10.3946 68.9106 9.79361 66.5991L8.43734 61.38C8.29067 60.8164 7.71498 60.478 7.15138 60.6242C6.58723 60.7708 6.2494 61.3465 6.39552 61.9107L7.75234 67.1303C8.51479 70.0626 11.1197 72 14.0195 72C16.1503 72 22.1665 70.3169 22.1665 70.3169C23.9974 69.9016 25.5585 68.7151 26.449 67.0627C27.184 65.6993 27.402 64.1305 27.0867 62.6358L50.2021 56.9767C52.1137 56.5081 53.9287 55.6001 55.4492 54.3504L66.6982 45.1075C70.1276 42.0659 68.116 38.6184 67.1074 37.6148ZM39.9903 20.1261H41.8706C43.3345 20.1261 44.5254 21.3176 44.5254 22.7815V45.0691L37.8704 45.0663C37.259 45.0608 37.682 44.6571 37.7155 44.6296L39.6321 43.0772C41.4201 41.6287 42.588 39.6149 43.1027 37.0907C43.4295 35.4895 42.8187 33.8866 41.5097 32.9077C40.2869 31.9936 38.7142 31.8178 37.3354 32.4221V22.7815C37.3354 21.3176 38.5263 20.1261 39.9903 20.1261ZM23.9963 30.9763C23.9963 29.7744 24.9741 28.796 26.176 28.796H29.0061C30.208 28.796 31.1863 29.7744 31.1863 30.9763V35.6719L23.9957 39.4885V30.9763H23.9963ZM65.3595 43.4782L54.11 52.7211C52.8322 53.7714 51.3073 54.5344 49.7006 54.9277L26.4149 60.6291L20.1527 43.9171L38.033 34.426C38.7598 34.0398 39.5876 34.1041 40.2462 34.5968C40.9049 35.0896 41.2004 35.8641 41.0362 36.6694C40.6214 38.7014 39.7024 40.3059 38.3044 41.4381L36.3878 42.991C35.6023 43.6271 35.3128 44.6538 35.6501 45.6069C35.9874 46.5594 36.8586 47.1757 37.8693 47.1757L45.5538 47.179H45.5593C48.2949 47.179 50.9239 46.3473 53.1618 44.7735L61.7499 38.7343C62.9524 37.8884 64.5712 38.0378 65.5984 39.0892C66.1901 39.6934 67.348 41.4892 65.3595 43.4782Z" fill="white"/>
<path d="M20.8003 63.1114C20.8003 60.8202 18.9365 58.9558 16.6453 58.9558C14.3541 58.9558 12.4902 60.8202 12.4902 63.1114C12.4902 65.4021 14.3541 67.2665 16.6453 67.2665C18.9365 67.2665 20.8003 65.4021 20.8003 63.1114ZM14.5996 63.1114C14.5996 61.9831 15.517 61.0652 16.6453 61.0652C17.773 61.0652 18.6909 61.9831 18.6909 63.1114C18.6909 64.2392 17.7736 65.1571 16.6453 65.1571C15.517 65.1571 14.5996 64.2392 14.5996 63.1114Z" fill="white"/>
<path d="M9.06079 33.1146L24.3923 17.665L27.8409 19.4487C29.0764 20.0875 30.5798 19.8689 31.5818 18.9043L39.9271 10.871C39.9271 10.871 39.6974 14.997 43.1719 14.997C44.9605 14.997 46.4162 13.5413 46.4162 11.7521V3.24428C46.4162 3.23439 46.4156 3.22396 46.4156 3.21352C46.4041 0.993719 44.7809 0 43.1719 0H34.7382C32.9491 0 31.4939 1.4557 31.4939 3.24428C31.4939 6.81046 35.1233 6.48856 35.1233 6.48856L28.7566 12.6168L25.258 10.8073C23.9929 10.1525 22.4686 10.3926 21.4644 11.4033L4.45529 28.5437C3.19515 29.8138 3.20285 31.8721 4.47287 33.1322C5.08481 33.7392 7.17443 35.001 9.06079 33.1146ZM5.95219 30.0297L22.9613 12.8892C23.1811 12.6684 23.5337 12.2817 24.289 12.681L28.4589 14.8377C28.8605 15.0453 29.3494 14.9745 29.6751 14.6608L38.4708 6.19413C38.7806 5.89585 38.8784 5.43881 38.7175 5.04001C38.5565 4.64065 38.1698 4.37972 37.7391 4.37972H34.7382C34.1125 4.37972 33.6033 3.87051 33.6033 3.24428C33.6033 2.61861 34.1125 2.10939 34.7382 2.10939H43.1719C43.4823 2.10939 44.3062 2.10939 44.3062 3.23769C44.3062 3.24703 44.3068 3.25637 44.3068 3.26625V11.7521C44.3068 12.3778 43.7976 12.887 43.1719 12.887C42.5457 12.887 42.0365 12.3778 42.0365 11.7521V8.39195C42.0365 7.96898 41.7838 7.58665 41.3948 7.42131C41.0059 7.25541 40.5555 7.33891 40.2506 7.63225L30.119 17.3849C29.7685 17.7221 29.2422 17.7991 28.8105 17.5755L24.6741 15.4359C24.2649 15.2244 23.7655 15.3029 23.4409 15.6298L7.56389 31.6287C6.87175 32.3209 6.17247 31.8474 5.95823 31.6348C5.51438 31.1937 5.51164 30.4735 5.95219 30.0297Z" fill="white"/>
</svg>
