<svg width="73" height="73" viewBox="0 0 73 73" fill="none" xmlns="http://www.w3.org/2000/svg">
<g clip-path="url(#clip0)">
<path d="M72.8595 39.8721C72.204 33.2794 69.2587 27.0642 64.5658 22.3712C60.5553 18.3608 55.6466 15.7837 50.4815 14.6378V11.0151C52.5911 10.4902 54.1592 8.58066 54.1592 6.31093C54.1592 3.63783 51.9846 1.4632 49.3115 1.4632H39.0457C36.3726 1.4632 34.1979 3.63783 34.1979 6.31093C34.1979 8.58052 35.766 10.4901 37.8755 11.0151V14.6479C32.7262 15.7987 27.8337 18.3722 23.8346 22.3713C22.9595 23.2465 22.1525 24.1646 21.4138 25.1187C21.378 25.116 21.3422 25.1133 21.3057 25.1133H11.1453C10.3579 25.1133 9.71946 25.7516 9.71946 26.5391C9.71946 27.3266 10.3579 27.9649 11.1453 27.9649H19.4737C18.4283 29.7151 17.5853 31.5531 16.9437 33.4451H1.42599C0.638658 33.4451 0.000183105 34.0834 0.000183105 34.8709C0.000183105 35.6584 0.638658 36.2967 1.42599 36.2967H16.138C15.7271 38.1005 15.4913 39.9362 15.4304 41.7771H9.12533C8.338 41.7771 7.69952 42.4154 7.69952 43.2029C7.69952 43.9903 8.338 44.6287 9.12533 44.6287H15.4759C15.5962 46.4742 15.8929 48.3101 16.3661 50.109H7.1292C6.34187 50.109 5.7034 50.7474 5.7034 51.5348C5.7034 52.3223 6.34187 52.9607 7.1292 52.9607H17.2761C18.6748 56.6608 20.8607 60.1287 23.8346 63.1027C28.5321 67.8001 34.7537 70.7461 41.3532 71.3981C42.2951 71.4911 43.2377 71.5372 44.179 71.5372C49.7428 71.5372 55.2358 69.927 59.8968 66.8917C60.5566 66.462 60.7433 65.5787 60.3135 64.9189C59.8838 64.259 59.0005 64.0724 58.3406 64.5021C48.138 71.1459 34.4741 69.7094 25.851 61.0863C15.7332 50.9685 15.7332 34.5058 25.851 24.3878C35.9686 14.2702 52.4314 14.2702 62.5493 24.3878C71.161 32.9997 72.6054 46.6519 65.9835 56.8495C65.5546 57.51 65.7424 58.3931 66.4027 58.8218C67.0634 59.2507 67.9463 59.0629 68.375 58.4025C71.913 52.9538 73.5056 46.373 72.8595 39.8721ZM37.0495 6.31107C37.0495 5.21035 37.945 4.31495 39.0457 4.31495H49.3115C50.4122 4.31495 51.3076 5.21035 51.3076 6.31107C51.3076 7.41179 50.4122 8.30719 49.3115 8.30719H49.0557H39.3013H39.0457C37.945 8.30719 37.0495 7.41165 37.0495 6.31107ZM40.7271 14.1577V11.1588H47.6299V14.1526C45.3377 13.8799 43.0188 13.8817 40.7271 14.1577Z" fill="#FF2060"/>
<path d="M63.558 60.668C63.1816 60.668 62.8152 60.8206 62.5502 61.0858C62.2835 61.3509 62.1323 61.7188 62.1323 62.0938C62.1323 62.4688 62.2835 62.8366 62.5502 63.1018C62.8152 63.3684 63.1818 63.5196 63.558 63.5196C63.933 63.5196 64.2994 63.3684 64.5661 63.1018C64.8313 62.8366 64.9838 62.4688 64.9838 62.0938C64.9838 61.7188 64.8314 61.3509 64.5661 61.0858C64.2994 60.8206 63.9329 60.668 63.558 60.668Z" fill="#FF2060"/>
<path d="M44.2001 20.6185C32.004 20.6185 22.0817 30.5406 22.0817 42.7368C22.0817 54.933 32.004 64.8552 44.2001 64.8552C56.3961 64.8552 66.3184 54.933 66.3184 42.7368C66.3184 30.5406 56.3961 20.6185 44.2001 20.6185ZM44.2001 62.0036C33.5763 62.0036 24.9333 53.3605 24.9333 42.7368C24.9333 32.1132 33.5763 23.4701 44.2001 23.4701C54.8239 23.4701 63.4668 32.1132 63.4668 42.7368C63.4668 53.3605 54.8239 62.0036 44.2001 62.0036Z" fill="#FF2060"/>
<path d="M53.2192 31.7014L46.1572 38.7632C45.5667 38.4712 44.9024 38.3063 44.2002 38.3063C43.4978 38.3063 42.8337 38.4712 42.2431 38.7632L39.0825 35.6026C38.5256 35.0459 37.6231 35.0459 37.066 35.6026C36.5092 36.1594 36.5092 37.0622 37.066 37.619L40.2266 40.7796C39.9344 41.3702 39.7696 42.0345 39.7696 42.7367C39.7696 45.1796 41.7571 47.1672 44.2002 47.1672C46.6433 47.1672 48.6307 45.1796 48.6307 42.7367C48.6307 42.0345 48.4657 41.3702 48.1737 40.7796L55.0284 33.9249L55.2356 33.7177C55.7924 33.161 55.7924 32.2581 55.2356 31.7014C54.6788 31.1446 53.7763 31.1446 53.2192 31.7014ZM44.2002 44.3157C43.3296 44.3157 42.6212 43.6074 42.6212 42.7368C42.6212 41.8662 43.3296 41.1579 44.2002 41.1579C45.0708 41.1579 45.7791 41.8662 45.7791 42.7368C45.7791 43.6074 45.0708 44.3157 44.2002 44.3157Z" fill="#FF2060"/>
<path d="M59.4446 41.3284H58.1236C57.3363 41.3284 56.6978 41.9668 56.6978 42.7542C56.6978 43.5417 57.3363 44.18 58.1236 44.18H59.4446C60.2319 44.18 60.8704 43.5417 60.8704 42.7542C60.8704 41.9668 60.2319 41.3284 59.4446 41.3284Z" fill="#FF2060"/>
<path d="M30.2764 41.2936H28.9556C28.1683 41.2936 27.5298 41.9319 27.5298 42.7194C27.5298 43.5068 28.1683 44.1451 28.9556 44.1451H30.2764C31.0638 44.1451 31.7022 43.5068 31.7022 42.7194C31.7022 41.9319 31.0638 41.2936 30.2764 41.2936Z" fill="#FF2060"/>
<path d="M44.2174 30.2388C45.0048 30.2388 45.6432 29.6005 45.6432 28.8131V27.4922C45.6432 26.7048 45.0048 26.0664 44.2174 26.0664C43.4301 26.0664 42.7917 26.7048 42.7917 27.4922V28.8131C42.7917 29.6005 43.4301 30.2388 44.2174 30.2388Z" fill="#FF2060"/>
<path d="M44.1827 55.2347C43.3954 55.2347 42.7569 55.873 42.7569 56.6605V57.9813C42.7569 58.7688 43.3954 59.4071 44.1827 59.4071C44.97 59.4071 45.6085 58.7688 45.6085 57.9813V56.6605C45.6085 55.873 44.97 55.2347 44.1827 55.2347Z" fill="#FF2060"/>
<path d="M1.42578 50.1085C1.0508 50.1085 0.682949 50.261 0.417754 50.5262C0.152559 50.7914 0 51.1593 0 51.5342C0 51.9106 0.152416 52.2771 0.417754 52.5423C0.683092 52.8075 1.0508 52.96 1.42578 52.96C1.80076 52.96 2.16861 52.8075 2.43367 52.5423C2.69886 52.2771 2.85156 51.9092 2.85156 51.5342C2.85156 51.1593 2.699 50.7914 2.43367 50.5262C2.16861 50.261 1.80076 50.1085 1.42578 50.1085Z" fill="#FF2060"/>
</g>
<defs>
<clipPath id="clip0">
<rect width="73" height="73" fill="white"/>
</clipPath>
</defs>
</svg>
