<svg width="75" height="75" viewBox="0 0 75 75" fill="none" xmlns="http://www.w3.org/2000/svg">
<g clip-path="url(#clip0)">
<path d="M62.222 36.9561V34.6804C62.222 32.1156 61.8257 29.5959 61.0455 27.1779L69.8157 20.1152C70.7467 19.3654 71.0914 18.1525 70.694 17.0251C70.2967 15.8977 69.2673 15.1693 68.0719 15.1693H64.2958L70.1103 4.91746C70.6951 3.88659 70.6879 2.65957 70.0914 1.63539C69.4948 0.611508 68.4311 0 67.2458 0H56.5013C55.2504 0 54.0883 0.726741 53.5406 1.8516L48.3006 12.6158C46.4329 11.7238 44.4616 11.0741 42.4249 10.6828C40.9079 10.3906 39.3465 10.2424 37.784 10.2424C31.9531 10.2424 26.3073 12.3299 21.8866 16.1206C21.4195 16.521 21.3656 17.2241 21.766 17.691C21.9862 17.9479 22.298 18.0797 22.612 18.0797C22.8686 18.0797 23.1264 17.9915 23.3363 17.8114C27.3536 14.3667 32.4844 12.4697 37.7838 12.4697C39.2052 12.4697 40.625 12.6044 42.0039 12.87C43.8484 13.2245 45.6328 13.8139 47.3246 14.6204L45.4638 18.4429C45.0481 19.2967 45.1005 20.287 45.604 21.092C46.1075 21.8971 46.9749 22.3778 47.9245 22.3778H51.4909L48.2363 31.0149C47.7998 32.1737 48.1802 33.44 49.1832 34.1662C49.6649 34.515 50.2201 34.6884 50.7741 34.6884C51.3735 34.6884 51.9713 34.4853 52.4725 34.0818L59.1735 28.6853C59.7179 30.6287 59.9941 32.6386 59.9941 34.6806V37.0008C52.3642 36.9006 41.8519 35.8274 33.0089 31.5253C27.4801 28.8356 25.2006 26.1172 25.1807 26.093C24.8832 25.7273 24.3877 25.5883 23.9437 25.746C23.4994 25.9037 23.2027 26.3241 23.2027 26.7954C23.2027 28.7418 22.241 30.8898 20.4949 32.8435C19.1391 34.3606 17.4003 35.6384 15.5744 36.4854V34.6804C15.5744 29.7677 17.1455 25.1122 20.118 21.2176C20.4911 20.7286 20.3973 20.0296 19.9083 19.6566C19.4194 19.2834 18.7205 19.3774 18.3473 19.8663C15.0761 24.1526 13.347 29.2753 13.347 34.6806V36.9628C13.1603 36.9564 12.9964 36.952 12.8997 36.952C8.07121 36.952 4.14288 40.8796 4.14288 45.7073C4.14288 50.5358 8.07121 54.4641 12.8997 54.4641C13.1517 54.4641 13.4033 54.4508 13.6539 54.4293C15.5125 66.0732 25.6244 75 37.7835 75C39.3462 75 40.9078 74.8517 42.424 74.5596C48.9034 73.314 54.6894 69.4096 58.2986 63.8476C58.6335 63.3316 58.4866 62.642 57.9706 62.3071C57.4547 61.9723 56.7649 62.1193 56.4301 62.6352C53.149 67.6915 47.8909 71.2404 42.0031 72.3724C40.6247 72.638 39.2051 72.7727 37.7835 72.7727C25.5375 72.7727 15.5746 62.8098 15.5746 50.5637V38.9056C18.0332 37.9555 20.3467 36.3525 22.1558 34.328C23.6226 32.6867 24.6317 30.8947 25.1112 29.117C26.4435 30.2558 28.631 31.8539 31.8657 33.4457C37.0758 36.0095 46.1464 39.0553 59.9943 39.2281V50.5637C59.9943 53.4882 59.435 56.3299 58.332 59.0098C58.0978 59.5787 58.3691 60.2294 58.938 60.4635C59.0767 60.5206 59.2203 60.5476 59.3615 60.5476C59.7995 60.5476 60.2149 60.2876 60.3918 59.8575C61.109 58.1148 61.6157 56.3098 61.9118 54.4616C61.9596 54.4624 62.0073 54.4643 62.0551 54.4643C66.8829 54.4643 70.8105 50.536 70.8105 45.7075C70.8108 40.9354 66.9729 37.0457 62.222 36.9561ZM51.0757 32.3468C50.8257 32.5482 50.601 32.4426 50.4895 32.362C50.378 32.2812 50.2076 32.1007 50.3208 31.8005L54.1429 21.657C54.2718 21.3149 54.2246 20.9313 54.0167 20.6306C53.8087 20.33 53.4664 20.1505 53.1008 20.1505H47.9245C47.6789 20.1505 47.5484 20.0005 47.4925 19.9111C47.4367 19.8217 47.359 19.6389 47.4665 19.4181L55.5434 2.82663C55.7206 2.46266 56.0967 2.22744 56.5015 2.22744H67.2459C67.7988 2.22744 68.074 2.5975 68.1666 2.75669C68.2593 2.91587 68.4455 3.3379 68.1727 3.81858L61.4149 15.7336C61.2194 16.0784 61.2219 16.5011 61.4213 16.8436C61.6209 17.1862 61.9874 17.3968 62.3837 17.3968H68.0719C68.425 17.3968 68.5542 17.6549 68.5933 17.7658C68.6325 17.8767 68.6936 18.1587 68.4186 18.3803L51.0757 32.3468ZM12.9002 52.2367C9.29986 52.2367 6.37077 49.3076 6.37077 45.7073C6.37077 42.1078 9.29986 39.1794 12.9002 39.1794C12.9805 39.1794 13.1465 39.1843 13.3474 39.1916V42.9264C11.8253 42.8936 9.91865 43.4178 9.01638 45.4929C8.77107 46.0569 9.0296 46.7131 9.59374 46.9583C9.73837 47.0212 9.88895 47.0509 10.0371 47.0509C10.4672 47.0509 10.8767 46.8004 11.0591 46.3809C11.5367 45.2823 12.5948 45.1144 13.3474 45.15V50.5636C13.3474 51.1187 13.3678 51.6692 13.4044 52.2152C13.2368 52.2281 13.0687 52.2367 12.9002 52.2367ZM62.165 52.2339C62.2021 51.6801 62.222 51.1233 62.222 50.5636V45.15C62.9745 45.1145 64.0314 45.2831 64.5089 46.3809C64.6912 46.8004 65.1008 47.0509 65.5308 47.0509C65.679 47.0509 65.8297 47.0211 65.9742 46.9583C66.5384 46.7131 66.7969 46.0569 66.5516 45.4929C65.6498 43.4185 63.744 42.8941 62.222 42.9264V39.1836C65.7447 39.2725 68.5833 42.1636 68.5833 45.7073C68.5833 49.2708 65.7139 52.1749 62.165 52.2339Z" fill="#FF2060"/>
<path d="M32.1509 60.5835C35.257 57.4774 40.3107 57.4776 43.4166 60.5835C43.634 60.8009 43.9191 60.9098 44.2041 60.9098C44.4891 60.9098 44.7742 60.8011 44.9916 60.5835C45.4265 60.1486 45.4265 59.4434 44.9916 59.0086C41.0171 55.0341 34.5503 55.0342 30.5758 59.0086C30.1409 59.4435 30.1409 60.1487 30.5758 60.5835C31.0108 61.0185 31.716 61.0185 32.1509 60.5835Z" fill="#FF2060"/>
<path d="M24.6407 50.3801C24.788 50.859 25.2288 51.1665 25.7048 51.1665C25.8132 51.1665 25.9237 51.1506 26.0327 51.117L31.9194 49.3057C32.2927 49.1907 32.5786 48.8887 32.6727 48.5096C32.7669 48.1305 32.6555 47.7298 32.3793 47.4536L28.4171 43.4915C27.9822 43.0565 27.277 43.0565 26.8422 43.4915C26.4072 43.9264 26.4072 44.6316 26.8422 45.0664L29.4964 47.7206L25.3777 48.9879C24.7898 49.1689 24.4599 49.7922 24.6407 50.3801Z" fill="#FF2060"/>
<path d="M49.7049 51.1665C50.181 51.1665 50.6218 50.8588 50.7691 50.3801C50.9499 49.7922 50.62 49.1689 50.0321 48.988L45.9135 47.7208L48.5678 45.0666C49.0027 44.6316 49.0027 43.9264 48.5678 43.4916C48.1328 43.0565 47.4276 43.0567 46.9928 43.4916L43.0306 47.4538C42.7544 47.73 42.6431 48.1306 42.7372 48.5097C42.8313 48.8889 43.1172 49.1909 43.4905 49.3058L49.3772 51.1172C49.4862 51.1506 49.5965 51.1665 49.7049 51.1665Z" fill="#FF2060"/>
<path d="M10.9697 13.5591L6.66273 14.5529C6.30634 14.6352 6.01306 14.8872 5.87807 15.2271C5.74309 15.567 5.78363 15.9516 5.98647 16.2559L10.5147 23.0483C10.7293 23.3702 11.0824 23.5444 11.4424 23.5444C11.6547 23.5444 11.8693 23.4838 12.0591 23.3571C12.571 23.016 12.7092 22.3245 12.368 21.8128L8.73351 16.3612L13.0501 15.3651C13.4076 15.2825 13.7016 15.0293 13.836 14.6879C13.9704 14.3465 13.9281 13.9609 13.7228 13.6568L7.45718 4.37382C7.11312 3.86388 6.42068 3.72934 5.91104 4.0737C5.4011 4.41777 5.26686 5.11006 5.61093 5.61985L10.9697 13.5591Z" fill="#FF2060"/>
<path d="M19.4129 13.7214C19.5942 14.143 20.005 14.3954 20.4365 14.3954C20.5833 14.3954 20.7326 14.3661 20.876 14.3045C21.4411 14.0614 21.7021 13.4064 21.459 12.8412L19.663 8.66596L22.6048 8.53336C22.9713 8.51687 23.3063 8.32086 23.5001 8.00946C23.694 7.69792 23.7221 7.31093 23.5752 6.97489L21.2762 1.71336C21.0299 1.14967 20.3729 0.892179 19.8098 1.13868C19.2461 1.38504 18.9889 2.04154 19.2351 2.60508L20.8851 6.38105L17.9532 6.51321C17.5877 6.52969 17.2538 6.72437 17.0595 7.03443C16.8653 7.34434 16.8357 7.72999 16.9802 8.06589L19.4129 13.7214Z" fill="#FF2060"/>
</g>
<defs>
<clipPath id="clip0">
<rect width="75" height="75" fill="white"/>
</clipPath>
</defs>
</svg>
