<svg width="69" height="69" viewBox="0 0 69 69" fill="none" xmlns="http://www.w3.org/2000/svg">
<path d="M5.22728 38.7863H37.5319C38.1592 38.7863 38.5773 38.3681 38.5773 37.7409V27.2864C38.5773 26.6591 38.0545 26.241 37.5319 26.241H5.22728C4.59996 26.241 4.18188 26.6592 4.18188 27.2864V37.7409C4.18188 38.3681 4.59996 38.7863 5.22728 38.7863ZM6.27268 28.3318H36.4863V36.6954H6.27268V28.3318Z" fill="#FF2060"/>
<path d="M10.2454 40.6682H5.8546C5.22728 40.6682 4.8092 41.0864 4.8092 41.7135V46C4.8092 46.6273 5.22742 47.0454 5.8546 47.0454H10.141C10.7683 47.0454 11.1864 46.6272 11.1864 46V41.609C11.291 41.0864 10.7682 40.6682 10.2454 40.6682ZM6.9 44.9546V42.6545H9.09549V44.9546H6.9Z" fill="#FF2060"/>
<path d="M10.2454 49.45H5.8546C5.22728 49.45 4.8092 49.8682 4.8092 50.4954V54.8864C4.8092 55.5137 5.22742 55.9318 5.8546 55.9318H10.141C10.7683 55.9318 11.1864 55.5135 11.1864 54.8864V50.4954C11.291 49.8682 10.7682 49.45 10.2454 49.45ZM6.9 53.841V51.5409H9.09549V53.841H6.9Z" fill="#FF2060"/>
<path d="M10.2454 58.2318H5.8546C5.22728 58.2318 4.8092 58.65 4.8092 59.2772V63.6682C4.8092 64.2955 5.22742 64.7136 5.8546 64.7136H10.141C10.7683 64.7136 11.1864 64.2954 11.1864 63.6682V59.2772C11.291 58.7546 10.7682 58.2318 10.2454 58.2318ZM6.9 62.6228V60.3227H9.09549V62.6228H6.9Z" fill="#FF2060"/>
<path d="M19.1318 40.6682H14.7408C14.1135 40.6682 13.6954 41.0864 13.6954 41.7135V46C13.6954 46.6273 14.1136 47.0454 14.7408 47.0454H19.1318C19.7591 47.0454 20.1772 46.6272 20.1772 46V41.609C20.1773 41.0864 19.6546 40.6682 19.1318 40.6682ZM18.0864 44.9546H15.7864V42.6545H18.0864V44.9546Z" fill="#FF2060"/>
<path d="M19.1318 49.45H14.7408C14.1135 49.45 13.6954 49.8682 13.6954 50.4954V54.8864C13.6954 55.5137 14.1136 55.9318 14.7408 55.9318H19.1318C19.7591 55.9318 20.1772 55.5135 20.1772 54.8864V50.4954C20.1773 49.8682 19.6546 49.45 19.1318 49.45ZM18.0864 53.841H15.7864V51.5409H18.0864V53.841Z" fill="#FF2060"/>
<path d="M19.1318 58.2318H14.7408C14.1135 58.2318 13.6954 58.65 13.6954 59.2772V63.6682C13.6954 64.2955 14.1136 64.7136 14.7408 64.7136H19.1318C19.7591 64.7136 20.1772 64.2954 20.1772 63.6682V59.2772C20.1773 58.7546 19.6546 58.2318 19.1318 58.2318ZM18.0864 62.6228H15.7864V60.3227H18.0864V62.6228Z" fill="#FF2060"/>
<path d="M28.0182 40.6682H23.7318C23.1045 40.6682 22.6864 41.0864 22.6864 41.7135V46C22.6864 46.6273 23.1046 47.0454 23.7318 47.0454H28.0182C28.6455 47.0454 29.0636 46.6272 29.0636 46V41.609C29.0638 41.0864 28.541 40.6682 28.0182 40.6682ZM26.9728 44.9546H24.7773V42.6545H26.9728V44.9546Z" fill="#FF2060"/>
<path d="M28.0182 49.45H23.7318C23.1045 49.45 22.6864 49.8682 22.6864 50.4954V54.8864C22.6864 55.5137 23.1046 55.9318 23.7318 55.9318H28.0182C28.6455 55.9318 29.0636 55.5135 29.0636 54.8864V50.4954C29.0638 49.8682 28.541 49.45 28.0182 49.45ZM26.9728 53.841H24.7773V51.5409H26.9728V53.841Z" fill="#FF2060"/>
<path d="M28.0182 58.2318H23.7318C23.1045 58.2318 22.6864 58.65 22.6864 59.2772V63.6682C22.6864 64.2955 23.1046 64.7136 23.7318 64.7136H28.0182C28.6455 64.7136 29.0636 64.2954 29.0636 63.6682V59.2772C29.0638 58.7546 28.541 58.2318 28.0182 58.2318ZM26.9728 62.6228H24.7773V60.3227H26.9728V62.6228Z" fill="#FF2060"/>
<path d="M36.8 40.6682H32.5135C31.8862 40.6682 31.4681 41.0864 31.4681 41.7135V46C31.4681 46.6273 31.8864 47.0454 32.5135 47.0454H36.8C37.4273 47.0454 37.8454 46.6272 37.8454 46V41.609C37.8455 41.0864 37.4273 40.6682 36.8 40.6682ZM35.7546 44.9546H33.5591V42.6545H35.7546V44.9546Z" fill="#FF2060"/>
<path d="M36.8 49.45H32.5135C31.8862 49.45 31.4681 49.8682 31.4681 50.4954V63.6682C31.4681 64.2955 31.8864 64.7136 32.5135 64.7136H36.8C37.4273 64.7136 37.8454 64.2954 37.8454 63.6682V50.4954C37.8455 49.8682 37.4273 49.45 36.8 49.45ZM35.7546 62.6228H33.5591V51.5409H35.7546V62.6228Z" fill="#FF2060"/>
<path d="M68.6863 18.1909L50.0773 0.313661C49.8682 0.104554 49.5545 0 49.3454 0H13.3818C12.7544 0 12.3364 0.418215 12.3364 1.0454V21.7454H1.0454C0.418076 21.7454 0 22.1636 0 22.7908V67.9545C0 68.5818 0.418215 68.9999 1.0454 68.9999C1.67258 68.9999 3.76352 68.9999 67.9545 68.9999C68.5818 68.9999 68.9999 68.5816 68.9999 67.9545C68.9999 63.5635 68.9999 77.4682 68.9999 18.9227C69 18.7136 68.8954 18.2955 68.6863 18.1909ZM50.391 3.44999L65.3409 17.7727H50.391V3.44999ZM40.6682 66.9091H2.09093V23.8364H40.6682V66.9091ZM66.9091 66.9091H42.7591V22.7909C42.7591 22.1636 42.3409 21.7455 41.7137 21.7455H14.4273V2.09093H48.3V18.9228C48.3 19.5501 48.7183 19.9682 49.3454 19.9682H66.9091C66.9091 55.8274 66.9091 66.3864 66.9091 66.9091Z" fill="#FF2060"/>
<path d="M41.0864 6.58633H20.0727C19.4454 6.58633 19.0273 7.00455 19.0273 7.63173C19.0273 8.25892 19.4456 8.67713 20.0727 8.67713H41.0864C41.7137 8.67713 42.1318 8.25892 42.1318 7.63173C42.1318 7.00455 41.7137 6.58633 41.0864 6.58633Z" fill="#FF2060"/>
<path d="M41.0864 12.7546H20.0727C19.4454 12.7546 19.0273 13.1728 19.0273 13.8C19.0273 14.4272 19.4456 14.8454 20.0727 14.8454H41.0864C41.7137 14.8454 42.1318 14.4272 42.1318 13.8C42.1318 13.1728 41.7137 12.7546 41.0864 12.7546Z" fill="#FF2060"/>
<path d="M54.9909 44.1182C49.45 44.1182 44.9546 48.6136 44.9546 54.2591C44.9546 59.8 49.45 64.3999 54.9909 64.3999C60.5318 64.3999 65.0272 59.9045 65.0272 54.2591C65.0272 48.6137 60.5318 44.1182 54.9909 44.1182ZM54.9909 62.2046C50.5999 62.2046 47.0454 58.65 47.0454 54.1545C47.0454 49.659 50.5999 46.1046 54.9909 46.1046C59.3819 46.1046 62.9364 49.6591 62.9364 54.1545C62.9364 58.6499 59.3819 62.2046 54.9909 62.2046Z" fill="#FF2060"/>
<path d="M58.1273 54.3636C57.6045 53.8408 56.7682 53.4228 55.6181 53.2137V50.391C56.35 50.4955 57.0817 50.8092 57.709 51.2273L58.6499 49.8682C57.709 49.2409 56.6635 48.8228 55.6181 48.7183V47.9864H54.6773V48.7183C53.7364 48.7183 52.9 49.0319 52.3772 49.6591C51.7499 50.1819 51.4364 50.9136 51.4364 51.75C51.4364 52.5863 51.6455 53.2137 52.1683 53.7364C52.691 54.1546 53.5273 54.5728 54.5729 54.7818V57.709C53.7364 57.6045 52.7956 57.1863 52.0637 56.4545L51.0183 57.709C52.0637 58.6499 53.3184 59.1727 54.6774 59.3818V60.4272H55.6183V59.3818C56.6637 59.3818 57.3955 59.0681 58.0228 58.4409C58.6502 57.9182 58.9637 57.1864 58.9637 56.35C58.9637 55.5137 58.65 54.7818 58.1273 54.3636ZM54.6773 52.9C54.1545 52.6909 53.7363 52.5863 53.5273 52.3772C53.3184 52.1681 53.2137 51.959 53.2137 51.5409C53.2137 51.2273 53.3182 50.9136 53.6319 50.7045C53.841 50.4954 54.2592 50.3908 54.6773 50.2863V52.9ZM56.6637 57.291C56.35 57.5001 56.0363 57.7092 55.5137 57.7092V54.9911C56.141 55.2002 56.5591 55.4093 56.7682 55.5138C56.9773 55.7229 57.0819 56.0366 57.0819 56.3503C57.0819 56.7682 56.9773 57.0819 56.6637 57.291Z" fill="#FF2060"/>
<path d="M48.0909 35.7546C47.9864 35.7546 48.0909 35.7546 48.0909 35.8591L43.8045 44.9546C43.5954 45.3728 43.7 45.8955 44.1182 46.2091C44.4318 46.5228 44.9546 46.5228 45.3727 46.3137L53.6317 40.6682L53.7363 40.5636C53.7363 40.5636 53.8408 40.5636 53.8408 40.4591L65.3409 26.9728C66.7 25.4046 66.4908 23.1046 64.9227 21.7455C64.2954 21.2227 63.4591 20.9092 62.5181 20.9092C61.4727 20.9092 60.4271 21.3274 59.6954 22.1637L48.1953 35.65C48.1955 35.65 48.1955 35.7546 48.0909 35.7546ZM61.3681 23.5228C61.8909 22.8955 62.9363 22.7909 63.5636 23.3137C64.2955 23.941 64.2955 24.8818 63.7727 25.6137L52.9 38.2637L50.4954 36.1728L61.3681 23.5228ZM51.3318 39.6228L47.3591 42.3409L49.45 37.9499L51.3318 39.6228Z" fill="#FF2060"/>
</svg>
