<svg width="80" height="80" viewBox="0 0 80 80" fill="none" xmlns="http://www.w3.org/2000/svg">
<path d="M32.5 31.25C33.8807 31.25 35 30.1307 35 28.75C35 27.3693 33.8807 26.25 32.5 26.25C31.1193 26.25 30 27.3693 30 28.75C30 30.1307 31.1193 31.25 32.5 31.25Z" fill="#FF2060"/>
<path d="M47.5 31.25C48.8807 31.25 50 30.1307 50 28.75C50 27.3693 48.8807 26.25 47.5 26.25C46.1193 26.25 45 27.3693 45 28.75C45 30.1307 46.1193 31.25 47.5 31.25Z" fill="#FF2060"/>
<path d="M62.2641 56.3438L50 52.8094V48.4922C53.5062 45.7844 56.4328 41.9062 57.2625 37.5H58.125C59.2849 37.4987 60.397 37.0374 61.2172 36.2172C62.0374 35.397 62.4987 34.2849 62.5 33.125V29.375C62.4987 28.2151 62.0374 27.103 61.2172 26.2828C60.397 25.4626 59.2849 25.0013 58.125 25H57.5V18.75C57.5 14.1087 55.6563 9.65752 52.3744 6.37563C49.0925 3.09374 44.6413 1.25 40 1.25C35.3587 1.25 30.9075 3.09374 27.6256 6.37563C24.3437 9.65752 22.5 14.1087 22.5 18.75V25H21.875C20.7151 25.0013 19.603 25.4626 18.7828 26.2828C17.9626 27.103 17.5013 28.2151 17.5 29.375V33.125C17.5013 34.2849 17.9626 35.397 18.7828 36.2172C19.603 37.0374 20.7151 37.4987 21.875 37.5H22.7375C23.5672 41.9062 26.4937 45.7844 30 48.4922V52.8094L17.7359 56.3438C14.8025 57.12 12.2082 58.8445 10.3568 61.2486C8.50547 63.6527 7.50106 66.6016 7.5 69.6359V77.5C7.5 77.8315 7.6317 78.1495 7.86612 78.3839C8.10054 78.6183 8.41848 78.75 8.75 78.75H71.25C71.5815 78.75 71.8995 78.6183 72.1339 78.3839C72.3683 78.1495 72.5 77.8315 72.5 77.5V69.6359C72.4989 66.6016 71.4945 63.6527 69.6432 61.2486C67.7918 58.8445 65.1974 57.12 62.2641 56.3438ZM57.5 27.5H58.125C58.6222 27.5004 59.0988 27.6981 59.4504 28.0496C59.8019 28.4012 59.9996 28.8778 60 29.375V33.125C59.9996 33.6222 59.8019 34.0988 59.4504 34.4504C59.0988 34.8019 58.6222 34.9996 58.125 35H57.5V27.5ZM22.5 35H21.875C21.3778 34.9996 20.9012 34.8019 20.5496 34.4504C20.1981 34.0988 20.0004 33.6222 20 33.125V29.375C20.0004 28.8778 20.1981 28.4012 20.5496 28.0496C20.9012 27.6981 21.3778 27.5004 21.875 27.5H22.5V35ZM25 18.75C25 14.7718 26.5804 10.9564 29.3934 8.1434C32.2064 5.33035 36.0218 3.75 40 3.75C43.9782 3.75 47.7936 5.33035 50.6066 8.1434C53.4197 10.9564 55 14.7718 55 18.75V21.1047C50.3703 20.0297 47.4297 13.3297 47.3984 13.2578C47.2952 13.0175 47.1193 12.8157 46.8954 12.6807C46.6714 12.5457 46.4108 12.4843 46.1501 12.5051C45.8895 12.526 45.6419 12.6281 45.4423 12.797C45.2427 12.966 45.1011 13.1932 45.0375 13.4469C44.9516 13.7937 44.4484 14.7453 41.6672 16.1C39.8172 17 37.3063 17.9062 34.2047 18.7938C30.5578 19.8359 26.9453 20.6031 25 20.9891V18.75ZM25 35V23.5375C26.8281 23.1828 30.8281 22.3578 34.875 21.2016C40.5719 19.5734 44.2406 17.9438 46.0984 16.1891C47.5672 18.7391 50.6141 22.9531 55 23.6484V35C55 37.1484 54.3031 41.375 49.6344 45.5594C46.625 48.2562 42.8422 50 40 50C37.1578 50 33.375 48.2562 30.3656 45.5594C25.6969 41.375 25 37.1484 25 35ZM32.5 53V50.1719C35.0594 51.6531 37.7281 52.5 40 52.5C42.2719 52.5 44.9406 51.6531 47.5 50.1719V53L40 58.4547L32.5 53ZM43.2672 62.5172L42.6813 66.25H37.3187L36.7328 62.5172L40 61.3297L43.2672 62.5172ZM33.8969 76.25H18.75V71.25C18.75 70.9185 18.6183 70.6005 18.3839 70.3661C18.1495 70.1317 17.8315 70 17.5 70C17.1685 70 16.8505 70.1317 16.6161 70.3661C16.3817 70.6005 16.25 70.9185 16.25 71.25V76.25H10V69.6359C10.0011 67.1514 10.8242 64.737 12.3411 62.7693C13.8581 60.8016 15.9835 59.3911 18.3859 58.7578C18.3956 58.7545 18.4056 58.7519 18.4156 58.75L27.1984 56.2188L25.0391 64.6906C24.9828 64.9109 24.9877 65.1423 25.0532 65.36C25.1186 65.5777 25.2422 65.7734 25.4107 65.9261C25.5791 66.0788 25.786 66.1826 26.009 66.2265C26.2321 66.2703 26.4629 66.2525 26.6766 66.175L34.3391 63.3891L34.9875 67.5203L33.8969 76.25ZM28.0453 63.0172L29.9609 55.5L29.8187 55.4625L31.0156 55.1188L37.3406 59.6375L28.0453 63.0172ZM36.4156 76.25L37.3531 68.75H42.6469L43.5844 76.25H36.4156ZM42.6594 59.6375L48.9844 55.1188L50.1813 55.4625L50.0391 55.5L51.9547 63.0172L42.6594 59.6375ZM70 76.25H62.5V71.25C62.5 70.9185 62.3683 70.6005 62.1339 70.3661C61.8995 70.1317 61.5815 70 61.25 70C60.9185 70 60.6005 70.1317 60.3661 70.3661C60.1317 70.6005 60 70.9185 60 71.25V76.25H46.1031L45.0125 67.5203L45.6609 63.3891L53.3234 66.175C53.5371 66.2525 53.7679 66.2703 53.991 66.2265C54.214 66.1826 54.4209 66.0788 54.5893 65.9261C54.7578 65.7734 54.8814 65.5777 54.9468 65.36C55.0123 65.1423 55.0172 64.9109 54.9609 64.6906L52.8016 56.2188L61.5844 58.75C61.5944 58.7521 61.6043 58.7547 61.6141 58.7578C64.0165 59.3911 66.1419 60.8016 67.6589 62.7693C69.1758 64.737 69.9989 67.1514 70 69.6359V76.25Z" fill="#FF2060"/>
<path d="M36.25 42.5H43.75C44.0815 42.5 44.3995 42.3683 44.6339 42.1339C44.8683 41.8995 45 41.5815 45 41.25C45 40.9185 44.8683 40.6005 44.6339 40.3661C44.3995 40.1317 44.0815 40 43.75 40H36.25C35.9185 40 35.6005 40.1317 35.3661 40.3661C35.1317 40.6005 35 40.9185 35 41.25C35 41.5815 35.1317 41.8995 35.3661 42.1339C35.6005 42.3683 35.9185 42.5 36.25 42.5Z" fill="#FF2060"/>
</svg>
