<svg width="95" height="95" viewBox="0 0 95 95" fill="none" xmlns="http://www.w3.org/2000/svg">
<g clip-path="url(#clip0)">
<path d="M88.5059 89.4336V70.0751H93.5156V64.5087H63.4867V48.7633C70.8695 43.8601 75.3915 35.5098 75.3915 26.5934C75.3915 11.9294 63.4621 0 48.7988 0C34.1356 0 22.2062 11.9294 22.2062 26.5926C22.2062 35.5098 26.7282 43.8601 34.1102 48.7633L34.1109 64.5087H1.29883V95H93.5156V89.4336H88.5059ZM48.7988 5.56641C60.3926 5.56641 69.8251 14.9989 69.8251 26.5926C69.8251 34.0761 65.7959 41.0551 59.3098 44.8074L57.9203 45.6112V52.7663H51.582V33.9551L59.0996 26.4375L55.1632 22.5019L48.7988 28.8663L42.4344 22.5019L38.4981 26.4383L46.0156 33.9558V52.7656H39.6766V45.6112L38.2872 44.8074C31.8017 41.0551 27.7726 34.0761 27.7726 26.5926C27.7726 14.9989 37.205 5.56641 48.7988 5.56641ZM57.9203 58.332V64.508H39.6773V58.332H57.9203ZM6.86523 70.0751H14.3494V89.4336H6.86523V70.0751ZM82.9395 89.4336H19.9158V82.5372H53.9325V76.9708H19.9158V70.0744H82.9395V89.4336Z" fill="white"/>
<path d="M59.499 76.9708H68.5908V82.5372H59.499V76.9708Z" fill="white"/>
</g>
<defs>
<clipPath id="clip0">
<rect width="95" height="95" fill="white"/>
</clipPath>
</defs>
</svg>
