<svg width="96" height="96" viewBox="0 0 96 96" fill="none" xmlns="http://www.w3.org/2000/svg">
<path d="M48 0C21.5332 0 0 21.5332 0 48C0 74.4668 21.5332 96 48 96C74.4668 96 96 74.4668 96 48C96 21.5332 74.4668 0 48 0ZM48 84C28.1503 84 12 67.8497 12 48C12 40.4239 14.2969 33.2617 18.6641 27.1504L68.8496 77.3359C62.7383 81.7031 55.5761 84 48 84ZM77.3359 68.8496L27.1504 18.6641C33.2617 14.2969 40.4239 12 48 12C67.8497 12 84 28.1503 84 48C84 55.5761 81.7031 62.7383 77.3359 68.8496Z" fill="white"/>
</svg>
