<svg width="94" height="94" viewBox="0 0 94 94" fill="none" xmlns="http://www.w3.org/2000/svg">
<path d="M70.5 6.26667H56.4V1.56667C56.4 0.701475 55.6985 0 54.8333 0H17.2333C16.3681 0 15.6667 0.701475 15.6667 1.56667V6.26667H1.56667C0.701475 6.26667 0 6.96814 0 7.83333V92.4333C0 93.2985 0.701475 94 1.56667 94H70.5C71.3652 94 72.0667 93.2985 72.0667 92.4333V7.83333C72.0667 6.96814 71.3652 6.26667 70.5 6.26667ZM18.8 3.13333H53.2667V6.26667H18.8V3.13333ZM18.8 9.4H53.2667V15.6667H40.4654C39.6016 13.2189 36.9169 11.9349 34.4692 12.7987C33.1287 13.2718 32.0744 14.3262 31.6012 15.6667H18.8V9.4ZM68.9333 90.8667H3.13333V9.4H15.6667V17.2333C15.6667 18.0985 16.3681 18.8 17.2333 18.8H32.9C33.7652 18.8 34.4667 18.0985 34.4667 17.2333C34.4667 16.3681 35.1681 15.6667 36.0333 15.6667C36.8985 15.6667 37.6 16.3681 37.6 17.2333C37.6 18.0985 38.3015 18.8 39.1667 18.8H54.8333C55.6985 18.8 56.4 18.0985 56.4 17.2333V9.4H68.9333V90.8667Z" fill="white"/>
<path d="M15.6671 21.9333C12.2061 21.9333 9.40039 24.739 9.40039 28.2C9.40039 31.661 12.2061 34.4667 15.6671 34.4667C19.128 34.4667 21.9337 31.661 21.9337 28.2C21.9337 24.739 19.128 21.9333 15.6671 21.9333ZM15.6671 31.3333C13.9365 31.3333 12.5337 29.9306 12.5337 28.2C12.5337 26.4694 13.9365 25.0667 15.6671 25.0667C17.3976 25.0667 18.8004 26.4694 18.8004 28.2C18.8004 29.9306 17.3976 31.3333 15.6671 31.3333Z" fill="white"/>
<path d="M15.6671 37.6C12.2061 37.6 9.40039 40.4057 9.40039 43.8667C9.40039 47.3276 12.2061 50.1333 15.6671 50.1333C19.128 50.1333 21.9337 47.3276 21.9337 43.8667C21.9337 40.4057 19.128 37.6 15.6671 37.6ZM15.6671 47C13.9365 47 12.5337 45.5973 12.5337 43.8667C12.5337 42.1361 13.9365 40.7333 15.6671 40.7333C17.3976 40.7333 18.8004 42.1361 18.8004 43.8667C18.8004 45.5973 17.3976 47 15.6671 47Z" fill="white"/>
<path d="M61.0996 23.5H39.1663C38.3011 23.5 37.5996 24.2015 37.5996 25.0667C37.5996 25.9319 38.3011 26.6333 39.1663 26.6333H61.0996C61.9648 26.6333 62.6663 25.9319 62.6663 25.0667C62.6663 24.2015 61.9648 23.5 61.0996 23.5Z" fill="white"/>
<path d="M32.8997 23.5H26.6331C25.7679 23.5 25.0664 24.2015 25.0664 25.0667C25.0664 25.9319 25.7679 26.6333 26.6331 26.6333H32.8997C33.7649 26.6333 34.4664 25.9319 34.4664 25.0667C34.4664 24.2015 33.7649 23.5 32.8997 23.5Z" fill="white"/>
<path d="M61.1 29.7667H48.5667C47.7015 29.7667 47 30.4681 47 31.3333C47 32.1985 47.7015 32.9 48.5667 32.9H61.1C61.9652 32.9 62.6667 32.1985 62.6667 31.3333C62.6667 30.4681 61.9652 29.7667 61.1 29.7667Z" fill="white"/>
<path d="M42.2997 29.7667H26.6331C25.7679 29.7667 25.0664 30.4681 25.0664 31.3333C25.0664 32.1985 25.7679 32.9 26.6331 32.9H42.2997C43.1649 32.9 43.8664 32.1985 43.8664 31.3333C43.8664 30.4681 43.1649 29.7667 42.2997 29.7667Z" fill="white"/>
<path d="M61.0999 39.1667H54.8333C53.9681 39.1667 53.2666 39.8681 53.2666 40.7333C53.2666 41.5985 53.9681 42.3 54.8333 42.3H61.0999C61.9651 42.3 62.6666 41.5985 62.6666 40.7333C62.6666 39.8681 61.9651 39.1667 61.0999 39.1667Z" fill="white"/>
<path d="M48.5664 39.1667H26.6331C25.7679 39.1667 25.0664 39.8681 25.0664 40.7333C25.0664 41.5985 25.7679 42.3 26.6331 42.3H48.5664C49.4316 42.3 50.1331 41.5985 50.1331 40.7333C50.1331 39.8681 49.4316 39.1667 48.5664 39.1667Z" fill="white"/>
<path d="M61.0998 45.4333H43.8665C43.0013 45.4333 42.2998 46.1348 42.2998 47C42.2998 47.8652 43.0013 48.5667 43.8665 48.5667H61.0998C61.965 48.5667 62.6665 47.8652 62.6665 47C62.6665 46.1348 61.965 45.4333 61.0998 45.4333Z" fill="white"/>
<path d="M37.5997 45.4333H26.6331C25.7679 45.4333 25.0664 46.1348 25.0664 47C25.0664 47.8652 25.7679 48.5667 26.6331 48.5667H37.5997C38.4649 48.5667 39.1664 47.8652 39.1664 47C39.1664 46.1348 38.4649 45.4333 37.5997 45.4333Z" fill="white"/>
<path d="M87.7335 6.42333V6.26667C87.7335 2.8057 84.9278 0 81.4669 0C78.0059 0 75.2002 2.8057 75.2002 6.26667V81.4667C75.2002 81.487 75.2112 81.5043 75.2112 81.5231C75.2178 81.688 75.2505 81.8509 75.3083 82.0056C75.3224 82.0401 75.3302 82.0761 75.3443 82.109C75.3584 82.1419 75.3553 82.1482 75.3647 82.167L79.9002 91.2364V92.4333C79.9002 93.2985 80.6017 94 81.4669 94C82.3321 94 83.0335 93.2985 83.0335 92.4333V91.2364L87.5769 82.167C87.5863 82.1482 87.5878 82.1278 87.5972 82.109C87.6066 82.0902 87.6192 82.0401 87.6333 82.0056C87.691 81.8509 87.7237 81.688 87.7304 81.5231C87.7304 81.5027 87.7414 81.487 87.7414 81.4667V9.68827C89.6094 10.3523 90.8598 12.1174 90.8669 14.1V28.2C90.8669 29.0652 91.5683 29.7667 92.4335 29.7667C93.2987 29.7667 94.0002 29.0652 94.0002 28.2V14.1C93.9955 10.379 91.3782 7.17279 87.7335 6.42333ZM81.4669 87.3636L79.3017 83.0333H83.632L81.4669 87.3636ZM84.6002 79.9H78.3335V36.0333H84.6002V79.9ZM84.6002 32.9H78.3335V9.4H84.6002V32.9ZM78.3335 6.26667C78.3335 4.53609 79.7363 3.13333 81.4669 3.13333C83.1974 3.13333 84.6002 4.53609 84.6002 6.26667H78.3335Z" fill="white"/>
<path d="M46.9999 61.1V57.9667H42.2999C41.8844 57.9667 41.486 58.132 41.1923 58.4257L39.9891 59.6289C33.989 52.2407 23.1355 51.1156 15.7475 57.1158C8.35947 63.1159 7.23421 73.9694 13.2343 81.3576C19.2345 88.7458 30.088 89.8709 37.476 83.8707C37.6238 83.7507 37.7695 83.6283 37.9133 83.5035C38.6568 82.8485 39.3425 82.1303 39.9625 81.3572L41.1829 82.5776C41.4794 82.8726 41.8816 83.0369 42.2999 83.0335H46.9999V79.9002H42.9485L41.7532 78.7048C44.564 73.5908 44.5716 67.3962 41.7735 62.2752L42.9485 61.1002H46.9999V61.1ZM39.4376 76.3891L37.1409 74.0924L34.9256 76.3076L37.7566 79.137C37.4903 79.4786 37.213 79.8123 36.9153 80.1303L28.8485 72.0667H40.6455C40.4771 73.5628 40.0692 75.0224 39.4376 76.3891ZM25.0666 68.9333C24.2014 68.9335 23.5001 69.635 23.5003 70.5004C23.5003 70.9158 23.6654 71.3139 23.959 71.6076L34.5214 82.1717C28.0736 86.5382 19.3069 84.8509 14.9404 78.403C10.574 71.9552 12.2613 63.1886 18.7091 58.8221C24.8649 54.6534 33.2001 55.9805 37.7566 61.8551L34.9194 64.6924L37.1346 66.9076L39.4251 64.6187C40.0619 65.9817 40.4742 67.4387 40.6455 68.9333H25.0666Z" fill="white"/>
<path d="M56.4005 53.2667C52.9395 53.2667 50.1338 56.0724 50.1338 59.5333C50.1338 62.9943 52.9395 65.8 56.4005 65.8C59.8614 65.8 62.6671 62.9943 62.6671 59.5333C62.6671 56.0724 59.8614 53.2667 56.4005 53.2667ZM56.4005 62.6667C54.6699 62.6667 53.2671 61.2639 53.2671 59.5333C53.2671 57.8027 54.6699 56.4 56.4005 56.4C58.131 56.4 59.5338 57.8027 59.5338 59.5333C59.5338 61.2639 58.131 62.6667 56.4005 62.6667Z" fill="white"/>
<path d="M56.4005 75.2C52.9395 75.2 50.1338 78.0057 50.1338 81.4667C50.1338 84.9276 52.9395 87.7333 56.4005 87.7333C59.8614 87.7333 62.6671 84.9276 62.6671 81.4667C62.6671 78.0057 59.8614 75.2 56.4005 75.2ZM56.4005 84.6C54.6699 84.6 53.2671 83.1973 53.2671 81.4667C53.2671 79.7361 54.6699 78.3333 56.4005 78.3333C58.131 78.3333 59.5338 79.7361 59.5338 81.4667C59.5338 83.1973 58.131 84.6 56.4005 84.6Z" fill="white"/>
</svg>
