<svg width="94" height="94" viewBox="0 0 94 94" fill="none" xmlns="http://www.w3.org/2000/svg">
<path d="M59.5777 72.7272C58.9689 71.4429 56.8516 71.4945 56.5051 73.1283C56.2868 74.1511 56.8936 75.1771 57.9695 75.2323V75.2341C59.5337 75.2993 60.0793 73.7838 59.5777 72.7272Z" fill="white"/>
<path d="M40.1056 72.9144C39.6066 71.4589 37.5016 71.4615 37.0123 72.9201C36.6849 73.8888 37.2341 75.2378 38.56 75.2378C39.8833 75.2378 40.4607 73.9593 40.1056 72.9144Z" fill="white"/>
<path d="M49.7936 82.5845C49.2836 81.1727 47.243 81.1758 46.7285 82.5731C46.3055 83.7191 47.0206 85.0428 48.4029 84.9325C49.6802 84.8416 50.1438 83.5495 49.7936 82.5845Z" fill="white"/>
<path d="M59.441 53.5727C58.7896 52.6275 57.0839 52.6424 56.5878 53.9246C56.1099 55.1539 56.9891 56.4334 58.1619 56.3161C59.6946 56.2763 60.1203 54.5507 59.441 53.5727Z" fill="white"/>
<path d="M38.5595 52.9123C36.2919 52.9123 36.323 56.5702 38.8547 56.297C40.751 56.0033 40.6484 52.9123 38.5595 52.9123Z" fill="white"/>
<path d="M49.838 43.9347C49.3739 42.2247 46.7579 42.3558 46.6159 44.3131C46.5554 45.1986 47.0909 46.1333 48.2242 46.1522H48.3037C49.594 46.1257 50.1068 44.9072 49.838 43.9347Z" fill="white"/>
<path d="M48.2594 61.6667C46.0633 61.6667 46.0633 65.0724 48.2594 65.0724C50.4556 65.0724 50.4556 61.6667 48.2594 61.6667Z" fill="white"/>
<path d="M70.1852 27.4517C67.4985 27.181 64.9728 27.1357 62.6134 27.3097C64.704 25.2966 66.9064 23.8228 68.6621 22.822C70.5825 21.7283 69.6742 18.7769 67.4702 18.9509C64.7477 19.1609 62.2446 19.6585 59.9759 20.438C62.6966 15.8518 66.5014 11.8919 70.5597 9.12571C72.3117 7.93382 71.36 5.18854 69.2428 5.33982C65.0917 5.63687 61.3815 6.6661 58.1633 8.41061C59.5672 6.73238 61.1999 5.21883 62.9084 3.98141C64.6283 2.74399 63.5857 0.0233111 61.4856 0.233342C58.3316 0.549307 55.5144 1.45938 53.1135 2.9408C52.4476 3.35131 52.2394 4.22541 52.65 4.89332C53.0625 5.5594 53.9366 5.76741 54.6025 5.35689C55.8985 4.55844 57.3459 3.95497 58.9314 3.54996C56.6819 5.57243 53.7341 8.87785 51.7059 13.6003C51.441 13.9012 51.1856 14.2114 50.9359 14.5274C50.3172 13.5171 49.655 12.556 48.9493 11.6459C49.46 10.6545 50.0618 9.68952 50.7712 8.79083C51.2574 8.17598 51.1515 7.28298 50.5366 6.79664C49.9218 6.31232 49.0288 6.41825 48.5442 7.0331C47.9577 7.77482 47.4355 8.55051 46.972 9.34326C41.1638 3.23785 33.5826 0.479358 25.1671 0.00256503C22.995 -0.0958412 22.1436 2.70617 23.9374 3.83013C25.1274 4.57754 26.327 5.42317 27.5018 6.34463C28.1288 6.83684 29.0391 6.71732 29.5177 6.07346C29.9833 5.44704 29.8181 4.55385 29.2036 4.07247C28.7793 3.74017 28.3513 3.41833 27.9219 3.10548C37.1266 4.29554 44.5487 8.72088 49.1597 17.076C47.1882 20.2792 45.877 23.8418 45.0371 27.4763C43.1148 20.4305 39.2645 13.6629 33.6263 7.99807C33.0739 7.44178 32.1752 7.43995 31.6208 7.99422C31.0645 8.54665 31.0626 9.44534 31.6151 9.99979C32.2867 10.6752 32.9755 11.4092 33.6678 12.2077C31.8609 11.4434 29.8195 10.7755 27.9388 10.2627C25.7291 9.66547 24.3143 12.5727 26.1585 13.9331C28.6823 15.7968 32.016 18.7009 34.4417 22.4357C31.5677 21.4917 28.1697 20.8313 24.1549 20.5759C21.8712 20.4358 21.0691 23.569 23.1464 24.5301C28.3021 26.9255 33.0965 30.4105 35.9003 34.9399C33.9913 35.693 32.3017 36.8318 30.9528 38.1677H30.951C30.6786 38.3871 28.7488 40.3491 27.6911 43.0527C27.1102 44.4756 26.6997 46.1404 26.6656 47.7334C26.4954 52.6337 26.6125 79.9637 26.6769 80.5899C27.3977 87.666 33.2648 93.9646 41.8526 93.9664C44.3728 94.0138 48.7394 93.9967 51.8858 93.9967C56.8656 93.9967 58.0405 93.8605 60.2711 93.0224C66.0606 90.858 69.9505 85.2462 69.9505 79.0538V66.505C69.9505 65.7115 69.3072 65.0682 68.5137 65.0682C67.7179 65.0682 67.0736 65.7146 67.0769 66.5107C67.0808 67.4116 67.0848 68.3492 67.0898 69.3669C63.3795 69.1967 60.044 66.4551 59.3779 62.4687C62.5301 62.0525 65.315 60.2872 67.0689 57.7085C67.0663 59.0876 67.0654 59.7409 67.0659 60.8885C67.0663 61.6818 67.7096 62.3246 68.5027 62.3246H68.5137C69.3072 62.3246 69.9505 61.6813 69.9505 60.8878V48.6022C69.9505 44.5856 68.242 40.7163 65.5951 38.1886C65.404 37.8045 63.4743 36.2757 61.6712 35.3941C64.3579 33.7159 67.4021 32.4331 70.5636 31.508C72.747 30.8705 72.4537 27.6824 70.1852 27.4517ZM64.3465 22.2165C61.6598 24.1312 59.3649 26.4224 58.224 27.9321C57.6452 28.057 57.0775 28.1989 56.523 28.3579C56.9393 26.9464 57.4274 25.6144 57.9705 24.3601C59.7547 23.4255 61.8605 22.6819 64.3465 22.2165ZM66.6396 8.50516C59.5617 14.2322 55.0134 21.8741 53.267 29.5309C51.2143 30.4428 49.3695 31.6214 47.7366 33.0707C47.5361 32.6848 47.3204 32.2987 47.0839 31.9128C48.7262 19.8439 54.7767 10.5276 66.6396 8.50516ZM48.2626 37.6268C48.4348 37.9332 48.692 38.3287 48.7811 38.4592C48.7811 38.4554 48.7792 38.4497 48.7792 38.446C50.5596 41.0418 53.3125 42.7162 56.3321 43.1552C55.1061 50.6834 45.349 52.5831 41.2927 46.3091C40.6721 45.3517 40.2728 44.3092 40.0837 43.1702C40.8537 43.0681 41.6011 42.8807 42.3219 42.6253H42.3351C44.8779 41.7173 46.9798 39.9085 48.2626 37.6268ZM46.7377 72.116C46.0112 76.5848 41.7617 79.6782 37.2474 78.9121C33.7793 78.3086 31.0738 75.6294 30.4873 72.1085C33.9572 71.6241 36.9106 69.5033 38.5604 66.5687C40.2291 69.5279 43.2299 71.6526 46.7377 72.116ZM36.9863 59.5664C33.7168 58.9081 31.0549 56.2781 30.4873 52.8045C33.8702 52.3202 36.8614 50.2636 38.5566 47.2647C40.2273 50.2351 43.2336 52.3562 46.7375 52.8197C45.9374 57.6271 41.2547 60.5143 36.9863 59.5664ZM40.0835 62.4687C43.6065 62.0033 46.6015 59.869 48.2626 56.9175C49.9201 59.8615 52.8809 61.9598 56.3319 62.4536C55.5902 67.0001 51.3218 69.9648 46.9475 69.28C43.5345 68.7502 40.689 66.0958 40.0835 62.4687ZM30.9716 14.1982C33.1776 14.9928 35.5049 16.0979 37.5216 17.4071C39.0864 19.9006 40.5166 22.7653 41.6178 26.0195C40.7153 25.3648 39.7182 24.7462 38.6172 24.1747C36.869 20.3435 34.0574 16.9681 30.9716 14.1982ZM27.9103 23.8209C34.3563 24.7896 40.4505 27.2549 44.1551 32.6187V32.6206L44.1569 32.6224C44.454 33.0518 44.7226 33.4851 44.9667 33.9166C41.6103 33.9147 40.407 33.8427 38.742 34.1398C36.2806 29.8167 32.2903 26.3846 27.9103 23.8209ZM45.472 36.7566C43.8789 39.1424 41.1733 40.4497 38.57 40.4497C35.9438 40.4497 34.1918 39.1385 34.1768 39.1328C38.3278 35.9941 42.3748 36.9381 45.472 36.7566ZM32.1012 41.1478C33.5467 42.2054 35.2381 42.8998 37.0355 43.1552C36.4131 46.9732 33.2325 49.8037 29.4712 50.0611C29.4922 47.9534 29.1951 44.7425 32.1012 41.1478ZM29.4373 57.682C29.6095 57.8845 30.7296 59.7594 33.1967 61.1481C34.3622 61.8046 35.6582 62.2568 37.0357 62.4536C36.5268 66.0277 33.4106 69.1192 29.4488 69.3632C29.4488 69.3632 29.4353 59.2163 29.4373 57.682ZM32.981 87.6001C31.3558 86.043 30.1638 83.4206 30.1638 83.1502C30.1467 83.1048 30.1296 83.0574 30.1164 83.0101L30.1146 83.0119C29.3824 80.9345 29.5034 79.578 29.4826 77.0407C31.3955 79.7614 34.1219 81.3355 37.0355 81.7499C36.6211 84.291 35.0944 86.3968 32.981 87.6001ZM35.3611 89.4412C36.6874 88.4894 37.7754 87.2672 38.5604 85.8672C40.0002 88.4195 42.424 90.3456 45.313 91.1288C41.1412 91.1288 38.6607 91.3917 35.3611 89.4412ZM40.0835 81.7653C43.5685 81.3056 46.5844 79.1941 48.2626 76.2123C49.9238 79.162 52.8866 81.2582 56.3319 81.7503C55.7643 85.2316 53.0985 87.8557 49.8347 88.5122C45.4663 89.4619 40.8517 86.482 40.0835 81.7653ZM59.117 90.4135H59.1152C56.0615 91.524 53.8518 90.9641 51.1006 91.1286C53.9896 90.3454 56.4133 88.4193 57.8513 85.867C58.648 87.2878 59.7567 88.5271 61.1094 89.4807C60.4112 89.8914 59.592 90.2565 59.117 90.4135ZM63.5027 87.6399H63.5009C61.3686 86.4517 59.8116 84.3516 59.3801 81.7653C62.5928 81.3396 65.3682 79.5251 67.09 76.9748C67.0711 79.4551 67.4891 83.6534 63.5027 87.6399ZM66.0341 72.1198C65.5819 75.2966 62.9729 78.2273 59.4216 78.8856C55.2082 79.7483 50.5689 76.9028 49.7857 72.1009C53.1686 71.6184 56.1542 69.5732 57.8513 66.5726C59.5257 69.5411 62.5282 71.6601 66.0341 72.1198ZM56.2827 59.5664C53.0133 58.9081 50.3532 56.2781 49.7855 52.8045C53.2308 52.3106 56.1957 50.2011 57.853 47.2647C59.518 50.2239 62.5187 52.3562 66.036 52.8197C65.2491 57.5572 60.642 60.5143 56.2827 59.5664ZM67.0237 47.3574C67.1239 48.2997 67.0786 48.8767 67.09 50.0706C63.2474 49.8758 60.0235 47.034 59.3801 43.1724C61.1529 42.9378 62.8974 42.2719 64.4413 41.1386C65.2017 42.0749 66.8004 45.1664 67.0237 47.3574ZM62.3562 39.1291C58.5778 41.5623 53.5262 40.48 51.0553 36.7566C55.3444 36.8889 58.5191 36.2456 62.3562 39.1291ZM58.3489 34.2457C55.9971 33.7368 54.5423 33.9808 51.2104 33.9184C55.1439 31.2337 60.2674 29.9621 66.0815 30.0493C63.2927 31.1562 60.6684 32.5486 58.3489 34.2457Z" fill="white"/>
</svg>
