<svg width="94" height="94" viewBox="0 0 94 94" fill="none" xmlns="http://www.w3.org/2000/svg">
<path d="M33.3542 66.8705C31.2344 66.8705 29.5098 68.5952 29.5098 70.7152C29.5098 71.4756 30.1263 72.0921 30.8867 72.0921C31.6472 72.0921 32.2637 71.4756 32.2637 70.7152C32.2637 70.1137 32.7529 69.6244 33.3542 69.6244C33.9557 69.6244 34.4449 70.1137 34.4449 70.7152C34.4449 71.4756 35.0615 72.0921 35.8219 72.0921C36.5823 72.0921 37.1989 71.4756 37.1989 70.7152C37.1989 68.5952 35.4742 66.8705 33.3542 66.8705Z" fill="white"/>
<path d="M47.9065 72.5612C47.3331 72.0614 46.4634 72.1209 45.9637 72.6945C45.5647 73.1522 44.989 73.4147 44.384 73.4147C43.7791 73.4147 43.2035 73.1522 42.8048 72.6947C42.305 72.1213 41.4352 72.0616 40.862 72.5612C40.2886 73.0609 40.229 73.9306 40.7285 74.5038C41.6505 75.5619 42.9829 76.1686 44.384 76.1686C45.7851 76.1686 47.1176 75.5619 48.0396 74.504C48.5395 73.9306 48.4798 73.0609 47.9065 72.5612Z" fill="white"/>
<path d="M65.0789 35.8098C64.7667 30.9257 60.851 26.9509 55.9707 26.5635C54.9789 26.4849 53.9875 26.5528 53.0253 26.7664C52.809 26.8145 52.5815 26.7324 52.4598 26.5622C50.5976 23.9596 47.5784 22.4058 44.3833 22.4058C41.1884 22.4058 38.1692 23.9596 36.3071 26.5624C36.1853 26.7324 35.9586 26.8143 35.7414 26.7664C34.7794 26.5532 33.7885 26.4849 32.7967 26.5637C27.9168 26.9507 24.0008 30.9253 23.6877 35.8089C23.5258 38.3361 24.316 40.8008 25.9125 42.7491C27.4857 44.669 29.6984 45.9238 32.1431 46.2827C32.1867 46.2892 32.2182 46.3235 32.2182 46.3643V58.3509C32.2182 59.8729 33.4564 61.1111 34.9784 61.1111H53.7885C55.3105 61.1111 56.5486 59.8729 56.5486 58.3509V46.3643C56.5486 46.3235 56.5802 46.2892 56.6239 46.2827C59.0683 45.924 61.2808 44.6693 62.854 42.7495C64.4505 40.8014 65.2405 38.3368 65.0789 35.8098ZM53.7887 58.3568L34.9725 58.3505V55.2309H53.7903L53.7887 58.3568ZM56.2244 43.5578C54.8394 43.7609 53.7949 44.9673 53.7949 46.3641L53.7918 52.4772H34.9723V46.3641C34.9723 44.9675 33.9279 43.7609 32.543 43.5578C28.8812 43.0205 26.1987 39.6939 26.4365 35.9848C26.6623 32.4583 29.4904 29.5882 33.0148 29.3088C33.2082 29.2935 33.4015 29.2858 33.5943 29.2858C34.1182 29.2858 34.638 29.3424 35.146 29.4549C36.4453 29.7426 37.7804 29.2364 38.5471 28.1648C39.8934 26.2831 42.0752 25.1597 44.3837 25.1597C46.6922 25.1597 48.874 26.2831 50.2205 28.1646C50.9874 29.2364 52.3221 29.7426 53.6216 29.4549C54.3167 29.3009 55.034 29.252 55.7531 29.3088C59.2776 29.5884 62.1055 32.4589 62.3309 35.9853C62.5681 39.6943 59.8858 43.0205 56.2244 43.5578Z" fill="white"/>
<path d="M91.7253 13.5118C92.4858 13.5118 93.1023 12.8953 93.1023 12.1348V6.34794C93.1023 2.84772 90.2546 0 86.7543 0H7.2454C3.74518 0 0.897461 2.84772 0.897461 6.34794V87.6522C0.897461 91.1523 3.74518 94 7.2454 94H86.7543C90.2546 94 93.1023 91.1523 93.1023 87.6521V18.8986C93.1023 18.1381 92.4858 17.5216 91.7253 17.5216C90.9649 17.5216 90.3484 18.1381 90.3484 18.8986V87.6521C90.3484 89.6338 88.7361 91.2461 86.7543 91.2461H76.4208C77.126 90.2235 77.54 88.9855 77.54 87.6521V86.731H82.3163C84.1864 86.731 85.7079 85.2095 85.7079 83.3394V50.3539C86.8283 49.4271 87.5436 48.027 87.5436 46.4626V40.154C87.5436 38.5898 86.8283 37.1895 85.7079 36.2629V30.8281C86.8283 29.9014 87.5436 28.5013 87.5436 26.9371V20.6284C87.5436 19.0642 86.8283 17.6639 85.7079 16.7373V10.6606C85.7079 8.79047 84.1864 7.26903 82.3163 7.26903H77.54V6.34794C77.54 5.01468 77.1258 3.77652 76.4208 2.75391H86.7543C88.7361 2.75391 90.3484 4.36623 90.3484 6.34794V12.135C90.3484 12.8953 90.9649 13.5118 91.7253 13.5118ZM52.1886 2.75391H64.9276V14.0302C64.9276 14.1171 64.8905 14.1848 64.8173 14.2315C64.744 14.2783 64.6669 14.2832 64.5883 14.2469L60.0521 12.1422C59.1029 11.7019 58.0138 11.7017 57.0643 12.1422L52.5281 14.2469C52.4493 14.2834 52.3722 14.2783 52.2989 14.2315C52.2259 14.1848 52.1886 14.1171 52.1886 14.0302V2.75391ZM74.786 87.6521C74.786 89.6338 73.1737 91.2461 71.192 91.2461H13.9813V83.2122C13.9813 82.4518 13.3648 81.8353 12.6043 81.8353C11.8439 81.8353 11.2274 82.4518 11.2274 83.2122V91.2461H7.2454C5.26369 91.2461 3.65137 89.6338 3.65137 87.6521V6.34794C3.65137 4.36623 5.26369 2.75391 7.2454 2.75391H11.2274V76.7319C11.2274 77.4924 11.8439 78.1089 12.6043 78.1089C13.3648 78.1089 13.9813 77.4924 13.9813 76.7319V2.75391H49.4347V14.0302C49.4347 15.0571 49.9513 16 50.817 16.5526C51.6824 17.1052 52.7554 17.1772 53.6871 16.7449L58.2231 14.6403C58.4359 14.5415 58.6803 14.5415 58.8929 14.6401L63.4291 16.7449C63.8325 16.9319 64.2623 17.0246 64.6904 17.0246C65.2509 17.0246 65.8083 16.8658 66.2991 16.5526C67.1645 16 67.6813 15.0571 67.6813 14.0302V2.75391H71.192C73.1737 2.75391 74.786 4.36623 74.786 6.34794V87.6521ZM77.54 10.0229H82.3163C82.6679 10.0229 82.9539 10.309 82.9539 10.6606V15.6018C82.8028 15.588 82.6499 15.5799 82.4953 15.5799H77.54V10.0229ZM77.54 18.334H82.4953C83.7605 18.334 84.7897 19.3633 84.7897 20.6284V26.9371C84.7897 28.2022 83.7605 29.2314 82.4953 29.2314H77.54V18.334ZM77.54 31.9852H82.4953C82.6499 31.9852 82.8028 31.9771 82.9539 31.9633V35.1275C82.8028 35.114 82.6499 35.1057 82.4953 35.1057H77.54V31.9852ZM77.54 37.8598H82.4953C83.7605 37.8598 84.7897 38.889 84.7897 40.1542V46.4628C84.7897 47.728 83.7605 48.7572 82.4953 48.7572H77.54V37.8598ZM77.54 51.5109H82.4953C82.6499 51.5109 82.8028 51.5028 82.9539 51.489V83.3394C82.9539 83.691 82.6679 83.9771 82.3163 83.9771H77.54V51.5109Z" fill="white"/>
<path d="M55.413 66.8705C53.2932 66.8705 51.5684 68.5952 51.5684 70.7152C51.5684 71.4756 52.1849 72.0921 52.9453 72.0921C53.7058 72.0921 54.3223 71.4756 54.3223 70.7152C54.3223 70.1137 54.8115 69.6244 55.413 69.6244C56.0144 69.6244 56.5037 70.1137 56.5037 70.7152C56.5037 71.4756 57.1202 72.0921 57.8807 72.0921C58.6411 72.0921 59.2576 71.4756 59.2576 70.7152C59.2576 68.5952 57.533 66.8705 55.413 66.8705Z" fill="white"/>
</svg>
