<svg width="95" height="95" viewBox="0 0 95 95" fill="none" xmlns="http://www.w3.org/2000/svg">
<g clip-path="url(#clip0)">
<path d="M94.9821 17.7653C94.773 13.2195 92.8859 8.94379 89.6681 5.72618C83.0765 -0.865334 72.6309 -1.42684 65.3706 4.42008L16.4464 43.8209C14.3341 45.5222 13.0394 48.051 12.8937 50.759C12.7482 53.4672 13.7646 56.1202 15.6823 58.0378L20.2129 62.5684L2.45219 80.3291C0.870918 81.9104 0 84.013 0 86.2493C0 88.4857 0.870918 90.5881 2.45237 92.1696C4.08462 93.8016 6.22852 94.6177 8.37261 94.6177C10.5167 94.6177 12.6606 93.8016 14.2928 92.1694L32.0533 74.4087L36.6664 79.0217C38.461 80.8164 40.9067 81.824 43.4346 81.824C43.5798 81.824 43.7258 81.8207 43.8715 81.814C46.5525 81.6906 49.0741 80.4361 50.7897 78.3722L66.1101 59.9406V62.5275C66.1101 67.4004 70.0747 71.365 74.9477 71.365C76.0973 71.365 77.1952 71.142 78.2036 70.7408V78.8072C78.2036 83.4237 81.9595 87.1796 86.576 87.1796C91.1926 87.1796 94.9485 83.4237 94.9485 78.8072V19.9409C95.0007 19.2207 95.0156 18.4949 94.9821 17.7653ZM85.7211 9.67275C88.3603 12.3119 89.6057 15.8125 89.4202 19.27L89.3665 19.9284C89.1207 22.2319 88.2336 24.489 86.6938 26.4329L68.9601 8.69913C73.991 4.71888 81.1764 5.1282 85.7211 9.67275ZM65.2012 52.3018L42.7243 29.8248L51.469 22.7823L72.3671 43.6804L65.2012 52.3018ZM61.6182 56.6123L54.4522 65.2336L29.6073 40.3886L38.352 33.3461L61.6182 56.6123ZM75.9501 39.3697L55.8413 19.261L64.586 12.2185L83.116 30.7486L75.9501 39.3697ZM10.3459 88.2226C9.25766 89.3108 7.48718 89.3108 6.39895 88.2226C5.87186 87.6955 5.58143 86.9947 5.58143 86.2491C5.58143 85.5036 5.87186 84.8029 6.39895 84.2757L24.1596 66.515L28.1066 70.4619L10.3459 88.2226ZM46.4971 74.8044C45.7718 75.6768 44.7484 76.1862 43.6149 76.2383C42.482 76.2919 41.4154 75.8774 40.6131 75.0751L19.629 54.091C18.8184 53.2804 18.4057 52.2033 18.4673 51.0586C18.5289 49.9138 19.0545 48.8871 19.9476 48.168L25.2804 43.955L50.8695 69.5441L46.4971 74.8044ZM86.5757 81.598C85.0368 81.598 83.7849 80.346 83.7849 78.8072V62.5275V58.3413V55.5505H78.2032V58.3413V62.5275C78.2032 64.3227 76.7425 65.7834 74.9473 65.7834C73.1521 65.7834 71.6914 64.3227 71.6914 62.5275V53.2255L89.3665 31.9609V78.8072C89.3665 80.346 88.1145 81.598 86.5757 81.598Z" fill="white"/>
</g>
<defs>
<clipPath id="clip0">
<rect width="95" height="95" fill="white"/>
</clipPath>
</defs>
</svg>
