<svg width="94" height="94" viewBox="0 0 94 94" fill="none" xmlns="http://www.w3.org/2000/svg">
<path d="M70.5 32.3125C67.0141 32.3125 63.6065 33.3462 60.7081 35.2828C57.8097 37.2195 55.5506 39.9722 54.2166 43.1927C52.8826 46.4132 52.5336 49.957 53.2137 53.376C53.8937 56.7949 55.5723 59.9354 58.0372 62.4003C60.5021 64.8652 63.6426 66.5438 67.0615 67.2238C70.4805 67.9039 74.0243 67.5549 77.2448 66.2209C80.4653 64.8869 83.218 62.6278 85.1547 59.7294C87.0913 56.831 88.125 53.4234 88.125 49.9375C88.1198 45.2647 86.2612 40.7847 82.957 37.4805C79.6528 34.1763 75.1728 32.3177 70.5 32.3125ZM70.5 64.625C67.5951 64.625 64.7554 63.7636 62.3401 62.1497C59.9247 60.5358 58.0422 58.2419 56.9305 55.5582C55.8189 52.8744 55.528 49.9212 56.0947 47.0721C56.6614 44.223 58.0603 41.606 60.1144 39.5519C62.1685 37.4978 64.7855 36.0989 67.6346 35.5322C70.4837 34.9655 73.4369 35.2564 76.1207 36.368C78.8045 37.4797 81.0983 39.3622 82.7122 41.7776C84.3261 44.1929 85.1875 47.0326 85.1875 49.9375C85.1831 53.8315 83.6342 57.5648 80.8807 60.3182C78.1273 63.0717 74.394 64.6206 70.5 64.625Z" fill="white"/>
<path d="M70.5 45.5312H73.4375C73.827 45.5312 74.2006 45.3765 74.4761 45.1011C74.7515 44.8256 74.9062 44.452 74.9062 44.0625C74.9062 43.673 74.7515 43.2994 74.4761 43.0239C74.2006 42.7485 73.827 42.5938 73.4375 42.5938H71.9688V41.125C71.9688 40.7355 71.814 40.3619 71.5386 40.0864C71.2631 39.811 70.8895 39.6562 70.5 39.6562C70.1105 39.6562 69.7369 39.811 69.4614 40.0864C69.186 40.3619 69.0312 40.7355 69.0312 41.125V42.8464C68.0517 43.1932 67.2263 43.875 66.7007 44.7713C66.1751 45.6677 65.9833 46.721 66.159 47.7452C66.3347 48.7693 66.8667 49.6984 67.6611 50.3683C68.4554 51.0382 69.4609 51.4058 70.5 51.4062C70.8895 51.4062 71.2631 51.561 71.5386 51.8364C71.814 52.1119 71.9688 52.4855 71.9688 52.875C71.9688 53.2645 71.814 53.6381 71.5386 53.9136C71.2631 54.189 70.8895 54.3438 70.5 54.3438H67.5625C67.173 54.3438 66.7994 54.4985 66.5239 54.7739C66.2485 55.0494 66.0938 55.423 66.0938 55.8125C66.0938 56.202 66.2485 56.5756 66.5239 56.8511C66.7994 57.1265 67.173 57.2812 67.5625 57.2812H69.0312V58.75C69.0312 59.1395 69.186 59.5131 69.4614 59.7886C69.7369 60.064 70.1105 60.2188 70.5 60.2188C70.8895 60.2188 71.2631 60.064 71.5386 59.7886C71.814 59.5131 71.9688 59.1395 71.9688 58.75V57.0286C72.9483 56.6818 73.7737 56 74.2993 55.1037C74.8249 54.2073 75.0167 53.154 74.841 52.1298C74.6653 51.1057 74.1333 50.1766 73.3389 49.5067C72.5446 48.8368 71.5391 48.4692 70.5 48.4688C70.1105 48.4688 69.7369 48.314 69.4614 48.0386C69.186 47.7631 69.0312 47.3895 69.0312 47C69.0312 46.6105 69.186 46.2369 69.4614 45.9614C69.7369 45.686 70.1105 45.5312 70.5 45.5312Z" fill="white"/>
<path d="M84.26 68.539L54.5075 76.3016L47.8689 73.6461L51.5419 72.7321C52.6974 72.4436 53.704 71.7352 54.3656 70.745C55.0273 69.7548 55.2966 68.5537 55.1211 67.3758C54.9456 66.1979 54.3379 65.1275 53.4163 64.3731C52.4947 63.6188 51.3253 63.2346 50.136 63.2954L24.9974 64.625L19.0938 64.6206V63.1562C19.0938 62.7667 18.939 62.3931 18.6636 62.1177C18.3881 61.8422 18.0145 61.6875 17.625 61.6875H7.95218L18.2334 51.4062H29.375C29.5679 51.4063 29.7589 51.3683 29.9371 51.2945C30.1153 51.2207 30.2772 51.1125 30.4136 50.9761L52.0145 29.375H64.625C64.8179 29.375 65.0089 29.337 65.1871 29.2632C65.3653 29.1894 65.5272 29.0812 65.6636 28.9448L86.6562 7.95218V13.2188C86.6562 13.6083 86.811 13.9819 87.0864 14.2573C87.3619 14.5328 87.7355 14.6875 88.125 14.6875C88.5145 14.6875 88.8881 14.5328 89.1636 14.2573C89.439 13.9819 89.5937 13.6083 89.5937 13.2188V4.40625C89.5937 4.01671 89.439 3.64313 89.1636 3.36769C88.8881 3.09224 88.5145 2.9375 88.125 2.9375H79.3125C78.923 2.9375 78.5494 3.09224 78.2739 3.36769C77.9985 3.64313 77.8437 4.01671 77.8437 4.40625C77.8437 4.79579 77.9985 5.16937 78.2739 5.44481C78.5494 5.72026 78.923 5.875 79.3125 5.875H84.5791L64.0166 26.4375H51.4062C51.2134 26.4375 51.0224 26.4755 50.8442 26.5493C50.666 26.6231 50.504 26.7313 50.3677 26.8677L28.7668 48.4688H17.625C17.4321 48.4687 17.2411 48.5067 17.0629 48.5805C16.8847 48.6543 16.7228 48.7625 16.5864 48.8989L3.36766 62.1177C3.23107 62.2539 3.12276 62.4158 3.04894 62.594C2.97511 62.7723 2.93724 62.9633 2.9375 63.1562V89.5938C2.9375 89.9833 3.09224 90.3569 3.36769 90.6323C3.64313 90.9078 4.01671 91.0625 4.40625 91.0625H17.625C18.0145 91.0625 18.3881 90.9078 18.6636 90.6323C18.939 90.3569 19.0938 89.9833 19.0938 89.5938V87.9313L27.9062 86.6805L52.6058 92.4921C52.8929 92.5596 53.1935 92.5391 53.4687 92.4334L87.709 79.264C89.0545 78.7465 90.1509 77.7336 90.7731 76.4331C91.3953 75.1326 91.496 73.6433 91.0547 72.2709C90.6133 70.8985 89.6633 69.7471 88.3997 69.0531C87.1361 68.3591 85.6548 68.1752 84.2598 68.539H84.26ZM16.1562 88.125H5.875V64.625H16.1562V88.125ZM25.1132 67.5605L50.2863 66.2283C50.6221 66.2115 50.9561 66.2862 51.2527 66.4446C51.5493 66.6029 51.7973 66.8388 51.9702 67.1271C52.1431 67.4154 52.2344 67.7453 52.2343 68.0815C52.2343 68.4177 52.1429 68.7476 51.9699 69.0358C51.8452 69.2449 51.6803 69.4273 51.4848 69.5722C51.2892 69.7172 51.0668 69.8219 50.8305 69.8804L36.3633 73.4805C36.175 73.5259 35.9975 73.6082 35.8411 73.7225C35.6847 73.8369 35.5524 73.9811 35.452 74.1468C35.3515 74.3124 35.2848 74.4964 35.2558 74.6879C35.2267 74.8795 35.2359 75.0749 35.2826 75.2629C35.3294 75.4509 35.413 75.6278 35.5284 75.7834C35.6439 75.939 35.789 76.0703 35.9554 76.1695C36.1218 76.2688 36.3062 76.3342 36.4979 76.3619C36.6897 76.3896 36.885 76.3791 37.0727 76.3309L42.9921 74.858L53.8646 79.2069C54.156 79.3234 54.477 79.3435 54.7807 79.2644L85.0002 71.3809C85.6684 71.208 86.3775 71.2971 86.9821 71.6299C87.5867 71.9628 88.0412 72.5143 88.2524 73.1714C88.4636 73.8285 88.4156 74.5415 88.1181 75.1643C87.8207 75.7872 87.2964 76.2727 86.6526 76.5215L52.8383 89.5289L28.3102 83.7579C28.1324 83.7158 27.9483 83.7075 27.7675 83.7334L19.0938 84.9644V67.5581L25.1132 67.5605Z" fill="white"/>
</svg>
