<svg width="100" height="100" viewBox="0 0 100 100" fill="none" xmlns="http://www.w3.org/2000/svg">
<path d="M1.77841 98.1699H98.2222C99.2042 98.1699 100 97.3737 100 96.3918V10.1554C100 9.17345 99.2042 8.37762 98.2222 8.37762H78.6494V3.60784C78.6494 2.6259 77.8529 1.83008 76.871 1.83008C75.889 1.83008 75.0932 2.6259 75.0932 3.60784V8.37762H60.7354V3.60784C60.7354 2.6259 59.9389 1.83008 58.957 1.83008C57.9751 1.83008 57.1792 2.6259 57.1792 3.60784V8.37762H42.8214V3.60784C42.8214 2.6259 42.0256 1.83008 41.043 1.83008C40.0611 1.83008 39.2652 2.6259 39.2652 3.60784V8.37762H24.9068V3.60784C24.9068 2.6259 24.111 1.83008 23.129 1.83008C22.1471 1.83008 21.3506 2.6259 21.3506 3.60784V8.37762H1.77841C0.796472 8.37762 0 9.17345 0 10.1554V96.3921C0 97.3737 0.796472 98.1699 1.77841 98.1699ZM3.55617 11.9338H21.3506V19.2878C21.3506 20.2698 22.1471 21.0659 23.129 21.0659C24.111 21.0659 24.9068 20.2698 24.9068 19.2878V11.9338H39.2656V19.2878C39.2656 20.2698 40.0614 21.0659 41.0433 21.0659C42.0259 21.0659 42.8217 20.2698 42.8217 19.2878V11.9338H57.1796V19.2878C57.1796 20.2698 57.9754 21.0659 58.9573 21.0659C59.9393 21.0659 60.7357 20.2698 60.7357 19.2878V11.9338H75.0935V19.2878C75.0935 20.2698 75.8894 21.0659 76.8713 21.0659C77.8532 21.0659 78.6497 20.2698 78.6497 19.2878V11.9338H96.4441V94.6137H3.55617V11.9338Z" fill="white"/>
<path d="M87.7915 33.7452H12.2104C11.2284 33.7452 10.4326 34.541 10.4326 35.5229V88.4484C10.4326 89.4303 11.2284 90.2265 12.2104 90.2265H87.7915C88.7734 90.2265 89.5693 89.4303 89.5693 88.4484V35.5226C89.5693 34.5407 88.7734 33.7452 87.7915 33.7452ZM86.0131 86.67H13.9888V37.301H86.0131V86.67V86.67Z" fill="white"/>
<path d="M18.2393 73.0094C17.2574 73.0094 16.4609 73.8053 16.4609 74.7872C16.4609 75.7691 17.2574 76.5656 18.2393 76.5656H28.4856V82.2831C28.4856 83.265 29.282 84.0608 30.264 84.0608C31.2459 84.0608 32.0417 83.265 32.0417 82.2831V76.5656H41.6424V82.2831C41.6424 83.265 42.4388 84.0608 43.4208 84.0608C44.4027 84.0608 45.1985 83.265 45.1985 82.2831V76.5656H54.7998V82.2831C54.7998 83.265 55.5963 84.0608 56.5782 84.0608C57.5602 84.0608 58.356 83.265 58.356 82.2831V76.5656H67.9586V82.2831C67.9586 83.265 68.7544 84.0608 69.7363 84.0608C70.7183 84.0608 71.5147 83.265 71.5147 82.2831V76.5656H81.7597C82.7416 76.5656 83.5381 75.7691 83.5381 74.7872C83.5381 73.8053 82.7416 73.0094 81.7597 73.0094H71.5147V63.7636H81.7597C82.7416 63.7636 83.5381 62.9678 83.5381 61.9858C83.5381 61.0039 82.7416 60.2074 81.7597 60.2074H71.5147V50.9619H81.7597C82.7416 50.9619 83.5381 50.1657 83.5381 49.1838C83.5381 48.2018 82.7416 47.4057 81.7597 47.4057H71.5147V41.6895C71.5147 40.7076 70.7183 39.9114 69.7363 39.9114C68.7544 39.9114 67.9586 40.7076 67.9586 41.6895V47.4057H58.356V41.6895C58.356 40.7076 57.5602 39.9114 56.5782 39.9114C55.5963 39.9114 54.7998 40.7076 54.7998 41.6895V47.4057H45.1985V41.6895C45.1985 40.7076 44.4027 39.9114 43.4208 39.9114C42.4388 39.9114 41.6424 40.7076 41.6424 41.6895V47.4057H32.0417V41.6895C32.0417 40.7076 31.2459 39.9114 30.264 39.9114C29.282 39.9114 28.4856 40.7076 28.4856 41.6895V47.4057H18.2393C17.2574 47.4057 16.4609 48.2018 16.4609 49.1838C16.4609 50.1657 17.2574 50.9619 18.2393 50.9619H28.4856V60.2074H18.2393C17.2574 60.2074 16.4609 61.0039 16.4609 61.9858C16.4609 62.9678 17.2574 63.7636 18.2393 63.7636H28.4856V73.0094H18.2393V73.0094ZM45.1985 73.0094V63.7636H54.7998V73.0094H45.1985ZM67.9582 73.0094H58.3557V63.7636H67.9582V73.0094ZM67.9582 50.9619V60.2074H58.3557V50.9619H67.9582ZM54.7998 50.9619V60.2074H45.1985V50.9619H54.7998ZM32.0417 50.9619H41.6424V60.2074H32.0417V50.9619ZM32.0417 63.7636H41.6424V73.0094H32.0417V63.7636Z" fill="white"/>
<path d="M23.129 29.1838H76.871C77.8529 29.1838 78.6494 28.3876 78.6494 27.4057C78.6494 26.4238 77.8529 25.6276 76.871 25.6276H23.129C22.1471 25.6276 21.3506 26.4238 21.3506 27.4057C21.3506 28.3876 22.1471 29.1838 23.129 29.1838Z" fill="white"/>
</svg>
