<svg width="95" height="95" viewBox="0 0 95 95" fill="none" xmlns="http://www.w3.org/2000/svg">
<g clip-path="url(#clip0)">
<path d="M93.6056 92.2114H84.589V37.0891C84.589 36.3191 83.9648 35.6948 83.1946 35.6948H68.3219C67.5517 35.6948 66.9275 36.3191 66.9275 37.0891V92.2114H56.3307V53.4492C56.3307 52.6792 55.7066 52.0548 54.9363 52.0548H40.0637C39.2934 52.0548 38.6693 52.6792 38.6693 53.4492V92.2114H28.0725V60.8855C28.0725 60.1155 27.4483 59.4911 26.6781 59.4911H11.8054C11.0352 59.4911 10.411 60.1155 10.411 60.8855V92.2112H1.39438C0.62418 92.2112 0 92.8356 0 93.6056C0 94.3756 0.62418 95 1.39438 95H93.6056C94.3758 95 95 94.3756 95 93.6056C94.9998 92.8356 94.3758 92.2114 93.6056 92.2114ZM25.2837 92.2114H13.1996V62.2799H25.2837V92.2114ZM53.5421 92.2114H41.458V54.8436H53.5421V92.2114ZM81.8004 92.2114H69.7163V38.4835H81.8004V92.2114Z" fill="white"/>
<path d="M90.5481 1.0938C89.6083 0.26422 88.3575 -0.122274 87.1144 0.0339566L75.2162 1.5213C72.8542 1.81651 71.1275 4.03361 71.423 6.39803C71.7216 8.78732 73.9075 10.4901 76.3 10.1913L77.2708 10.0702C62.6673 27.0025 45.3062 35.7532 33.0382 40.1511C17.7416 45.6349 5.83558 46.1039 5.71961 46.1078C3.31437 46.183 1.41659 48.2012 1.48933 50.6068C1.56132 52.9825 3.47858 54.8434 5.8545 54.8434C5.89866 54.8434 5.94301 54.8428 5.98847 54.8414C6.51783 54.8254 19.1389 54.3797 35.7667 48.4548C45.1142 45.1239 53.9098 40.7021 61.909 35.3125C62.5476 34.8824 62.7165 34.0156 62.286 33.3771C61.8559 32.7383 60.9894 32.5696 60.3505 32.9999C52.545 38.2594 43.9588 42.5754 34.8306 45.828C18.6114 51.6073 6.41504 52.0385 5.90497 52.0539L5.8545 52.0546C4.99579 52.0546 4.30259 51.3816 4.27661 50.5224C4.25026 49.6522 4.93679 48.9222 5.80737 48.895C5.92909 48.8911 18.1748 48.4417 33.9793 42.776C47.2198 38.0295 66.2446 28.3378 81.6882 9.12186C82.4572 8.16518 81.6443 6.71253 80.4288 6.86487L75.9548 7.4241C75.1793 7.52003 74.4259 7.01182 74.2291 6.25442C73.9923 5.34301 74.6291 4.40488 75.5624 4.28799L87.461 2.80065C88.39 2.6832 89.2369 3.4341 89.2369 4.3687V16.2669C89.2369 17.1382 88.5281 17.8472 87.6565 17.8472C86.785 17.8472 86.0762 17.1384 86.0762 16.2669V12.6599C86.0762 12.0901 85.7077 11.5572 85.1749 11.3558C84.6243 11.1478 83.9738 11.3224 83.6016 11.7781C78.3939 18.1593 72.4642 23.9335 65.9769 28.9403C65.3674 29.4109 65.2544 30.2864 65.7249 30.8962C66.1955 31.5059 67.0714 31.6185 67.6808 31.1481C73.3316 26.7868 78.5696 21.8585 83.2921 16.4638C83.3953 18.7818 85.3135 20.6362 87.6567 20.6362C90.0657 20.6362 92.0256 18.6762 92.0256 16.2673V4.36907C92.0254 3.11663 91.487 1.92264 90.5481 1.0938Z" fill="white"/>
</g>
<defs>
<clipPath id="clip0">
<rect width="95" height="95" fill="white"/>
</clipPath>
</defs>
</svg>
