<svg width="113" height="113" viewBox="0 0 113 113" fill="none" xmlns="http://www.w3.org/2000/svg">
<g clip-path="url(#clip0)">
<path d="M93.7876 33.9883H19.2129C18.8032 33.9883 18.4102 34.151 18.1205 34.4408C17.8307 34.7305 17.668 35.1235 17.668 35.5332C17.668 35.9429 17.8307 36.3359 18.1205 36.6256C18.4102 36.9154 18.8032 37.0781 19.2129 37.0781H93.7876C94.1973 37.0781 94.5903 36.9154 94.88 36.6256C95.1698 36.3359 95.3325 35.9429 95.3325 35.5332C95.3325 35.1235 95.1698 34.7305 94.88 34.4408C94.5903 34.151 94.1973 33.9883 93.7876 33.9883Z" fill="white"/>
<path d="M93.7876 42.1561H19.2129C18.8032 42.1561 18.4102 42.3188 18.1205 42.6086C17.8307 42.8983 17.668 43.2912 17.668 43.701C17.668 44.1107 17.8307 44.5037 18.1205 44.7934C18.4102 45.0831 18.8032 45.2459 19.2129 45.2459H93.7876C94.1973 45.2459 94.5903 45.0831 94.88 44.7934C95.1698 44.5037 95.3325 44.1107 95.3325 43.701C95.3325 43.2912 95.1698 42.8983 94.88 42.6086C94.5903 42.3188 94.1973 42.1561 93.7876 42.1561Z" fill="white"/>
<path d="M84.3086 50.3203H28.6914C28.2817 50.3203 27.8887 50.4831 27.599 50.7728C27.3093 51.0625 27.1465 51.4555 27.1465 51.8652C27.1465 52.275 27.3093 52.6679 27.599 52.9577C27.8887 53.2474 28.2817 53.4102 28.6914 53.4102H84.3086C84.7183 53.4102 85.1113 53.2474 85.401 52.9577C85.6907 52.6679 85.8535 52.275 85.8535 51.8652C85.8535 51.4555 85.6907 51.0625 85.401 50.7728C85.1113 50.4831 84.7183 50.3203 84.3086 50.3203Z" fill="white"/>
<path d="M47.5215 69.2434L41.6569 69.3926C40.6595 68.6235 39.4707 68.1418 38.2192 67.9995C36.9677 67.8573 35.7011 68.06 34.5565 68.5857C34.2202 68.2578 33.8208 68.0016 33.3826 67.8327C32.9443 67.6638 32.4763 67.5857 32.0069 67.6031C31.3953 67.6143 30.7968 67.7825 30.269 68.0917C29.7412 68.4009 29.3018 68.8407 28.993 69.3688C28.9402 69.4579 28.8611 69.5284 28.7665 69.5707C28.6719 69.6129 28.5666 69.6248 28.465 69.6046C28.3634 69.5845 28.2705 69.5333 28.1992 69.4582C28.128 69.3831 28.0817 69.2877 28.0669 69.1851L27.2406 63.4469C27.1949 63.1295 27.0516 62.8342 26.8305 62.6019C26.6095 62.3696 26.3216 62.2119 26.0069 62.1506C25.6921 62.0893 25.3661 62.1274 25.074 62.2597C24.7819 62.392 24.5383 62.6119 24.3768 62.8889L17.8775 74.0309C17.671 74.3849 17.6136 74.8065 17.7179 75.2028C17.8222 75.5992 18.0797 75.9378 18.4337 76.1444C18.7877 76.3509 19.2092 76.4083 19.6056 76.304C20.0019 76.1997 20.3406 75.9422 20.5471 75.5882L24.8138 68.2741L25.0089 69.6239C25.115 70.3596 25.4468 71.0443 25.9586 71.5834C26.4704 72.1225 27.1369 72.4895 27.8662 72.6336C28.5954 72.7778 29.3514 72.692 30.0299 72.3882C30.7083 72.0844 31.2757 71.5775 31.6538 70.9375C31.696 70.8633 31.7572 70.8015 31.8309 70.7584C31.9047 70.7153 31.9886 70.6924 32.074 70.6921C32.1597 70.6871 32.2451 70.7056 32.321 70.7456C32.3969 70.7856 32.4605 70.8455 32.5048 70.919L32.8579 71.4628C32.9706 71.6363 33.1169 71.7854 33.2883 71.9012C33.4596 72.0171 33.6525 72.0974 33.8554 72.1373C34.0584 72.1772 34.2673 72.176 34.4697 72.1337C34.6722 72.0914 34.8641 72.0088 35.0341 71.891L35.2866 71.7144C36.001 71.2215 36.8628 70.9882 37.7283 71.0536C38.5939 71.119 39.4109 71.479 40.0432 72.0737C40.1871 72.2171 40.3595 72.3288 40.5493 72.4015C40.7391 72.4742 40.942 72.5063 41.1449 72.4957L47.6009 72.3306C48.0107 72.3201 48.3994 72.1472 48.6817 71.85C48.964 71.5528 49.1166 71.1557 49.1061 70.746C49.0956 70.3362 48.9227 69.9474 48.6255 69.6652C48.3283 69.3829 47.9312 69.2302 47.5215 69.2408V69.2434Z" fill="white"/>
<path d="M111.455 18.0977H1.54492C1.13518 18.0977 0.742226 18.2604 0.452497 18.5502C0.162768 18.8399 0 19.2328 0 19.6426L0 93.3521C0 93.7619 0.162768 94.1548 0.452497 94.4446C0.742226 94.7343 1.13518 94.8971 1.54492 94.8971H71.883L71.3383 104.415C71.3219 104.701 71.3857 104.987 71.5226 105.239C71.6594 105.492 71.864 105.701 72.1132 105.844C72.3623 105.986 72.6464 106.057 72.9333 106.047C73.2203 106.037 73.4989 105.948 73.7378 105.788L79.5017 101.943L85.2647 105.788C85.5036 105.948 85.7822 106.038 86.0694 106.048C86.3565 106.057 86.6407 105.987 86.89 105.844C87.1394 105.702 87.344 105.492 87.4809 105.24C87.6178 104.987 87.6816 104.701 87.665 104.415L87.1203 94.8971H111.455C111.865 94.8971 112.258 94.7343 112.548 94.4446C112.837 94.1548 113 93.7619 113 93.3521V19.6426C113 19.2328 112.837 18.8399 112.548 18.5502C112.258 18.2604 111.865 18.0977 111.455 18.0977ZM75.9219 75.8389C75.8138 75.756 75.695 75.688 75.5687 75.6367L71.4028 73.9126L71.9925 69.442C72.0101 69.3075 72.0101 69.1713 71.9925 69.0368L71.4028 64.5671L75.5687 62.843C75.695 62.7914 75.8138 62.7231 75.9219 62.64L79.499 59.8935L83.0753 62.64C83.1834 62.7231 83.3022 62.7914 83.4284 62.843L87.5953 64.5671L87.0047 69.0359C86.987 69.1698 86.987 69.3055 87.0047 69.4394L87.5953 73.9108L83.9502 75.4187L83.4293 75.6341C83.3031 75.6855 83.1844 75.7535 83.0762 75.8362L79.4999 78.5836L75.9219 75.8389ZM86.1448 77.8561L89.8721 76.3138C90.1866 76.1842 90.4495 75.9541 90.6197 75.6595C90.7899 75.3649 90.8579 75.0223 90.8132 74.6851L90.0946 69.2399L90.8132 63.7947C90.8578 63.4573 90.7898 63.1146 90.6196 62.8199C90.4494 62.5252 90.1866 62.295 89.8721 62.165L84.7986 60.0657L80.4428 56.7207C80.1727 56.5137 79.8419 56.4015 79.5017 56.4015C79.1614 56.4015 78.8306 56.5137 78.5606 56.7207L74.2048 60.0657L69.1304 62.165C68.8158 62.2951 68.553 62.5255 68.3828 62.8204C68.2126 63.1152 68.1446 63.4581 68.1893 63.7956L68.9079 69.2399L68.1893 74.6859C68.1445 75.0233 68.2125 75.3661 68.3827 75.6608C68.5529 75.9556 68.8158 76.1858 69.1304 76.3156L72.8576 77.8579L72.463 84.7438H15.669C15.3709 83.3942 14.6931 82.158 13.7157 81.1807C12.7383 80.2035 11.502 79.526 10.1523 79.228V33.7632C11.5016 33.4654 12.7378 32.7883 13.7151 31.8115C14.6925 30.8348 15.3704 29.5991 15.669 28.25H97.3292C97.6272 29.5998 98.3049 30.8362 99.2823 31.8136C100.26 32.791 101.496 33.4687 102.846 33.7667V79.2315C101.496 79.5296 100.26 80.2072 99.2823 81.1846C98.3049 82.162 97.6272 83.3985 97.3292 84.7482H86.5395L86.1448 77.8561ZM80.3589 98.8C80.1051 98.6303 79.8066 98.5397 79.5012 98.5397C79.1959 98.5397 78.8974 98.6303 78.6436 98.8L74.5977 101.499L75.8468 79.6756L78.5588 81.7582C78.8286 81.9659 79.1595 82.0786 79.4999 82.0786C79.8404 82.0786 80.1713 81.9659 80.441 81.7582L83.1521 79.6765L83.9396 93.4404L84.4004 101.498L80.3589 98.8ZM109.91 91.8072H86.9429L86.716 87.8346H98.709C98.9119 87.8347 99.1129 87.7948 99.3004 87.7172C99.4879 87.6396 99.6582 87.5258 99.8017 87.3823C99.9452 87.2388 100.059 87.0685 100.137 86.881C100.214 86.6935 100.254 86.4925 100.254 86.2896C100.255 85.1924 100.692 84.1405 101.467 83.3648C102.243 82.589 103.295 82.1528 104.393 82.1519C104.802 82.1516 105.195 81.9888 105.485 81.6991C105.774 81.4095 105.937 81.0166 105.938 80.607V32.3886C105.938 31.9789 105.775 31.5859 105.485 31.2962C105.195 31.0065 104.802 30.8437 104.393 30.8437C103.295 30.8425 102.243 30.4061 101.467 29.6302C100.692 28.8543 100.255 27.8024 100.254 26.7051C100.254 26.5022 100.214 26.3012 100.137 26.1137C100.059 25.9262 99.9452 25.7559 99.8017 25.6124C99.6582 25.4689 99.4879 25.3551 99.3004 25.2775C99.1129 25.1999 98.9119 25.16 98.709 25.1602H14.2901C13.8803 25.1602 13.4874 25.3229 13.1977 25.6127C12.9079 25.9024 12.7452 26.2953 12.7452 26.7051C12.744 27.8022 12.3077 28.8541 11.532 29.6299C10.7563 30.4058 9.70454 30.8423 8.60742 30.8437C8.19768 30.8437 7.80473 31.0065 7.515 31.2962C7.22527 31.5859 7.0625 31.9789 7.0625 32.3886V80.607C7.06273 81.0166 7.22558 81.4095 7.51526 81.6991C7.80493 81.9888 8.19775 82.1516 8.60742 82.1519C9.70446 82.1531 10.7562 82.5894 11.532 83.3651C12.3077 84.1408 12.744 85.1926 12.7452 86.2896C12.7452 86.6994 12.9079 87.0923 13.1977 87.3821C13.4874 87.6718 13.8803 87.8346 14.2901 87.8346H72.2909L72.0631 91.8072H3.08984V21.1875H109.91V91.8072Z" fill="white"/>
<path d="M79.502 72.5504C81.3303 72.5504 82.8125 71.0682 82.8125 69.2399C82.8125 67.4115 81.3303 65.9293 79.502 65.9293C77.6736 65.9293 76.1914 67.4115 76.1914 69.2399C76.1914 71.0682 77.6736 72.5504 79.502 72.5504Z" fill="white"/>
</g>
<defs>
<clipPath id="clip0">
<rect width="113" height="113" fill="white"/>
</clipPath>
</defs>
</svg>
