<svg width="94" height="94" viewBox="0 0 94 94" fill="none" xmlns="http://www.w3.org/2000/svg">
<g clip-path="url(#clip0)">
<path d="M74.1264 66.2621L69.6172 8.46569C69.247 3.71851 65.2271 0 60.4654 0H33.5349C28.7732 0 24.7533 3.71869 24.383 8.46569L23.5737 18.8387V18.8389L19.8743 66.2621C19.6758 68.8051 20.5554 71.3372 22.2874 73.2095C24.0194 75.0819 26.4756 76.1558 29.0262 76.1558H38.9976L38.0783 94H56.7285L55.8096 76.1558H64.9743C67.5249 76.1558 69.981 75.0818 71.7131 73.2095C73.4451 71.3372 74.3247 68.8051 74.1264 66.2621ZM33.5349 5.50781H60.4656C62.3702 5.50781 63.9783 6.99529 64.1262 8.89402L65.931 32.0276C66.0114 33.0594 65.6686 34.046 64.9656 34.8059C64.2626 35.566 63.3054 35.9844 62.2701 35.9844H59.8518C54.7901 35.9844 50.6721 40.1024 50.6721 45.1641V45.2459C50.6721 47.2706 49.0249 48.9178 47.0002 48.9178C44.9756 48.9178 43.3284 47.2706 43.3284 45.2459V32.4043C43.3284 27.3426 39.2104 23.2246 34.1487 23.2246H32.7258C31.6905 23.2246 30.7333 22.8062 30.0303 22.0461C29.3275 21.2862 28.9846 20.2994 29.0652 19.2674L29.8744 8.8942C30.0222 6.99529 31.6303 5.50781 33.5349 5.50781ZM50.9299 88.4922H43.8771L44.5125 76.1558H50.2943L50.9299 88.4922ZM67.67 69.4695C66.967 70.2296 66.0095 70.648 64.9743 70.648H29.026C27.9908 70.648 27.0335 70.2296 26.3305 69.4695C25.6275 68.7096 25.2848 67.7226 25.3654 66.6906L28.411 27.6494C29.7281 28.3504 31.2095 28.7324 32.7256 28.7324H34.1487C36.1734 28.7324 37.8206 30.3796 37.8206 32.4043V45.2459C37.8206 50.3076 41.9386 54.4256 47.0002 54.4256C52.0619 54.4256 56.1799 50.3076 56.1799 45.2459V45.1641C56.1799 43.1394 57.8271 41.4922 59.8518 41.4922H62.2703C63.7864 41.4922 65.2678 41.1101 66.5849 40.409L68.6353 66.6906C68.7157 67.7226 68.373 68.7094 67.67 69.4695Z" fill="white"/>
</g>
<defs>
<clipPath id="clip0">
<rect width="94" height="94" fill="white"/>
</clipPath>
</defs>
</svg>
