<svg width="71" height="71" viewBox="0 0 71 71" fill="none" xmlns="http://www.w3.org/2000/svg">
<path d="M35.4992 55.8843C34.9246 55.8843 34.4591 56.35 34.4591 56.9244V60.426C34.4591 61.0004 34.9246 61.466 35.4992 61.466C36.0737 61.466 36.5393 61.0004 36.5393 60.426V56.9244C36.5393 56.35 36.0736 55.8843 35.4992 55.8843Z" fill="#07B2B2"/>
<path d="M11.9034 70.9999H59.0966C60.7617 70.9999 62.1162 69.6453 62.1162 67.9802V64.86C62.1162 64.2856 61.6507 63.8199 61.0761 63.8199C60.5016 63.8199 60.036 64.2856 60.036 64.86V67.9802C60.036 68.4983 59.6146 68.9197 59.0966 68.9197H53.3636V59.7788C53.3636 59.2044 52.898 58.7387 52.3235 58.7387C51.749 58.7387 51.2834 59.2044 51.2834 59.7788V68.9197H19.7166V59.7788C19.7166 59.2044 19.251 58.7387 18.6765 58.7387C18.102 58.7387 17.6364 59.2044 17.6364 59.7788V68.9197H11.9034C11.3854 68.9197 10.964 68.4983 10.964 67.9802V58.3208C10.964 54.3112 13.8082 51.6817 15.7253 50.8888C16.4445 50.608 22.5082 48.2398 23.4553 47.8698C23.9865 48.8106 33.148 65.0369 33.5519 65.7521C34.4083 67.2691 36.5917 67.2699 37.4486 65.7518C37.8902 64.9694 47.0901 48.6687 47.5298 47.8895C55.4641 50.9623 55.2754 50.8678 55.7155 51.0918C57.8661 52.2127 60.036 54.8827 60.036 58.3208V60.0063C60.036 60.5807 60.5016 61.0463 61.0761 61.0463C61.6507 61.0463 62.1162 60.5807 62.1162 60.0063V58.3208C62.1162 53.716 59.1861 50.5548 56.668 49.2424C56.0504 48.9282 54.0032 48.1657 52.4968 47.5823C55.9983 44.3675 55.1773 38.0837 52.3838 36.6434C51.1269 35.9954 49.8997 35.1801 49.4918 32.2142C50.0083 31.7534 50.4129 31.1999 50.6868 30.5924C50.623 32.0593 51.7928 33.3572 53.3414 33.3572H56.2779C58.0187 33.3572 59.2893 31.7126 58.8476 30.0271L57.6416 25.4264C57.9015 24.9603 58.0502 24.4242 58.0502 23.8538C58.0502 22.4308 57.1277 21.22 55.8498 20.7855V11.1816C55.8498 11.1787 55.8494 11.1759 55.8494 11.173C55.8463 10.2695 55.3435 9.45741 54.5353 9.05233C54.5353 9.05233 54.5353 9.05233 54.5351 9.05233L37.3246 0.429241C36.1822 -0.143219 34.818 -0.142942 33.6756 0.429241L16.4649 9.05233C15.6539 9.45866 15.1504 10.2745 15.1504 11.1816C15.1504 12.0887 15.6542 12.9044 16.465 13.3108L21.1441 15.6553V21.8323V24.2713C21.1441 24.6538 21.2017 25.0262 21.3073 25.3801C20.6791 25.8833 19.901 27.2167 19.901 28.6939C19.901 30.0259 20.4861 31.3021 21.5077 32.2138C21.1273 35.1002 20.0193 35.979 18.6076 36.7069C15.8282 38.1399 15.0032 44.3675 18.4403 47.5953L14.9591 48.9549C14.9533 48.9571 14.9475 48.9595 14.9416 48.9619C12.024 50.1625 8.88367 53.6035 8.88367 58.3208V67.9802C8.88381 69.6453 10.2383 70.9999 11.9034 70.9999ZM29.4765 54.3032L25.4126 47.1054L29.1992 45.6265L32.4354 50.1571C32.8472 50.7337 32.8762 51.4877 32.5094 52.0781C31.8052 53.2112 30.7765 53.9681 29.4765 54.3032ZM26.6963 32.1944V29.2137C29.5548 30.2393 32.5273 30.7365 35.4999 30.7365C38.4781 30.7365 41.4504 30.2374 44.3035 29.2137V32.0988C44.3035 36.7273 40.6241 40.6426 36.0141 40.8483C30.764 41.0818 26.6963 37.0575 26.6963 32.1944ZM24.1168 25.7932C24.1125 25.7908 24.1081 25.7887 24.1038 25.7864C23.5885 25.5085 23.2243 24.9398 23.2243 24.2713V23.6269C26.2882 25.1193 29.5646 26.0288 32.9808 26.3333C33.5498 26.3849 34.0582 25.962 34.1092 25.3898C34.1601 24.8176 33.7377 24.3124 33.1655 24.2615C29.6624 23.9493 26.3183 22.9493 23.2243 21.2902V16.6976L33.6754 21.9341C34.775 22.4852 36.1468 22.5241 37.3244 21.9341L47.7756 16.6976V21.2902C44.6817 22.9492 41.3375 23.9493 37.8342 24.2615C37.262 24.3125 36.8396 24.8176 36.8905 25.3898C36.9414 25.962 37.448 26.3848 38.0189 26.3333C41.435 26.0289 44.7118 25.1193 47.7754 23.6269V24.2713C47.7754 24.8606 47.4916 25.3691 47.0796 25.6706C47.0793 25.6707 47.079 25.671 47.0787 25.6711C46.94 25.7725 42.1457 28.6565 35.4997 28.6565C31.6175 28.6563 27.6656 27.704 24.1168 25.7932ZM24.6162 28.3648V31.4206C23.168 31.2551 21.981 30.1314 21.981 28.6938C21.981 28.1554 22.1558 27.6293 22.4786 27.1819C22.9874 27.6129 23.9541 28.0604 24.6162 28.3648ZM48.5214 27.1819C48.8441 27.6291 49.0188 28.1553 49.0188 28.6939C49.0188 30.125 47.8312 31.2621 46.3837 31.4208V28.365C47.0009 28.0816 48.0196 27.6075 48.5214 27.1819ZM36.4958 52.7465C35.8617 53.0068 35.1386 53.0062 34.505 52.745C35.0639 51.5188 34.9334 50.0754 34.1283 48.9481L30.8475 44.355C30.9375 44.1381 30.9992 43.8459 30.9992 43.5695V41.9885C33.6208 43.1367 36.9833 43.36 39.994 41.996L39.9952 43.5785V43.5787V43.579C39.9961 43.8312 40.0481 44.1093 40.1508 44.3578L36.8721 48.9481C36.0661 50.0759 35.936 51.52 36.4958 52.7465ZM35.637 64.7292C35.5763 64.8374 35.4239 64.8371 35.3633 64.7293L30.5263 56.1624C31.5996 55.7952 32.5125 55.222 33.2681 54.4578C34.648 55.2015 36.3531 55.2021 37.7333 54.4592C38.5182 55.2563 39.4841 55.8326 40.4721 56.162L35.637 64.7292ZM41.5216 54.3027C39.5827 53.8046 37.4011 51.7856 38.5644 50.1573L41.7758 45.6612L45.5696 47.1303L41.5216 54.3027ZM51.4303 38.4923C52.9679 39.2851 53.7508 44.7749 50.1952 46.6909L42.0751 43.5462V43.5418L42.0741 40.7524C44.3128 39.0482 45.8878 36.4934 46.2895 33.5158C46.6996 33.4955 47.1551 33.4197 47.5716 33.2924C48.1926 36.1987 49.4296 37.4607 51.4303 38.4923ZM56.8354 30.5544C56.931 30.9202 56.6566 31.2769 56.2777 31.2769H53.3412C52.9629 31.2769 52.6878 30.9202 52.7838 30.5544L53.7386 26.9115C54.074 27.0294 54.4342 27.0941 54.8093 27.0941C55.1845 27.0941 55.5448 27.0292 55.8803 26.9115L56.8354 30.5544ZM54.8096 22.6933C55.4494 22.6933 55.97 23.2139 55.97 23.8538C55.97 24.504 55.4147 25.0084 54.82 25.0135C54.255 25.0244 53.6493 24.5449 53.6493 23.8538C53.6491 23.2139 54.1697 22.6933 54.8096 22.6933ZM53.7696 20.7854C52.4916 21.2197 51.5691 22.4307 51.5691 23.8538C51.5691 24.4243 51.7179 24.9604 51.9778 25.4265L51.0966 28.7883C51.1238 27.4597 50.5239 26.1015 49.6936 25.3776C49.7987 25.0245 49.856 24.6528 49.856 24.2713V21.8323V15.6553L53.7698 13.6944V20.7854H53.7696ZM17.3966 11.451C17.2592 11.3821 17.2304 11.2665 17.2304 11.1816C17.2304 11.0967 17.2592 10.9809 17.3966 10.9121L34.6071 2.28904C35.1645 2.00975 35.8317 2.00808 36.3927 2.28904L52.0651 10.1415H38.6384C38.2013 8.82615 36.96 7.87455 35.4997 7.87455C33.6763 7.87455 32.1927 9.35812 32.1927 11.1816C32.1927 13.0051 33.6761 14.4886 35.4997 14.4886C36.9599 14.4886 38.2013 13.537 38.6384 12.2217H52.065L48.3503 14.0829C48.3501 14.0829 48.35 14.083 48.3497 14.083L36.3925 20.074C35.8337 20.354 35.1661 20.3541 34.6069 20.074L22.6497 14.083C22.6496 14.083 22.6495 14.0829 22.6492 14.0829L17.3966 11.451ZM36.7269 11.1816C36.7269 11.8581 36.1765 12.4085 35.4999 12.4085C34.8234 12.4085 34.273 11.8581 34.273 11.1816C34.273 10.5051 34.8234 9.95471 35.4999 9.95471C36.1765 9.95471 36.7269 10.505 36.7269 11.1816ZM19.5608 38.5556C21.5803 37.5143 22.8257 36.2321 23.4341 33.2942C23.8449 33.4192 24.3076 33.4952 24.6994 33.5154C25.0627 36.491 26.6308 39.0835 28.9187 40.782L28.9184 43.503C27.9641 43.8756 21.6201 46.3535 20.7126 46.7079C17.2788 44.7674 18.0082 39.3561 19.5608 38.5556Z" fill="#07B2B2"/>
</svg>
