<svg width="75" height="75" viewBox="0 0 75 75" fill="none" xmlns="http://www.w3.org/2000/svg">
<path d="M64.0165 10.9835C56.9338 3.90073 47.5166 0 37.5 0C27.4834 0 18.0662 3.90073 10.9835 10.9835C3.90059 18.0662 0 27.4834 0 37.5C0 47.5166 3.90059 56.9338 10.9835 64.0165C18.0662 71.0993 27.4834 75 37.5 75C47.5166 75 56.9338 71.0993 64.0165 64.0165C71.0994 56.9338 75 47.5166 75 37.5C75 27.4834 71.0994 18.0662 64.0165 10.9835ZM37.5 70.5357C19.2841 70.5357 4.46426 55.7159 4.46426 37.5C4.46426 19.2841 19.2841 4.46426 37.5 4.46426C55.7159 4.46426 70.5357 19.2841 70.5357 37.5C70.5357 55.7159 55.7159 70.5357 37.5 70.5357Z" fill="#07B2B2"/>
<path d="M29.388 27.597C25.7327 23.9415 19.785 23.9418 16.1298 27.597C15.2581 28.4686 15.2581 29.882 16.1298 30.7537C17.0017 31.6253 18.4151 31.6253 19.2867 30.7537C21.2015 28.839 24.317 28.8392 26.2315 30.7537C26.6675 31.1897 27.2386 31.4076 27.8097 31.4076C28.3809 31.4076 28.9523 31.1897 29.388 30.7537C30.2597 29.882 30.2597 28.4687 29.388 27.597Z" fill="#07B2B2"/>
<path d="M58.8697 27.597C55.2145 23.9418 49.2668 23.9415 45.6116 27.597C44.7398 28.4686 44.7398 29.882 45.6116 30.7537C46.4834 31.6253 47.8969 31.6253 48.7684 30.7537C50.683 28.839 53.7984 28.8389 55.7133 30.7537C56.1492 31.1897 56.7203 31.4076 57.2915 31.4076C57.8626 31.4076 58.4341 31.1897 58.8697 30.7537C59.7414 29.882 59.7414 28.4687 58.8697 27.597Z" fill="#07B2B2"/>
<path d="M57.2916 39.1367H17.7083C16.4755 39.1367 15.4762 40.1362 15.4762 41.3688C15.4762 53.5127 25.3561 63.3926 37.5 63.3926C49.6438 63.3926 59.5238 53.5127 59.5238 41.3688C59.5238 40.136 58.5244 39.1367 57.2916 39.1367ZM37.5 58.9284C28.5735 58.9284 21.1813 52.2336 20.0817 43.601H54.9184C53.8186 52.2336 46.4264 58.9284 37.5 58.9284Z" fill="#07B2B2"/>
</svg>
