<svg width="76" height="76" viewBox="0 0 76 76" fill="none" xmlns="http://www.w3.org/2000/svg">
<path d="M46.1186 59.28H45.9327C41.6911 59.1352 35.9336 58.2632 32.5999 54.9284C32.4128 54.7347 32.3093 54.4753 32.3116 54.206C32.3139 53.9368 32.422 53.6792 32.6124 53.4887C32.8028 53.2983 33.0604 53.1903 33.3297 53.188C33.599 53.1856 33.8584 53.2891 34.0521 53.4762C37.0644 56.4885 42.8321 57.1191 46.0036 57.2269C46.8378 57.2638 47.6567 56.994 48.3056 56.4683C48.9544 55.9427 49.3883 55.1976 49.5253 54.3739C49.8683 52.4708 48.5773 50.806 46.3127 50.2298L40.7462 48.8146C39.1485 48.4017 37.6207 47.7541 36.2129 46.893C35.0144 46.1669 33.517 45.3278 31.7608 44.3973C25.1272 40.8839 18.6087 41.7794 12.9128 46.9895C12.8133 47.0806 12.6968 47.1511 12.57 47.1971C12.4432 47.2431 12.3086 47.2637 12.1738 47.2577C12.039 47.2517 11.9068 47.2192 11.7846 47.1621C11.6624 47.105 11.5526 47.0244 11.4616 46.9248C11.3706 46.8253 11.3 46.7088 11.254 46.582C11.208 46.4552 11.1874 46.3206 11.1934 46.1858C11.1994 46.0511 11.2319 45.9188 11.289 45.7966C11.3461 45.6744 11.4268 45.5647 11.5263 45.4736C17.9206 39.6247 25.2505 38.6244 32.7221 42.5815C34.5132 43.5305 36.0455 44.3891 37.2769 45.1357C38.5115 45.8916 39.8513 46.4602 41.2526 46.8231L46.818 48.2384C50.1405 49.0826 52.0846 51.7549 51.5424 54.7374C51.3087 56.0077 50.639 57.1565 49.6489 57.9858C48.6587 58.8151 47.4102 59.2728 46.1186 59.28Z" fill="#07B2B2"/>
<path d="M39.9923 70.8332C37.1458 70.8307 34.3593 70.0147 31.961 68.4813L24.893 63.984C24.4589 63.7084 23.9654 63.5402 23.4534 63.4932C22.9414 63.4463 22.4255 63.5219 21.9485 63.7139L12.6026 67.4892C12.3514 67.5848 12.0728 67.578 11.8265 67.4705C11.5802 67.3629 11.3859 67.1631 11.2852 66.914C11.1846 66.6648 11.1856 66.3861 11.288 66.1377C11.3905 65.8892 11.5863 65.6909 11.8333 65.5851L21.1793 61.8098C21.9595 61.4954 22.8034 61.3714 23.641 61.4482C24.4787 61.525 25.286 61.8003 25.996 62.2514L33.064 66.7498C35.232 68.1391 37.7676 68.8445 40.3416 68.7742C42.9156 68.7038 45.409 67.8611 47.4979 66.3554L70.4334 49.9343C70.8449 49.6388 71.1871 49.2574 71.4364 48.8165C71.6857 48.3755 71.8361 47.8856 71.8771 47.3808C71.9182 46.8759 71.8489 46.3681 71.6741 45.8927C71.4993 45.4173 71.2231 44.9856 70.8648 44.6276C70.3229 44.0724 69.6093 43.7165 68.8398 43.6175C68.0704 43.5185 67.29 43.6823 66.6252 44.0823L51.302 54.1707C51.0744 54.3205 50.7966 54.3738 50.5298 54.3188C50.2629 54.2638 50.0288 54.1051 49.879 53.8775C49.7292 53.6499 49.6759 53.3722 49.7309 53.1053C49.7859 52.8385 49.9447 52.6044 50.1722 52.4546L65.4996 42.3671C66.7245 41.6111 68.1954 41.3609 69.6014 41.6695C71.0074 41.978 72.2383 42.8212 73.034 44.0207C73.8298 45.2202 74.1279 46.6821 73.8655 48.0975C73.6031 49.5128 72.8007 50.7707 71.6278 51.6052L48.6943 68.0243C46.159 69.848 43.1154 70.8304 39.9923 70.8332Z" fill="#07B2B2"/>
<path d="M46.5654 50.2596C46.3443 50.2596 46.1291 50.1883 45.9518 50.0563C45.7745 49.9243 45.6445 49.7386 45.5812 49.5268C45.5178 49.3149 45.5245 49.0883 45.6003 48.8807C45.676 48.673 45.8168 48.4952 46.0016 48.3739L56.1568 41.726C57.6957 40.71 59.5477 40.2792 61.3769 40.5118C63.2061 40.7443 64.8915 41.6247 66.1272 42.9933C66.3059 43.1955 66.3978 43.4598 66.3832 43.7292C66.3686 43.9986 66.2485 44.2515 66.0489 44.4331C65.8494 44.6147 65.5864 44.7104 65.3168 44.6997C65.0472 44.689 64.7927 44.5726 64.6082 44.3757C63.7001 43.3705 62.4618 42.7238 61.1179 42.5529C59.774 42.382 58.4133 42.6982 57.2824 43.4442L47.1272 50.0921C46.9604 50.2017 46.765 50.2599 46.5654 50.2596Z" fill="#07B2B2"/>
<path d="M40.2071 48.6142C39.9879 48.6143 39.7744 48.5443 39.5979 48.4143C39.4213 48.2844 39.291 48.1014 39.2259 47.8921C39.1609 47.6827 39.1645 47.4581 39.2363 47.251C39.308 47.0438 39.4442 46.8651 39.6248 46.7409L48.5404 40.6116C49.9634 39.6436 51.6856 39.2162 53.3961 39.4066C55.1065 39.597 56.6926 40.3927 57.8679 41.6499C57.9617 41.7485 58.035 41.8648 58.0835 41.9919C58.132 42.1191 58.1548 42.2546 58.1505 42.3907C58.1461 42.5267 58.1148 42.6605 58.0583 42.7843C58.0018 42.9082 57.9213 43.0195 57.8214 43.112C57.7215 43.2044 57.6042 43.276 57.4764 43.3227C57.3485 43.3694 57.2127 43.3902 57.0767 43.384C56.9407 43.3777 56.8074 43.3445 56.6844 43.2862C56.5614 43.228 56.4512 43.1459 56.3602 43.0446C55.5215 42.1474 54.3896 41.5797 53.169 41.4439C51.9484 41.3081 50.7194 41.6132 49.704 42.3042L40.7874 48.4345C40.6165 48.5515 40.4142 48.6142 40.2071 48.6142Z" fill="#07B2B2"/>
<path d="M7.05875 71.4184H3.08107C2.80869 71.4184 2.54746 71.3102 2.35486 71.1176C2.16225 70.925 2.05405 70.6638 2.05405 70.3914V41.9592C2.05405 41.6868 2.16225 41.4255 2.35486 41.2329C2.54746 41.0403 2.80869 40.9321 3.08107 40.9321H7.05875C8.69972 40.9332 10.2732 41.5854 11.4337 42.7456C12.5943 43.9057 13.247 45.479 13.2486 47.12V65.2306C13.247 66.8715 12.5943 68.4448 11.4337 69.6049C10.2732 70.7651 8.69972 71.4173 7.05875 71.4184ZM4.1081 69.3643H7.05875C8.15512 69.3638 9.20646 68.9282 9.9819 68.1531C10.7573 67.3781 11.1935 66.3269 11.1946 65.2306V47.12C11.1932 46.0241 10.7572 44.9736 9.98227 44.1988C9.2073 43.424 8.15664 42.9883 7.0608 42.9872H4.1081V69.3643Z" fill="#07B2B2"/>
<path d="M31.2688 37.1401C31.0198 37.1401 30.7793 37.0496 30.592 36.8854C29.9974 36.3647 16.0298 24.0312 15.4177 15.0221C15.3216 13.6742 15.5062 12.321 15.96 11.0482C16.4138 9.77536 17.1269 8.61056 18.0541 7.6275C18.9239 6.68173 19.9781 5.92396 21.1518 5.4008C22.3255 4.87764 23.5938 4.60017 24.8787 4.58545C26.0718 4.59418 27.2512 4.84021 28.3483 5.30923C29.4453 5.77825 30.4381 6.46087 31.2688 7.31734C32.0995 6.46087 33.0923 5.77825 34.1894 5.30923C35.2864 4.84021 36.4659 4.59418 37.659 4.58545C38.9439 4.60017 40.2122 4.87764 41.3858 5.4008C42.5595 5.92396 43.6137 6.68173 44.4836 7.6275C45.4107 8.61056 46.1238 9.77536 46.5776 11.0482C47.0314 12.321 47.2161 13.6742 47.1199 15.0221C46.5037 24.0312 32.5362 36.3647 31.9456 36.8854C31.7584 37.0496 31.5178 37.1401 31.2688 37.1401ZM24.8787 6.63745C23.8752 6.65143 22.8852 6.87058 21.9696 7.2814C21.054 7.69223 20.2321 8.28604 19.5545 9.02631C18.8204 9.80449 18.2557 10.7266 17.8963 11.7343C17.5369 12.7419 17.3906 13.8132 17.4666 14.8804C17.9503 21.9987 28.4712 32.1447 31.2688 34.7236C34.0654 32.1437 44.5873 21.9884 45.071 14.8793C45.147 13.8122 45.0006 12.7409 44.6412 11.7333C44.2818 10.7256 43.7172 9.8035 42.9831 9.02529C42.3056 8.28473 41.4838 7.6906 40.5682 7.27943C39.6526 6.86826 38.6626 6.64874 37.659 6.63437C36.5719 6.65139 35.5033 6.91831 34.5359 7.41448C33.5685 7.91064 32.7283 8.62274 32.0802 9.49567C31.9804 9.61356 31.8561 9.70828 31.716 9.77326C31.5759 9.83823 31.4233 9.87189 31.2688 9.87189C31.1144 9.87189 30.9618 9.83823 30.8216 9.77326C30.6815 9.70828 30.5572 9.61356 30.4575 9.49567C29.8093 8.62293 28.969 7.91103 28.0016 7.41504C27.0342 6.91906 25.9656 6.6523 24.8787 6.6354V6.63745Z" fill="#07B2B2"/>
<path d="M42.5107 40.0137C42.2617 40.0137 42.0211 39.9232 41.8339 39.759C39.3421 37.5201 37.0085 35.1111 34.8501 32.5493C34.7607 32.4463 34.6927 32.3265 34.65 32.1969C34.6074 32.0674 34.591 31.9306 34.6018 31.7946C34.6126 31.6587 34.6504 31.5262 34.713 31.405C34.7755 31.2838 34.8616 31.1762 34.9662 31.0887C35.0707 31.0011 35.1917 30.9352 35.322 30.8949C35.4523 30.8546 35.5894 30.8406 35.7251 30.8538C35.8609 30.867 35.9926 30.9071 36.1127 30.9718C36.2328 31.0365 36.3388 31.1245 36.4245 31.2306C38.3237 33.4746 40.3576 35.601 42.5148 37.5982C45.0721 35.2309 54.0175 26.5361 54.4283 20.453C54.493 19.5386 54.3672 18.6208 54.0589 17.7576C53.7506 16.8944 53.2665 16.1045 52.6372 15.438C51.8516 14.5757 50.8378 13.9536 49.7133 13.6435C48.5888 13.3334 47.3995 13.3481 46.283 13.6859C46.1548 13.7286 46.0195 13.7457 45.8848 13.7362C45.7501 13.7267 45.6185 13.6907 45.4977 13.6303C45.3769 13.57 45.2691 13.4864 45.1806 13.3844C45.092 13.2824 45.0245 13.1639 44.9817 13.0358C44.939 12.9077 44.9219 12.7724 44.9314 12.6376C44.9409 12.5029 44.9769 12.3714 45.0373 12.2505C45.0976 12.1297 45.1812 12.0219 45.2832 11.9334C45.3852 11.8449 45.5037 11.7773 45.6318 11.7345C47.1217 11.2757 48.711 11.2478 50.216 11.6542C51.721 12.0606 53.0802 12.8846 54.1366 14.031C54.9591 14.9024 55.5917 15.9352 55.9944 17.0637C56.3972 18.1923 56.5612 19.3922 56.4762 20.5875C55.9401 28.4956 43.7062 39.2979 43.1865 39.7539C43.0002 39.9197 42.76 40.012 42.5107 40.0137Z" fill="#07B2B2"/>
</svg>
