<svg width="74" height="74" viewBox="0 0 74 74" fill="none" xmlns="http://www.w3.org/2000/svg">
<g clip-path="url(#clip0)">
<path d="M51.8148 71.8328C51.6058 70.9232 51.1388 70.1078 50.4995 69.4648C49.6105 68.5798 48.3897 68.0267 47.0458 68.0267H26.9542C25.6104 68.0267 24.3895 68.5798 23.5005 69.4648C22.8614 70.1078 22.3943 70.9232 22.1853 71.8328H51.8148ZM35.7176 14.2821C35.1153 14.2821 34.6319 13.7985 34.6319 13.1964C34.6319 12.5982 35.1153 12.1148 35.7176 12.1148H38.2823C38.8805 12.1148 39.368 12.5984 39.368 13.1964V25.2129C39.368 25.8113 38.8805 26.2988 38.2823 26.2988C37.6841 26.2988 37.2008 25.8113 37.2008 25.2129V14.2821H35.7176ZM37 6.93634C40.3883 6.93634 43.4568 8.30881 45.6774 10.5292C47.898 12.7498 49.2704 15.8185 49.2704 19.2068C49.2704 22.5949 47.898 25.6595 45.6774 27.8801C43.4568 30.1005 40.3883 31.4773 37 31.4773C33.6118 31.4773 30.5432 30.1007 28.3227 27.8801C26.1021 25.6595 24.7296 22.595 24.7296 19.2068C24.7296 15.8185 26.1021 12.7498 28.3227 10.5292C30.5432 8.30881 33.6118 6.93634 37 6.93634ZM44.141 12.0617C42.3139 10.2345 39.7901 9.10359 37 9.10359C34.21 9.10359 31.6862 10.2344 29.855 12.0617C28.0277 13.8889 26.8969 16.4167 26.8969 19.2068C26.8969 21.9968 28.0277 24.5206 29.855 26.3478C31.6863 28.1751 34.2101 29.3057 37 29.3057C39.7899 29.3057 42.3139 28.1751 44.141 26.3478C45.9724 24.5205 47.1032 21.9968 47.1032 19.2068C47.1032 16.4167 45.9724 13.8889 44.141 12.0617ZM52.8923 27.0034V2.16739H39.454C38.8558 2.16739 38.3725 1.68379 38.3725 1.08572C38.3725 0.487648 38.856 0 39.454 0H53.978C54.5762 0 55.0595 0.487504 55.0595 1.08572V5.09256H62.7905C63.3887 5.09256 63.872 5.57616 63.872 6.17438V21.5626C63.872 24.4019 62.7126 26.987 60.8403 28.8552C59.1565 30.539 56.8989 31.6495 54.3916 31.8544C53.9697 33.3578 53.3592 34.7836 52.5808 36.1071H57.534C58.1322 36.1071 58.6157 36.5904 58.6157 37.1885C58.6157 37.7867 58.1322 38.2742 57.534 38.2742H51.0853C49.6391 40.0729 47.8569 41.597 45.8371 42.7357V54.9529H67.5677L63.192 47.1444C62.9995 46.796 63.0158 46.3903 63.2002 46.0708L67.5677 38.2742H62.4423C61.8442 38.2742 61.3566 37.7867 61.3566 37.1885C61.3566 36.5903 61.8442 36.1071 62.4423 36.1071H69.4155C69.5957 36.1071 69.78 36.152 69.9439 36.2463C70.4683 36.5372 70.6528 37.1967 70.3619 37.7172L65.38 46.6118L70.3333 55.4571C70.4398 55.6252 70.5012 55.8259 70.5012 56.0388C70.5012 56.637 70.0136 57.1205 69.4155 57.1205H45.8372V60.9429V65.8593H47.0458C48.9879 65.8593 50.7536 66.6541 52.0319 67.9326C53.3102 69.2108 54.105 70.9765 54.105 72.9185C54.105 73.5167 53.6175 74 53.0193 74H20.9808C20.3825 74 19.895 73.5165 19.895 72.9185C19.895 70.9765 20.6898 69.2108 21.9682 67.9326C23.2464 66.6541 25.0122 65.8593 26.9542 65.8593H28.163V57.1205H19.3707C18.7725 57.1205 18.285 56.6369 18.285 56.0388C18.285 55.4406 18.7726 54.9529 19.3707 54.9529H28.163V42.7357C26.1431 41.597 24.3609 40.0729 22.9146 38.2742H6.43239L10.7998 46.0708C10.9841 46.3903 11.0006 46.796 10.8039 47.1444L6.43239 54.9529H14.4584C15.0606 54.9529 15.5442 55.4406 15.5442 56.0388C15.5442 56.637 15.0606 57.1205 14.4584 57.1205H4.58456C3.98649 57.1205 3.49884 56.6369 3.49884 56.0388C3.49884 55.8258 3.56027 55.6252 3.66679 55.4571L8.62002 46.6118L3.63817 37.7172C3.23666 37.0001 3.76116 36.103 4.58456 36.1071H21.4191C20.6407 34.7838 20.0303 33.358 19.6042 31.8544C17.101 31.6495 14.8435 30.539 13.1596 28.8552C11.2873 26.987 10.1239 24.4018 10.1239 21.5626V6.17438C10.1239 5.57602 10.6114 5.09256 11.2096 5.09256H18.9406V1.08572C18.9406 0.487504 19.424 0 20.0221 0H34.546C35.1442 0 35.6276 0.487504 35.6276 1.08572C35.6276 1.68393 35.1441 2.16739 34.546 2.16739H21.1078V27.0034C21.1078 29.9162 21.9027 32.7596 23.4268 35.2465C24.9018 37.6595 27.0199 39.6711 29.5109 41.011H44.4895C46.9763 39.6711 49.0986 37.6595 50.5735 35.2465C52.0975 32.7596 52.8923 29.9162 52.8923 27.0034ZM54.8712 29.6132C56.5878 29.3305 58.1241 28.5071 59.3083 27.3229C60.7873 25.8441 61.705 23.8036 61.705 21.5626V7.25995H55.0596V27.0034C55.0596 27.8883 54.994 28.7609 54.8712 29.6132ZM18.9404 7.25995H12.2952V21.5625C12.2952 23.8036 13.2129 25.8439 14.6919 27.3228C15.8761 28.5068 17.4124 29.3303 19.129 29.613C19.0021 28.7609 18.9406 27.8882 18.9406 27.0032V7.25995H18.9404ZM43.6658 62.0286H30.3302V65.8593H43.6658V62.0286ZM30.3302 43.1783V59.8612H43.6658V43.1783H30.3302Z" fill="#07B2B2"/>
</g>
<defs>
<clipPath id="clip0">
<rect width="74" height="74" fill="white"/>
</clipPath>
</defs>
</svg>
